<svg width="42" height="36" viewBox="0 0 42 36" fill="none" xmlns="http://www.w3.org/2000/svg">
<path d="M6.85826 14.4615C6.35571 18.3086 6.05626 22.1795 5.96115 26.0581C11.221 28.2552 16.2572 30.9534 21 34.1156C25.7434 30.9533 30.7802 28.2551 36.0407 26.0581C35.9455 22.1795 35.646 18.3086 35.1436 14.4615M35.1436 14.4615C36.7423 13.9243 38.3629 13.4273 40 12.9742C34.0374 8.79427 27.6725 5.2198 21 2.30396C14.3274 5.22041 7.96255 8.79549 2 12.976C3.6321 13.4266 5.25152 13.922 6.85643 14.4615C11.7323 16.1008 16.4631 18.1432 21 20.5676C25.5362 18.1432 30.2683 16.1007 35.1436 14.4615ZM11.4077 23.3284C11.7712 23.3284 12.1197 23.184 12.3767 22.927C12.6337 22.67 12.7781 22.3215 12.7781 21.9581C12.7781 21.5946 12.6337 21.2461 12.3767 20.9891C12.1197 20.7321 11.7712 20.5877 11.4077 20.5877C11.0443 20.5877 10.6958 20.7321 10.4388 20.9891C10.1818 21.2461 10.0374 21.5946 10.0374 21.9581C10.0374 22.3215 10.1818 22.67 10.4388 22.927C10.6958 23.184 11.0443 23.3284 11.4077 23.3284ZM11.4077 23.3284V16.6138C14.5078 14.6868 17.7099 12.929 21 11.3481M8.19752 32.4511C9.21699 31.4341 10.0254 30.2257 10.5763 28.8953C11.1273 27.5649 11.4098 26.1387 11.4077 24.6987V21.9581" stroke="#626262" stroke-width="2.74065" stroke-linecap="round" stroke-linejoin="round"/>
</svg>
