<svg width="40" height="40" viewBox="0 0 40 40" fill="none" xmlns="http://www.w3.org/2000/svg">
<path d="M13.6667 8.93923V26.3559M26.3333 13.6892V31.1059M27.3952 38.4906L37.6869 33.3458C38.4912 32.9447 39 32.1213 39 31.222V4.86479C39 3.0999 37.1422 1.95146 35.5631 2.74101L27.3952 6.8239C26.726 7.15957 25.9386 7.15957 25.2714 6.8239L14.7286 1.55457C14.3988 1.38976 14.0353 1.30396 13.6667 1.30396C13.2981 1.30396 12.9345 1.38976 12.6048 1.55457L2.31311 6.69935C1.50667 7.10257 1 7.9259 1 8.82312V35.1803C1 36.9452 2.85778 38.0937 4.43689 37.3041L12.6048 33.2212C13.274 32.8856 14.0614 32.8856 14.7286 33.2212L25.2714 38.4927C25.9407 38.8262 26.7281 38.8262 27.3952 38.4927V38.4906Z" stroke="#626262" stroke-width="2" stroke-linecap="round" stroke-linejoin="round"/>
</svg>
