<svg width="40" height="32" viewBox="0 0 40 32" fill="none" xmlns="http://www.w3.org/2000/svg">
<path d="M3.19231 30.5347H36.8077M3.19231 30.5347C2.61087 30.5347 2.05325 30.3038 1.64211 29.8926C1.23097 29.4815 1 28.9239 1 28.3424M3.19231 30.5347H6.11538C7.32554 30.5347 8.30769 29.5526 8.30769 28.3424M36.8077 30.5347C38.0178 30.5347 39 29.5526 39 28.3424M36.8077 30.5347H33.8846C33.3032 30.5347 32.7456 30.3038 32.3344 29.8926C31.9233 29.4815 31.6923 28.9239 31.6923 28.3424M1 28.3424V3.49626M1 28.3424V25.4193C1 24.2092 1.98215 23.227 3.19231 23.227M8.30769 28.3424V18.1116M8.30769 28.3424C8.30769 29.5526 9.28985 30.5347 10.5 30.5347H29.5C30.7102 30.5347 31.6923 29.5526 31.6923 28.3424M8.30769 28.3424V25.4193C8.30769 24.2092 7.32554 23.227 6.11538 23.227M1 3.49626C1 2.28611 1.98215 1.30396 3.19231 1.30396M1 3.49626V6.41934C1 7.62949 1.98215 8.61165 3.19231 8.61165M3.19231 23.227C1.98215 23.227 1 22.2449 1 21.0347V18.1116C1 16.9015 1.98215 15.9193 3.19231 15.9193M3.19231 23.227H6.11538M39 28.3424V3.49626M39 28.3424V25.4193C39 24.2092 38.0178 23.227 36.8077 23.227M39 3.49626C39 2.28611 38.0178 1.30396 36.8077 1.30396M39 3.49626V6.41934C39 7.62949 38.0178 8.61165 36.8077 8.61165M36.8077 23.227C38.0178 23.227 39 22.2449 39 21.0347V18.1116C39 16.9015 38.0178 15.9193 36.8077 15.9193M36.8077 23.227H33.8846M31.6923 28.3424V18.1116M31.6923 28.3424V25.4193C31.6923 24.2092 32.6745 23.227 33.8846 23.227M36.8077 1.30396H3.19231M36.8077 1.30396H33.8846C32.6745 1.30396 31.6923 2.28611 31.6923 3.49626M3.19231 1.30396H6.11538C7.32554 1.30396 8.30769 2.28611 8.30769 3.49626M31.6923 3.49626C31.6923 2.28611 30.7102 1.30396 29.5 1.30396H10.5C9.28985 1.30396 8.30769 2.28611 8.30769 3.49626M31.6923 3.49626V6.41934C31.6923 7.00078 31.9233 7.5584 32.3344 7.96954C32.7456 8.38067 33.3032 8.61165 33.8846 8.61165M31.6923 3.49626V13.727M36.8077 8.61165H33.8846M36.8077 8.61165C38.0178 8.61165 39 9.5938 39 10.804V13.727C39 14.9372 38.0178 15.9193 36.8077 15.9193M8.30769 3.49626V6.41934C8.30769 7.62949 7.32554 8.61165 6.11538 8.61165M8.30769 3.49626V13.727M3.19231 8.61165H6.11538M3.19231 8.61165C1.98215 8.61165 1 9.5938 1 10.804V13.727C1 14.9372 1.98215 15.9193 3.19231 15.9193M6.11538 8.61165C7.32554 8.61165 8.30769 9.5938 8.30769 10.804V13.727M3.19231 15.9193H6.11538M8.30769 13.727C8.30769 14.3085 8.53867 14.8661 8.9498 15.2772C9.36094 15.6884 9.91856 15.9193 10.5 15.9193M8.30769 13.727C8.30769 14.9372 7.32554 15.9193 6.11538 15.9193M33.8846 8.61165C32.6745 8.61165 31.6923 9.5938 31.6923 10.804V13.727M31.6923 13.727C31.6923 14.9372 30.7102 15.9193 29.5 15.9193M31.6923 13.727C31.6923 14.9372 32.6745 15.9193 33.8846 15.9193M36.8077 15.9193H33.8846M10.5 15.9193H29.5M10.5 15.9193C9.28985 15.9193 8.30769 16.9015 8.30769 18.1116M29.5 15.9193C30.7102 15.9193 31.6923 16.9015 31.6923 18.1116M8.30769 18.1116V21.0347C8.30769 22.2449 7.32554 23.227 6.11538 23.227M8.30769 18.1116C8.30769 16.9015 7.32554 15.9193 6.11538 15.9193M33.8846 15.9193C32.6745 15.9193 31.6923 16.9015 31.6923 18.1116M31.6923 18.1116V21.0347C31.6923 22.2449 32.6745 23.227 33.8846 23.227" stroke="#626262" stroke-width="2" stroke-linecap="round" stroke-linejoin="round"/>
</svg>
