<svg width="40" height="51" viewBox="0 0 40 51" fill="none" xmlns="http://www.w3.org/2000/svg">
<path d="M13.6239 17.7884L39 10.462M39 26.4653V35.6233C38.9998 36.8172 38.6147 37.9786 37.903 38.9317C37.1914 39.8848 36.1919 40.5777 35.0558 40.9056L31.8657 41.8263C31.3126 41.9952 30.7317 42.0513 30.1569 41.9912C29.5822 41.9311 29.0249 41.7561 28.5177 41.4764C28.0105 41.1966 27.5634 40.8178 27.2025 40.3618C26.8415 39.9058 26.574 39.3818 26.4153 38.8204C26.2566 38.2589 26.2101 37.6712 26.2783 37.0913C26.3466 36.5115 26.5282 35.9512 26.8128 35.443C27.0974 34.9348 27.4791 34.4889 27.9358 34.1312C28.3925 33.7735 28.9151 33.5111 29.4731 33.3594L35.0558 31.7476C36.1919 31.4197 37.1914 30.7268 37.903 29.7737C38.6147 28.8206 38.9998 27.6592 39 26.4653ZM39 26.4653V1.30396L13.6239 8.63036V33.7917M13.6239 33.7917V42.9497C13.6237 44.1436 13.2386 45.305 12.527 46.2581C11.8153 47.2112 10.8158 47.9041 9.67974 48.232L6.48961 49.1527C5.38479 49.4531 4.20738 49.3024 3.21162 48.733C2.21585 48.1637 1.48163 47.2215 1.16748 46.1098C0.853339 44.9981 0.984481 43.8061 1.53259 42.7913C2.0807 41.7765 3.0018 41.0203 4.09701 40.6858L9.67974 39.074C10.8158 38.7461 11.8153 38.0532 12.527 37.1001C13.2386 36.147 13.6237 34.9856 13.6239 33.7917Z" stroke="#626262" stroke-width="2" stroke-linecap="round" stroke-linejoin="round"/>
</svg>
