<svg width="40" height="48" viewBox="0 0 40 48" fill="none" xmlns="http://www.w3.org/2000/svg">
<path d="M26.3112 16.8396L25.514 37.5669M14.486 37.5669L13.6888 16.8396M36.6455 9.44823C37.4331 9.56717 38.2179 9.69442 39 9.82989M36.6455 9.44823L34.1862 41.4189C33.9785 44.1186 31.7273 46.2033 29.0197 46.2033H10.9803C8.27266 46.2033 6.02146 44.1186 5.81379 41.4189L3.35451 9.44823M36.6455 9.44823C34.0052 9.0495 31.3344 8.74415 28.6364 8.53566M1 9.82989C1.78205 9.69442 2.56692 9.56717 3.35451 9.44823M3.35451 9.44823C5.99476 9.0495 8.66562 8.74415 11.3636 8.53566M28.6364 8.53566V6.42577C28.6364 3.70966 26.5391 1.44212 23.8244 1.35527C22.5546 1.31465 21.2797 1.29419 20 1.29419C18.7203 1.29419 17.4454 1.31465 16.1756 1.35527C13.4609 1.44212 11.3636 3.70966 11.3636 6.42577V8.53566M28.6364 8.53566C25.7865 8.31544 22.9063 8.20328 20 8.20328C17.0937 8.20328 14.2135 8.31544 11.3636 8.53566" stroke="#57BFE5" stroke-width="2" stroke-linecap="round" stroke-linejoin="round"/>
</svg>
