<svg width="445" height="55" viewBox="0 0 445 55" fill="none" xmlns="http://www.w3.org/2000/svg">
<path d="M25.0298 45.0672C24.3575 45.2017 23.7523 45.1793 23.2144 45C22.6765 44.8655 22.2282 44.6638 21.8696 44.3949C21.511 44.0811 21.2421 43.8121 21.0628 43.588C20.8835 43.3639 20.7938 43.2518 20.7938 43.2518C19.4939 40.7416 18.2163 38.6572 16.9612 36.9986C15.7061 35.2953 14.451 33.8608 13.1959 32.6954C11.9408 31.5299 10.6408 30.5662 9.29605 29.8041C7.99611 29.0421 6.60652 28.3697 5.12727 27.787L5.26175 20.9959C8.35471 20.1442 10.977 19.0011 13.1286 17.5667C15.2803 16.0875 17.0509 14.5186 18.4405 12.86C19.8301 11.1567 20.9059 9.49812 21.6679 7.8844C22.4748 6.27068 23.0127 4.85867 23.2816 3.64838C23.2816 3.64838 23.3265 3.53632 23.4161 3.31219C23.5506 3.08806 23.7523 2.86393 24.0213 2.6398C24.2902 2.37085 24.6488 2.16913 25.0971 2.03466C25.5453 1.85536 26.1281 1.83294 26.8453 1.96742C27.6073 2.1019 28.1676 2.37085 28.5262 2.77428C28.9297 3.13289 29.1762 3.5139 29.2659 3.91734C29.3555 4.32076 29.4003 4.67937 29.4003 4.99315C29.4003 5.2621 29.4003 5.39658 29.4003 5.39658C29.2659 7.14478 28.84 8.87056 28.1228 10.5739C27.4504 12.2773 26.5763 13.9134 25.5005 15.4823C24.4247 17.0064 23.192 18.4184 21.8024 19.7184C20.4128 20.9735 18.9336 22.0941 17.3647 23.0803C15.8406 24.0216 14.2941 24.7388 12.7252 25.2319C14.832 26.3077 16.8043 27.7421 18.6422 29.5352C20.5249 31.3282 22.2058 33.3005 23.6851 35.4521C25.1643 37.6038 26.3746 39.7778 27.3159 41.9743C27.3159 41.9743 27.3384 42.1087 27.3832 42.3777C27.428 42.6018 27.4056 42.9156 27.3159 43.319C27.2263 43.6776 27.0022 44.0362 26.6436 44.3949C26.3298 44.7086 25.7919 44.9328 25.0298 45.0672ZM5.06003 45C4.298 45 3.69285 44.8655 3.2446 44.5966C2.79634 44.2828 2.43773 43.9466 2.16878 43.588C1.94465 43.1846 1.78776 42.8484 1.69811 42.5794C1.60846 42.2656 1.56364 42.1087 1.56364 42.1087C1.38433 40.1812 1.22744 37.9848 1.09297 35.5194C1.00332 33.0092 0.936077 30.3644 0.891251 27.5853C0.891251 24.8061 0.913664 22.0269 0.95849 19.2477C1.00332 16.4237 1.09297 13.7117 1.22744 11.1118C1.36192 8.46713 1.51881 6.06896 1.69811 3.91734C1.69811 3.91734 1.72053 3.78286 1.76535 3.5139C1.81018 3.24495 1.92224 2.95358 2.10154 2.6398C2.28085 2.32602 2.57221 2.05707 2.97564 1.83294C3.4239 1.56399 4.00663 1.42951 4.72384 1.42951C5.48588 1.42951 6.09102 1.56399 6.53928 1.83294C6.98753 2.1019 7.32373 2.43809 7.54785 2.84152C7.81681 3.20012 7.99611 3.55873 8.08576 3.91734C8.17541 4.27594 8.22024 4.58972 8.22024 4.85867C8.22024 5.0828 8.22024 5.19486 8.22024 5.19486C8.04094 7.03271 7.90646 9.16193 7.81681 11.5825C7.72716 13.9583 7.65992 16.4909 7.61509 19.1805C7.61509 21.87 7.61509 24.6044 7.61509 27.3835C7.65992 30.1179 7.70474 32.785 7.74957 35.3849C7.83922 37.94 7.95128 40.2933 8.08576 42.4449C8.08576 42.4449 8.06335 42.5794 8.01852 42.8484C7.9737 43.1173 7.86163 43.4311 7.68233 43.7897C7.50303 44.1035 7.18925 44.3949 6.74099 44.6638C6.33756 44.8879 5.77724 45 5.06003 45ZM38.021 45C37.3038 45 36.7211 44.8655 36.2728 44.5966C35.8246 44.2828 35.466 43.9466 35.197 43.588C34.9729 43.1846 34.816 42.8484 34.7264 42.5794C34.6367 42.2656 34.5919 42.1087 34.5919 42.1087C34.4126 40.1812 34.2557 37.9848 34.1212 35.5194C34.0316 33.0092 33.9643 30.3644 33.9195 27.5853C33.9195 24.8061 33.9419 22.0269 33.9867 19.2477C34.0316 16.4237 34.1212 13.7117 34.2557 11.1118C34.3902 8.46713 34.5471 6.06896 34.7264 3.91734C34.7264 3.91734 34.7488 3.80527 34.7936 3.58114C34.8384 3.31219 34.9505 3.02082 35.1298 2.70704C35.3091 2.34844 35.6005 2.05707 36.0039 1.83294C36.4521 1.56399 37.0349 1.42951 37.7521 1.42951C38.5141 1.47434 39.1193 1.63123 39.5675 1.90018C40.0158 2.12431 40.352 2.43809 40.5761 2.84152C40.845 3.20012 41.0243 3.55873 41.114 3.91734C41.2037 4.27594 41.2485 4.58972 41.2485 4.85867C41.2485 5.0828 41.2485 5.19486 41.2485 5.19486C41.0692 7.03271 40.9347 9.16193 40.845 11.5825C40.7554 13.9583 40.6882 16.4909 40.6433 19.1805C40.6433 21.87 40.6433 24.6044 40.6433 27.3835C40.6882 30.1179 40.733 32.785 40.7778 35.3849C40.8675 37.94 40.9795 40.2933 41.114 42.4449C41.114 42.4449 41.0916 42.5794 41.0468 42.8484C41.0019 43.1173 40.8899 43.4311 40.7106 43.7897C40.5313 44.1035 40.2175 44.3949 39.7692 44.6638C39.3658 44.8879 38.7831 45 38.021 45ZM67.5082 44.1931C65.0876 44.5069 62.7119 44.7535 60.381 44.9328C58.0949 45.1121 55.988 45.1345 54.0605 45C52.1779 44.9103 50.609 44.6414 49.3539 44.1931C48.0987 43.7001 47.3367 42.9604 47.0678 41.9743C46.8884 40.0468 46.7316 37.8503 46.5971 35.3849C46.5074 32.8747 46.4402 30.2524 46.3954 27.518C46.3954 24.7837 46.4178 22.0269 46.4626 19.2477C46.5074 16.4237 46.5971 13.7117 46.7316 11.1118C46.866 8.51196 47.0229 6.1362 47.2022 3.98457C47.2471 3.58114 47.3815 3.17771 47.6057 2.77428C47.8298 2.37085 48.1884 2.03466 48.6815 1.76571C49.1746 1.49675 49.8469 1.36227 50.6986 1.36227L65.4238 1.42951C67.3962 1.69847 69.2116 2.23637 70.8701 3.04324C72.5287 3.80527 73.9631 4.79143 75.1734 6.00172C76.3837 7.21201 77.2802 8.5792 77.8629 10.1033C78.3112 11.4032 78.4905 12.6807 78.4009 13.9359C78.3112 15.1461 77.975 16.2892 77.3923 17.365C76.8095 18.396 76.0027 19.3373 74.9717 20.189C73.9855 21.0407 72.8201 21.7579 71.4753 22.3407C72.8649 22.9682 74.0752 23.8423 75.1062 24.963C76.1372 26.0388 76.9664 27.2491 77.594 28.5938C78.2215 29.8938 78.5802 31.261 78.6698 32.6954C78.625 34.5332 78.1991 36.2142 77.3923 37.7383C76.5854 39.2175 75.3751 40.495 73.7614 41.5708C72.1477 42.6467 70.0633 43.5208 67.5082 44.1931ZM53.5226 39.1503C55.6743 39.1503 57.7138 39.1278 59.6413 39.083C61.6137 38.9934 63.3843 38.7917 64.9532 38.4779C66.5221 38.1193 67.822 37.6038 68.853 36.9314C71.3632 35.0487 72.2149 32.9195 71.4081 30.5437C71.0046 29.2886 70.3547 28.3025 69.4581 27.5853C68.5616 26.868 67.5306 26.3301 66.3652 25.9715C65.2445 25.6129 64.0567 25.3888 62.8015 25.2991L53.1864 25.4336C53.1416 27.7197 53.1416 30.0058 53.1864 32.2919C53.2761 34.578 53.3882 36.8642 53.5226 39.1503ZM53.3209 18.6425C55.5174 18.777 57.669 18.7994 59.7758 18.7098C61.9274 18.5753 64.0791 18.3064 66.2307 17.9029C67.7548 17.365 68.9651 16.6702 69.8616 15.8185C70.8029 14.9668 71.296 13.8686 71.3408 12.5239C71.2063 11.0446 70.5788 9.8119 69.4581 8.82574C68.3375 7.83957 66.6341 7.14478 64.348 6.74135C63.7205 6.6517 62.8464 6.58446 61.7257 6.53963C60.6051 6.49481 59.35 6.47239 57.9604 6.47239C56.6156 6.42757 55.226 6.40516 53.7916 6.40516L53.3209 18.6425ZM87.8589 44.5966C87.052 44.5966 86.4245 44.4397 85.9762 44.1259C85.5279 43.7673 85.1693 43.3863 84.9004 42.9828C84.6314 42.5346 84.4521 42.1536 84.3625 41.8398C84.3177 41.526 84.2952 41.3691 84.2952 41.3691C84.1608 39.6658 84.0487 37.6486 83.959 35.3177C83.8694 32.9867 83.8022 30.4765 83.7573 27.787C83.7573 25.0526 83.7797 22.2958 83.8246 19.5166C83.8694 16.6926 83.959 13.9583 84.0935 11.3136C84.228 8.66885 84.3849 6.27068 84.5642 4.11905C84.5642 4.11905 84.5642 4.00698 84.5642 3.78286C84.609 3.5139 84.7211 3.22254 84.9004 2.90876C85.0797 2.55015 85.3711 2.23637 85.7745 1.96742C86.2227 1.65364 86.8279 1.45193 87.5899 1.36227C93.1483 0.914017 97.8102 0.936431 101.576 1.42951C105.341 1.87777 108.299 3.17771 110.451 5.32934C112.603 7.43614 113.992 9.74466 114.62 12.2549C115.247 14.7203 115.158 17.1409 114.351 19.5166C113.589 21.8476 112.132 23.9544 109.98 25.8371C109.084 26.6439 107.918 27.3835 106.484 28.0559C105.049 28.7283 103.458 29.2886 101.71 29.7369C99.9618 30.1851 98.1239 30.4989 96.1964 30.6782C94.3138 30.8127 92.4311 30.7455 90.5484 30.4765L90.8174 42.0415C90.8174 42.0415 90.795 42.176 90.7501 42.4449C90.7053 42.7139 90.5932 43.0277 90.4139 43.3863C90.2346 43.7001 89.9433 43.9914 89.5398 44.2604C89.1364 44.5293 88.5761 44.6414 87.8589 44.5966ZM107.829 42.1087C105.946 40.8985 103.974 39.733 101.912 38.6124C99.8497 37.4469 97.6757 36.259 95.3896 35.0487C93.1035 33.8384 90.6381 32.5609 87.9934 31.2161C87.9934 30.9472 88.1727 30.6782 88.5313 30.4093C88.8899 30.0955 89.3381 29.8265 89.876 29.6024C90.4588 29.3335 91.0191 29.0869 91.557 28.8628C92.1397 28.6387 92.6104 28.4818 92.969 28.3921C93.3724 28.2576 93.5741 28.1904 93.5741 28.1904C94.8741 28.7283 96.0844 29.2438 97.205 29.7369C98.3257 30.23 99.4239 30.7455 100.5 31.2834C101.576 31.7764 102.674 32.3368 103.794 32.9643C104.96 33.5471 106.17 34.2419 107.425 35.0487C108.725 35.8108 110.16 36.7073 111.729 37.7383C111.729 37.7383 111.796 37.8055 111.93 37.94C112.065 38.0744 112.199 38.2762 112.334 38.5451C112.513 38.8141 112.625 39.1278 112.67 39.4865C112.759 39.8002 112.759 40.1588 112.67 40.5623C112.625 40.9657 112.401 41.3915 111.997 41.8398C111.729 42.2432 111.347 42.4898 110.854 42.5794C110.406 42.6691 109.935 42.6915 109.442 42.6467C108.994 42.557 108.613 42.4449 108.299 42.3105C107.986 42.176 107.829 42.1087 107.829 42.1087ZM90.5484 24.0889C93.6862 24.313 96.3085 24.1785 98.4153 23.6854C100.567 23.1475 102.27 22.4079 103.525 21.4666C104.825 20.5252 105.767 19.4942 106.349 18.3736C106.977 17.253 107.358 16.1547 107.492 15.0789C107.492 13.1514 107.022 11.6049 106.08 10.4395C105.184 9.27399 103.951 8.37748 102.382 7.74992C100.858 7.12236 99.0877 6.71893 97.0705 6.53963C95.0982 6.36033 93.0811 6.3155 91.0191 6.40516C90.7501 9.31882 90.5708 12.2997 90.4812 15.3479C90.3915 18.396 90.4139 21.3097 90.5484 24.0889ZM123.645 45C122.928 45 122.345 44.8655 121.897 44.5966C121.448 44.2828 121.09 43.9466 120.821 43.588C120.597 43.1846 120.44 42.8484 120.35 42.5794C120.261 42.2656 120.216 42.1087 120.216 42.1087C120.036 40.1812 119.88 37.9848 119.745 35.5194C119.655 33.0092 119.588 30.3644 119.543 27.5853C119.543 24.8061 119.566 22.0269 119.611 19.2477C119.655 16.4237 119.745 13.7117 119.88 11.1118C120.014 8.46713 120.171 6.06896 120.35 3.91734C120.35 3.91734 120.373 3.80527 120.417 3.58114C120.462 3.31219 120.574 3.02082 120.754 2.70704C120.933 2.34844 121.224 2.05707 121.628 1.83294C122.076 1.56399 122.659 1.42951 123.376 1.42951C124.138 1.47434 124.743 1.63123 125.191 1.90018C125.64 2.12431 125.976 2.43809 126.2 2.84152C126.469 3.20012 126.648 3.55873 126.738 3.91734C126.828 4.27594 126.872 4.58972 126.872 4.85867C126.872 5.0828 126.872 5.19486 126.872 5.19486C126.693 7.03271 126.559 9.16193 126.469 11.5825C126.379 13.9583 126.312 16.4909 126.267 19.1805C126.267 21.87 126.267 24.6044 126.267 27.3835C126.312 30.1179 126.357 32.785 126.402 35.3849C126.491 37.94 126.603 40.2933 126.738 42.4449C126.738 42.4449 126.715 42.5794 126.671 42.8484C126.626 43.1173 126.514 43.4311 126.334 43.7897C126.155 44.1035 125.841 44.3949 125.393 44.6638C124.99 44.8879 124.407 45 123.645 45ZM147.903 44.731C145.662 44.8655 143.622 44.8207 141.785 44.5966C139.992 44.3276 138.467 43.9914 137.212 43.588C135.957 43.1846 134.994 42.826 134.321 42.5122C133.649 42.1536 133.313 41.9743 133.313 41.9743C133.313 41.9743 133.223 41.9294 133.044 41.8398C132.864 41.7053 132.64 41.526 132.371 41.3019C132.147 41.0778 131.923 40.8088 131.699 40.495C131.52 40.1812 131.407 39.8226 131.363 39.4192C131.363 39.0158 131.475 38.6124 131.699 38.2089C131.968 37.7158 132.282 37.3796 132.64 37.2003C132.999 36.9762 133.357 36.8642 133.716 36.8642C134.075 36.8193 134.366 36.8417 134.59 36.9314C134.859 36.9762 134.994 36.9986 134.994 36.9986C136.742 37.7158 138.557 38.2313 140.44 38.5451C142.323 38.8589 144.093 38.971 145.752 38.8813C147.41 38.7468 148.8 38.3658 149.92 37.7383C151.086 37.1107 151.803 36.1918 152.072 34.9815C152.296 33.8608 152.139 32.8747 151.601 32.023C151.108 31.1265 150.346 30.3196 149.315 29.6024C148.284 28.8852 147.096 28.2352 145.752 27.6525C144.452 27.0249 143.152 26.4422 141.852 25.9043C141 25.5457 140.081 25.0526 139.095 24.425C138.109 23.7975 137.168 23.0355 136.271 22.1389C135.419 21.2424 134.68 20.2563 134.052 19.1805C133.425 18.0598 133.021 16.8719 132.842 15.6168C132.663 14.3169 132.775 12.9497 133.178 11.5153C133.626 10.0809 134.5 8.60161 135.8 7.07754C137.1 5.50864 138.467 4.32076 139.902 3.5139C141.381 2.66222 142.86 2.05707 144.34 1.69846C145.819 1.33986 147.208 1.16056 148.508 1.16056C149.853 1.16056 151.041 1.25021 152.072 1.42951C153.148 1.60881 153.977 1.78812 154.56 1.96742C155.187 2.14672 155.501 2.23637 155.501 2.23637C155.501 2.23637 155.613 2.2812 155.837 2.37085C156.106 2.4605 156.42 2.61739 156.779 2.84152C157.137 3.06565 157.496 3.3346 157.855 3.64838C158.213 3.91733 158.482 4.27594 158.661 4.72419C158.841 5.12762 158.886 5.59829 158.796 6.1362C158.661 6.71894 158.392 7.16719 157.989 7.48097C157.63 7.74992 157.227 7.90681 156.779 7.95164C156.375 7.99646 156.017 8.01888 155.703 8.01888C155.389 7.97405 155.232 7.95164 155.232 7.95164C152.991 7.27925 150.884 7.12236 148.912 7.48097C146.94 7.79475 145.214 8.44472 143.735 9.43088C142.3 10.417 141.202 11.5601 140.44 12.86C139.723 14.1152 139.543 15.3254 139.902 16.4909C140.171 17.4771 140.798 18.3512 141.785 19.1132C142.816 19.8304 144.026 20.5252 145.415 21.1976C146.85 21.8252 148.329 22.4975 149.853 23.2148C151.377 23.8871 152.789 24.6716 154.089 25.5681C155.389 26.4198 156.42 27.4508 157.182 28.6611C158.213 30.3196 158.818 31.9109 158.998 33.435C159.177 34.9591 159.02 36.3935 158.527 37.7383C158.034 39.0382 157.272 40.1812 156.241 41.1674C155.21 42.1536 153.977 42.9604 152.543 43.588C151.108 44.2156 149.562 44.5966 147.903 44.731ZM182.028 45.4707C179.204 45.4707 176.626 44.9552 174.295 43.9242C171.964 42.8932 169.97 41.4588 168.311 39.6209C166.653 37.7383 165.398 35.5418 164.546 33.0316C163.739 30.4765 163.425 27.6749 163.605 24.6268C163.739 21.5786 164.344 18.6425 165.42 15.8185C166.541 12.9945 168.042 10.4619 169.925 8.22059C171.808 5.97931 173.982 4.2087 176.447 2.90876C178.957 1.56399 181.692 0.891606 184.65 0.891606C186.891 0.891606 189.178 1.13815 191.508 1.63123C193.839 2.12431 196.036 2.93117 198.098 4.05181C200.205 5.12762 202.065 6.58446 203.679 8.42231C205.292 10.2153 206.525 12.4118 207.377 15.0117C208.228 17.6116 208.565 20.6597 208.385 24.1561C208.251 27.0249 207.623 29.6024 206.503 31.8885C205.382 34.1298 203.903 36.1021 202.065 37.8055C200.272 39.5089 198.232 40.9433 195.946 42.1087C193.705 43.2294 191.374 44.0811 188.953 44.6638C186.578 45.2017 184.269 45.4707 182.028 45.4707ZM191.508 53.9427C190.791 54.122 190.164 54.122 189.626 53.9427C189.088 53.7634 188.617 53.5169 188.214 53.2031C187.81 52.9341 187.519 52.6652 187.34 52.3962C187.16 52.1721 187.071 52.06 187.071 52.06C186.085 49.4153 185.21 46.9499 184.448 44.6638C183.686 42.3329 183.036 40.0916 182.499 37.94C181.961 35.7883 181.49 33.6367 181.087 31.4851C181.087 31.4851 181.087 31.3506 181.087 31.0816C181.087 30.8127 181.131 30.4989 181.221 30.1403C181.311 29.7817 181.468 29.4455 181.692 29.1317C181.916 28.818 182.274 28.6387 182.767 28.5938C183.44 28.4594 184 28.549 184.448 28.8628C184.897 29.1766 185.233 29.5128 185.457 29.8714C185.726 30.1851 185.86 30.342 185.86 30.342C186.488 32.0006 187.205 33.9057 188.012 36.0573C188.864 38.1641 189.738 40.4278 190.634 42.8484C191.576 45.269 192.495 47.7792 193.391 50.3791C193.391 50.3791 193.414 50.5135 193.458 50.7825C193.548 51.0963 193.57 51.4549 193.526 51.8583C193.481 52.2617 193.301 52.6428 192.988 53.0014C192.719 53.4048 192.226 53.7186 191.508 53.9427ZM183.373 38.9485C184.942 38.9485 186.533 38.7468 188.147 38.3434C189.76 37.8951 191.284 37.2676 192.719 36.4607C194.198 35.609 195.543 34.5556 196.753 33.3005C197.963 32.0006 198.927 30.4989 199.644 28.7955C200.406 27.0922 200.832 25.1647 200.922 23.013C201.101 20.0994 200.765 17.634 199.913 15.6168C199.106 13.5997 197.941 12.0084 196.417 10.8429C194.938 9.6326 193.257 8.7585 191.374 8.22059C189.536 7.63786 187.631 7.34649 185.659 7.34649C183.731 7.34649 181.893 7.79475 180.145 8.69126C178.442 9.58777 176.918 10.8205 175.573 12.3894C174.228 13.9583 173.152 15.7737 172.346 17.8357C171.583 19.8528 171.135 22.0045 171.001 24.2906C170.866 27.3387 171.292 29.961 172.278 32.1575C173.264 34.3539 174.721 36.0349 176.649 37.2003C178.576 38.3658 180.818 38.9485 183.373 38.9485ZM232.452 45.2017C228.597 44.9328 225.347 43.8569 222.702 41.9743C220.058 40.0468 218.018 37.29 216.584 33.7039C215.149 30.1179 214.342 25.6802 214.163 20.3907V3.58114C214.163 3.58114 214.185 3.46908 214.23 3.24495C214.32 3.02082 214.432 2.77428 214.566 2.50533C214.746 2.19155 215.037 1.92259 215.441 1.69846C215.844 1.47434 216.382 1.36227 217.054 1.36227C217.951 1.36227 218.646 1.51916 219.139 1.83294C219.677 2.1019 220.08 2.43809 220.349 2.84152C220.618 3.24495 220.797 3.60355 220.887 3.91734C220.977 4.18629 221.021 4.32076 221.021 4.32076L221.29 20.0546C221.246 23.8647 221.604 27.1594 222.366 29.9386C223.128 32.673 224.316 34.8022 225.93 36.3262C227.588 37.8503 229.673 38.7692 232.183 39.083C234.29 38.7692 236.083 37.94 237.562 36.5952C239.086 35.2056 240.229 33.0764 240.991 30.2076C241.798 27.3387 242.179 23.5509 242.134 18.8443L241.933 4.52248C241.933 4.52248 241.933 4.388 241.933 4.11905C241.933 3.8501 242 3.55873 242.134 3.24495C242.314 2.93117 242.605 2.6398 243.008 2.37085C243.412 2.1019 243.994 1.96742 244.757 1.96742C245.519 1.96742 246.146 2.1019 246.639 2.37085C247.177 2.59498 247.581 2.90876 247.849 3.31219C248.163 3.67079 248.387 4.05181 248.522 4.45524C248.701 4.81385 248.813 5.12762 248.858 5.39658C248.903 5.66553 248.925 5.80001 248.925 5.80001L249.262 19.5839C249.351 23.0355 249.149 26.2853 248.656 29.3335C248.163 32.3368 247.289 35.0263 246.034 37.4021C244.824 39.733 243.098 41.5933 240.857 42.9828C238.66 44.3276 235.859 45.0672 232.452 45.2017ZM258.516 45C257.799 45 257.216 44.8655 256.768 44.5966C256.319 44.2828 255.961 43.9466 255.692 43.588C255.468 43.1846 255.311 42.8484 255.221 42.5794C255.131 42.2656 255.087 42.1087 255.087 42.1087C254.907 40.1812 254.75 37.9848 254.616 35.5194C254.526 33.0092 254.459 30.3644 254.414 27.5853C254.414 24.8061 254.437 22.0269 254.481 19.2477C254.526 16.4237 254.616 13.7117 254.75 11.1118C254.885 8.46713 255.042 6.06896 255.221 3.91734C255.221 3.91734 255.243 3.80527 255.288 3.58114C255.333 3.31219 255.445 3.02082 255.624 2.70704C255.804 2.34844 256.095 2.05707 256.499 1.83294C256.947 1.56399 257.53 1.42951 258.247 1.42951C259.009 1.47434 259.614 1.63123 260.062 1.90018C260.51 2.12431 260.847 2.43809 261.071 2.84152C261.34 3.20012 261.519 3.55873 261.609 3.91734C261.698 4.27594 261.743 4.58972 261.743 4.85867C261.743 5.0828 261.743 5.19486 261.743 5.19486C261.564 7.03271 261.429 9.16193 261.34 11.5825C261.25 13.9583 261.183 16.4909 261.138 19.1805C261.138 21.87 261.138 24.6044 261.138 27.3835C261.183 30.1179 261.228 32.785 261.272 35.3849C261.362 37.94 261.474 40.2933 261.609 42.4449C261.609 42.4449 261.586 42.5794 261.541 42.8484C261.497 43.1173 261.385 43.4311 261.205 43.7897C261.026 44.1035 260.712 44.3949 260.264 44.6638C259.86 44.8879 259.278 45 258.516 45ZM272.336 45C271.888 45.0448 271.395 45.0224 270.857 44.9328C270.364 44.7983 269.916 44.5966 269.512 44.3276C269.109 44.0138 268.773 43.6552 268.504 43.2518C268.235 42.8484 268.1 42.3777 268.1 41.8398C268.145 41.3019 268.347 40.7416 268.705 40.1588C270.274 37.9176 271.821 35.6539 273.345 33.3678C274.869 31.0368 276.438 28.6162 278.052 26.106C279.71 23.5509 281.414 20.839 283.162 17.9702C284.955 15.1013 286.882 12.0084 288.944 8.69126C286.569 7.57062 283.857 7.07754 280.808 7.21201C277.805 7.30167 274.622 7.74992 271.261 8.55678C271.261 8.55678 271.104 8.5792 270.79 8.62402C270.521 8.62402 270.162 8.62402 269.714 8.62402C269.311 8.5792 268.885 8.46713 268.437 8.28783C268.033 8.0637 267.719 7.72751 267.495 7.27925C267.181 6.74135 267.002 6.27068 266.957 5.86725C266.912 5.46382 266.957 5.12763 267.092 4.85867C267.271 4.58972 267.473 4.36559 267.697 4.18629C267.921 4.00699 268.1 3.89492 268.235 3.85009C268.414 3.76044 268.504 3.71562 268.504 3.71562C272.314 2.37085 276.236 1.63123 280.271 1.49675C284.305 1.36227 288.317 1.81053 292.306 2.84152C293.113 3.20012 293.83 3.64838 294.458 4.18629C295.085 4.72419 295.578 5.37417 295.937 6.1362C296.34 6.85341 296.542 7.66027 296.542 8.55678C296.587 9.4533 296.385 10.417 295.937 11.448C294.861 13.3307 293.785 15.1461 292.71 16.8943C291.634 18.6425 290.536 20.3907 289.415 22.1389C288.339 23.8423 287.196 25.5905 285.986 27.3835C284.82 29.1317 283.565 30.9696 282.22 32.8971C280.92 34.7798 279.486 36.7969 277.917 38.9485L293.92 38.1417C293.92 38.1417 294.077 38.1641 294.391 38.2089C294.749 38.2537 295.153 38.3658 295.601 38.5451C296.094 38.6796 296.52 38.9261 296.878 39.2847C297.282 39.5985 297.506 40.0692 297.551 40.6967C297.64 41.3691 297.573 41.907 297.349 42.3105C297.17 42.7139 296.923 43.0277 296.609 43.2518C296.296 43.4311 296.004 43.5432 295.735 43.588C295.511 43.6328 295.399 43.6552 295.399 43.6552L272.336 45ZM307.231 45.1345C306.514 45.1345 305.864 45 305.281 44.731C304.698 44.4173 304.228 44.0138 303.869 43.5208C303.555 42.9828 303.398 42.4001 303.398 41.7726C303.398 41.145 303.555 40.5847 303.869 40.0916C304.228 39.5537 304.698 39.1278 305.281 38.8141C305.864 38.5003 306.514 38.3434 307.231 38.3434C307.993 38.3434 308.665 38.5003 309.248 38.8141C309.876 39.1278 310.346 39.5537 310.66 40.0916C311.019 40.5847 311.198 41.145 311.198 41.7726C311.198 42.938 310.817 43.7897 310.055 44.3276C309.293 44.8655 308.352 45.1345 307.231 45.1345ZM332.859 45.6051C329.183 45.381 326.225 44.5966 323.983 43.2518C321.742 41.8622 320.084 40.0244 319.008 37.7383C317.932 35.4073 317.282 32.785 317.058 29.8714C316.878 27.5404 317.125 25.2991 317.797 23.1475C318.515 20.9511 319.59 19.0011 321.025 17.2978C322.504 15.5496 324.297 14.1824 326.404 13.1962C328.511 12.1652 330.909 11.6722 333.598 11.717C335.84 11.717 337.722 12.0084 339.246 12.5911C340.815 13.129 342.115 13.8238 343.146 14.6755C344.177 15.4823 344.962 16.2892 345.5 17.0961C346.082 17.9029 346.486 18.5977 346.71 19.1805C346.934 19.7184 347.046 19.9873 347.046 19.9873C347.046 19.9873 347.046 20.1218 347.046 20.3907C347.046 20.6597 346.956 20.9959 346.777 21.3993C346.643 21.7579 346.307 22.0941 345.769 22.4079C345.276 22.7217 344.738 22.901 344.155 22.9458C343.572 22.9906 343.034 22.9458 342.541 22.8113C342.048 22.6768 341.689 22.4975 341.465 22.2734C341.465 22.2734 341.331 22.0717 341.062 21.6683C340.838 21.2648 340.457 20.8166 339.919 20.3235C339.426 19.8304 338.731 19.3822 337.834 18.9787C336.983 18.5753 335.929 18.3736 334.674 18.3736C333.24 18.4184 331.873 18.6425 330.573 19.046C329.273 19.4494 328.13 20.0994 327.144 20.9959C326.157 21.8476 325.395 22.9458 324.857 24.2906C324.32 25.6353 324.118 27.2491 324.252 29.1317C324.297 31.4178 324.701 33.2557 325.463 34.6453C326.225 35.9901 327.256 36.9986 328.556 37.671C329.9 38.2986 331.447 38.702 333.195 38.8813C334.54 38.971 335.795 38.8813 336.96 38.6124C338.126 38.3434 339.157 37.9848 340.053 37.5365C340.95 37.0883 341.645 36.7073 342.138 36.3935C342.676 36.0349 342.989 35.8332 343.079 35.7883C343.662 35.609 344.222 35.5418 344.76 35.5866C345.298 35.6314 345.791 35.7883 346.239 36.0573C346.732 36.2814 347.158 36.6176 347.517 37.0659C347.92 37.5589 348.122 38.0296 348.122 38.4779C348.167 38.9261 348.144 39.3071 348.055 39.6209C347.965 39.8899 347.92 40.0244 347.92 40.0244C347.92 40.0244 347.651 40.3381 347.113 40.9657C346.575 41.5484 345.701 42.2432 344.491 43.0501C343.326 43.8121 341.779 44.4621 339.852 45C337.969 45.5379 335.638 45.7396 332.859 45.6051ZM366.739 44.8655C364.408 44.8655 362.257 44.4397 360.284 43.588C358.357 42.7363 356.698 41.5933 355.309 40.1588C353.919 38.6796 352.843 36.9538 352.081 34.9815C351.319 33.0092 350.938 30.9023 350.938 28.6611C350.938 26.4198 351.341 24.2682 352.148 22.2062C353 20.0994 354.188 18.2391 355.712 16.6254C357.236 15.0117 359.007 13.7341 361.024 12.7928C363.041 11.8515 365.215 11.3808 367.546 11.3808C369.877 11.3808 372.051 11.717 374.068 12.3894C376.085 13.0618 377.833 14.0927 379.313 15.4823C380.837 16.8271 382.002 18.5753 382.809 20.7269C383.661 22.8337 384.087 25.3216 384.087 28.1904C384.087 30.4317 383.638 32.5609 382.742 34.578C381.845 36.5952 380.568 38.3658 378.909 39.8899C377.296 41.414 375.435 42.6242 373.328 43.5208C371.266 44.4173 369.07 44.8655 366.739 44.8655ZM366.672 38.8813C368.106 38.8813 369.451 38.5899 370.706 38.0072C372.006 37.3796 373.149 36.5504 374.135 35.5194C375.121 34.4884 375.906 33.3229 376.489 32.023C377.071 30.6782 377.363 29.2662 377.363 27.787C377.363 25.2767 376.937 23.2148 376.085 21.601C375.278 19.9873 374.158 18.7994 372.723 18.0374C371.289 17.2305 369.63 16.8271 367.748 16.8271C366.358 16.8271 365.058 17.1857 363.848 17.9029C362.638 18.5753 361.562 19.4942 360.62 20.6597C359.724 21.7803 359.007 23.0579 358.469 24.4923C357.931 25.9267 357.662 27.3835 357.662 28.8628C357.662 30.7903 358.021 32.5161 358.738 34.0401C359.5 35.5642 360.553 36.7521 361.898 37.6038C363.288 38.4555 364.879 38.8813 366.672 38.8813ZM415.458 43.7225C414.696 43.4983 414.113 43.1846 413.71 42.7811C413.306 42.3777 413.037 41.9743 412.903 41.5708C412.768 41.1226 412.679 40.7416 412.634 40.4278C412.634 40.0692 412.634 39.8899 412.634 39.8899C413.127 36.1245 413.306 32.6954 413.172 29.6024C413.082 26.4646 412.544 24.0216 411.558 22.2734C410.662 20.6149 409.608 19.427 408.398 18.7098C407.188 17.9477 405.933 17.6116 404.633 17.7012C403.333 17.746 402.033 18.1719 400.733 18.9787C399.209 19.9649 398.021 21.1752 397.169 22.6096C396.317 24.044 395.712 25.5681 395.354 27.1818C395.04 28.7955 394.861 30.3644 394.816 31.8885C394.861 33.3229 394.883 34.6229 394.883 35.7883C394.883 36.9538 394.905 37.9848 394.95 38.8813C394.995 39.7778 395.04 40.5174 395.085 41.1002C395.085 41.1002 395.062 41.1898 395.018 41.3691C395.018 41.5484 394.973 41.7726 394.883 42.0415C394.793 42.3105 394.592 42.557 394.278 42.7811C394.009 43.0053 393.561 43.1397 392.933 43.1846C392.395 43.2294 391.925 43.1173 391.521 42.8484C391.118 42.5794 390.782 42.3105 390.513 42.0415C390.288 41.7726 390.176 41.6381 390.176 41.6381C389.683 40.8312 389.414 40.0468 389.37 39.2847C389.37 38.5227 389.392 37.671 389.437 36.7297C389.526 35.7883 389.459 34.6453 389.235 33.3005C389.145 31.642 389.101 30.1403 389.101 28.7955C389.145 27.406 389.257 26.106 389.437 24.8957C389.616 23.6406 389.907 22.4751 390.311 21.3993C390.714 20.3235 391.275 19.2701 391.992 18.2391C392.888 17.0736 393.987 16.0202 395.287 15.0789C396.586 14.1376 397.998 13.3755 399.523 12.7928C401.091 12.2101 402.705 11.8739 404.364 11.7842C406.022 11.6946 407.681 11.9187 409.339 12.4566C410.46 12.9497 411.536 13.5997 412.567 14.4065C413.643 15.1686 414.629 16.0875 415.525 17.1633C416.422 18.2391 417.206 19.5166 417.879 20.9959C418.551 22.4303 419.111 24.1113 419.56 26.0388C420.008 28.4145 420.21 30.8351 420.165 33.3005C420.12 35.7659 419.873 38.4555 419.425 41.3691C419.425 41.3691 419.38 41.526 419.291 41.8398C419.201 42.1536 419.022 42.4898 418.753 42.8484C418.529 43.207 418.148 43.4983 417.61 43.7225C417.072 43.9018 416.355 43.9018 415.458 43.7225ZM392.664 44.9328C392.037 44.8879 391.499 44.7535 391.05 44.5293C390.647 44.2604 390.311 43.969 390.042 43.6552C389.773 43.2966 389.571 43.0053 389.437 42.7811C389.347 42.557 389.302 42.4449 389.302 42.4449C389.033 40.0244 388.832 37.671 388.697 35.3849C388.607 33.0988 388.563 30.8351 388.563 28.5938C388.563 26.3077 388.63 23.9544 388.764 21.5338C388.899 19.1132 389.078 16.5582 389.302 13.8686C389.302 13.8686 389.325 13.7566 389.37 13.5324C389.414 13.2635 389.526 12.9721 389.706 12.6583C389.93 12.3445 390.244 12.0756 390.647 11.8515C391.095 11.5825 391.7 11.4704 392.462 11.5153C393.225 11.5153 393.83 11.6722 394.278 11.9859C394.726 12.2997 395.04 12.6807 395.219 13.129C395.443 13.5324 395.578 13.891 395.623 14.2048C395.712 14.5186 395.757 14.6755 395.757 14.6755C395.623 16.9168 395.511 19.1132 395.421 21.2648C395.331 23.4165 395.287 25.6129 395.287 27.8542C395.287 30.0955 395.309 32.4264 395.354 34.847C395.443 37.2228 395.578 39.733 395.757 42.3777C395.757 42.3777 395.735 42.5122 395.69 42.7811C395.645 43.0501 395.511 43.3639 395.287 43.7225C395.107 44.0362 394.816 44.3276 394.412 44.5966C394.009 44.8655 393.426 44.9776 392.664 44.9328ZM439.933 43.7225C439.171 43.4983 438.588 43.1846 438.185 42.7811C437.781 42.3777 437.512 41.9743 437.378 41.5708C437.243 41.1226 437.154 40.7416 437.109 40.4278C437.109 40.0692 437.109 39.8899 437.109 39.8899C437.602 36.1245 437.781 32.6954 437.647 29.6024C437.557 26.4646 436.997 24.0216 435.966 22.2734C435.069 20.6149 434.016 19.427 432.806 18.7098C431.64 17.9477 430.407 17.6116 429.107 17.7012C427.807 17.746 426.508 18.1719 425.208 18.9787C423.684 19.9649 422.496 21.1752 421.644 22.6096C420.792 24.044 420.187 25.5681 419.829 27.1818C419.47 28.7955 419.291 30.3644 419.291 31.8885C419.335 33.3229 419.335 34.5332 419.291 35.5194C419.246 36.4607 419.201 37.2676 419.156 37.94C419.111 38.6124 419.044 39.3071 418.954 40.0244C418.954 40.0244 418.954 40.1588 418.954 40.4278C418.954 40.6519 418.91 40.9209 418.82 41.2346C418.73 41.5484 418.551 41.8398 418.282 42.1087C418.013 42.3777 417.61 42.5346 417.072 42.5794C416.489 42.6242 415.996 42.5346 415.593 42.3105C415.234 42.0415 414.965 41.7726 414.786 41.5036C414.606 41.2346 414.517 41.1002 414.517 41.1002C414.293 40.5174 414.158 39.8451 414.113 39.083C414.068 38.321 414.046 37.4469 414.046 36.4607C414.046 35.4746 414.046 34.3987 414.046 33.2333C413.956 31.6196 413.889 30.1179 413.844 28.7283C413.844 27.3387 413.912 26.0388 414.046 24.8285C414.181 23.6182 414.427 22.4751 414.786 21.3993C415.189 20.3235 415.749 19.2701 416.467 18.2391C417.363 17.0736 418.461 16.0202 419.761 15.0789C421.061 14.1376 422.473 13.3755 423.997 12.7928C425.521 12.2101 427.113 11.8739 428.771 11.7842C430.475 11.6946 432.156 11.9187 433.814 12.4566C434.935 12.9497 436.011 13.5997 437.042 14.4065C438.073 15.1686 439.036 16.0875 439.933 17.1633C440.874 18.2391 441.681 19.5166 442.353 20.9959C443.026 22.4303 443.564 24.1113 443.967 26.0388C444.46 28.4145 444.662 30.8351 444.572 33.3005C444.527 35.7659 444.281 38.4555 443.833 41.3691C443.833 41.3691 443.788 41.526 443.698 41.8398C443.653 42.1536 443.496 42.4898 443.227 42.8484C442.959 43.207 442.555 43.4983 442.017 43.7225C441.524 43.9018 440.829 43.9018 439.933 43.7225Z" fill="#252525"/>
</svg>
