<svg width="26" height="26" viewBox="0 0 26 26" fill="none" xmlns="http://www.w3.org/2000/svg">
<path fill-rule="evenodd" clip-rule="evenodd" d="M0.818359 4.07143C0.818359 2.09898 2.41734 0.5 4.38979 0.5H6.02268C7.04693 0.5 7.93975 1.19709 8.18817 2.19077L9.5046 7.45646C9.72241 8.32774 9.39686 9.2447 8.67839 9.78355L7.13836 10.9386C6.97844 11.0585 6.94368 11.2341 6.9886 11.3568C8.34039 15.047 11.2714 17.978 14.9616 19.3298C15.0842 19.3747 15.2599 19.3399 15.3798 19.18L16.5348 17.64C17.0737 16.9215 17.9906 16.5959 18.8619 16.8138L24.1276 18.1302C25.1213 18.3786 25.8184 19.2714 25.8184 20.2957V21.9286C25.8184 23.901 24.2194 25.5 22.2469 25.5H19.5684C9.21302 25.5 0.818359 17.1053 0.818359 6.75V4.07143Z" fill="#757575"/>
</svg>
