<svg width="22" height="26" viewBox="0 0 22 26" fill="none" xmlns="http://www.w3.org/2000/svg">
<path fill-rule="evenodd" clip-rule="evenodd" d="M10.436 25.3179C10.4733 25.3395 10.5026 25.3562 10.5234 25.3678L10.5579 25.3871C10.833 25.5381 11.1744 25.537 11.4498 25.3876L11.4852 25.3678C11.5059 25.3562 11.5352 25.3395 11.5725 25.3179C11.6471 25.2747 11.7537 25.2117 11.8877 25.1291C12.1555 24.9642 12.5337 24.721 12.9854 24.4019C13.8873 23.7647 15.0907 22.8194 16.2967 21.5846C18.697 19.127 21.1902 15.4346 21.1902 10.6859C21.1902 5.06039 16.6298 0.5 11.0043 0.5C5.37875 0.5 0.818359 5.06039 0.818359 10.6859C0.818359 15.4346 3.31153 19.127 5.71186 21.5846C6.91787 22.8194 8.12124 23.7647 9.02313 24.4019C9.47484 24.721 9.853 24.9642 10.1209 25.1291C10.2549 25.2117 10.3614 25.2747 10.436 25.3179ZM11.0043 14.3899C13.0499 14.3899 14.7082 12.7316 14.7082 10.6859C14.7082 8.64027 13.0499 6.98194 11.0043 6.98194C8.95863 6.98194 7.3003 8.64027 7.3003 10.6859C7.3003 12.7316 8.95863 14.3899 11.0043 14.3899Z" fill="#757575"/>
</svg>
