<svg width="110" height="116" viewBox="0 0 110 116" fill="none" xmlns="http://www.w3.org/2000/svg">
<path d="M110 28.9278V26.5054L54.9759 0L0 26.4819V28.9508L54.9759 55.4334L110 28.9278Z" fill="#F7F7F7"/>
<path d="M19.0471 42.9563V58.797L52.1913 74.7627H57.7608L90.8138 58.8409C90.8456 58.7711 90.8754 58.7015 90.9051 58.6313V42.9561L54.976 60.2631L19.0471 42.9563Z" fill="#F7F7F7"/>
<path d="M104.205 67.189V36.3721L99.8532 38.5666V67.189L97.0178 75.827L101.304 81.5638H102.754L107.04 75.827L104.205 67.189Z" fill="#F7F7F7"/>
<path d="M9.58049 108.587C9.34217 108.635 9.12768 108.627 8.93703 108.563C8.74637 108.516 8.58749 108.444 8.46039 108.349C8.33328 108.238 8.23795 108.142 8.1744 108.063C8.11085 107.984 8.07907 107.944 8.07907 107.944C7.61832 107.054 7.16551 106.315 6.72064 105.727C6.27578 105.124 5.83091 104.615 5.38605 104.202C4.94118 103.789 4.48043 103.448 4.00379 103.177C3.54303 102.907 3.05051 102.669 2.5262 102.462L2.57386 100.055C3.67014 99.7536 4.59959 99.3484 5.36222 98.84C6.12484 98.3157 6.75242 97.7596 7.24495 97.1717C7.73748 96.568 8.11879 95.9801 8.38889 95.4082C8.67487 94.8362 8.86553 94.3357 8.96086 93.9068C8.96086 93.9068 8.97675 93.867 9.00852 93.7876C9.05619 93.7082 9.12768 93.6287 9.22301 93.5493C9.31834 93.4539 9.44544 93.3824 9.60432 93.3348C9.7632 93.2712 9.96975 93.2633 10.224 93.311C10.4941 93.3586 10.6927 93.4539 10.8198 93.5969C10.9628 93.724 11.0501 93.8591 11.0819 94.0021C11.1137 94.1451 11.1296 94.2722 11.1296 94.3834C11.1296 94.4787 11.1296 94.5264 11.1296 94.5264C11.0819 95.146 10.931 95.7577 10.6768 96.3615C10.4384 96.9652 10.1286 97.5451 9.74732 98.1012C9.366 98.6414 8.92908 99.1419 8.43655 99.6026C7.94402 100.047 7.41972 100.445 6.86364 100.794C6.32344 101.128 5.77531 101.382 5.21922 101.557C5.96596 101.938 6.66504 102.447 7.31645 103.082C7.98374 103.718 8.57955 104.417 9.10385 105.179C9.62816 105.942 10.0571 106.713 10.3908 107.491C10.3908 107.491 10.3987 107.539 10.4146 107.634C10.4305 107.713 10.4226 107.825 10.3908 107.968C10.359 108.095 10.2796 108.222 10.1525 108.349C10.0412 108.46 9.85059 108.54 9.58049 108.587ZM2.50237 108.563C2.23227 108.563 2.01778 108.516 1.8589 108.42C1.70002 108.309 1.57292 108.19 1.47759 108.063C1.39815 107.92 1.34254 107.801 1.31076 107.706C1.27899 107.594 1.2631 107.539 1.2631 107.539C1.19955 106.856 1.14394 106.077 1.09628 105.203C1.0645 104.313 1.04067 103.376 1.02478 102.391C1.02478 101.406 1.03272 100.421 1.04861 99.4358C1.0645 98.4348 1.09628 97.4736 1.14394 96.5521C1.1916 95.6147 1.24721 94.7647 1.31076 94.0021C1.31076 94.0021 1.31871 93.9544 1.3346 93.8591C1.35048 93.7638 1.3902 93.6605 1.45376 93.5493C1.51731 93.4381 1.62058 93.3427 1.76357 93.2633C1.92245 93.168 2.129 93.1203 2.38321 93.1203C2.6533 93.1203 2.86779 93.168 3.02667 93.2633C3.18555 93.3586 3.30471 93.4778 3.38415 93.6208C3.47948 93.7479 3.54303 93.875 3.57481 94.0021C3.60659 94.1292 3.62247 94.2404 3.62247 94.3357C3.62247 94.4152 3.62247 94.4549 3.62247 94.4549C3.55892 95.1063 3.51126 95.861 3.47948 96.7189C3.44771 97.561 3.42387 98.4587 3.40799 99.412C3.40799 100.365 3.40799 101.334 3.40799 102.319C3.42387 103.289 3.43976 104.234 3.45565 105.155C3.48743 106.061 3.52715 106.895 3.57481 107.658C3.57481 107.658 3.56687 107.706 3.55098 107.801C3.53509 107.896 3.49537 108.007 3.43182 108.134C3.36827 108.246 3.25705 108.349 3.09817 108.444C2.95518 108.524 2.75658 108.563 2.50237 108.563ZM14.1851 108.563C13.9309 108.563 13.7244 108.516 13.5655 108.42C13.4066 108.309 13.2795 108.19 13.1842 108.063C13.1047 107.92 13.0491 107.801 13.0173 107.706C12.9856 107.594 12.9697 107.539 12.9697 107.539C12.9061 106.856 12.8505 106.077 12.8028 105.203C12.7711 104.313 12.7472 103.376 12.7314 102.391C12.7314 101.406 12.7393 100.421 12.7552 99.4358C12.7711 98.4348 12.8028 97.4736 12.8505 96.5521C12.8982 95.6147 12.9538 94.7647 13.0173 94.0021C13.0173 94.0021 13.0253 93.9624 13.0412 93.8829C13.0571 93.7876 13.0968 93.6843 13.1603 93.5731C13.2239 93.446 13.3272 93.3427 13.4701 93.2633C13.629 93.168 13.8356 93.1203 14.0898 93.1203C14.3599 93.1362 14.5744 93.1918 14.7332 93.2871C14.8921 93.3666 15.0113 93.4778 15.0907 93.6208C15.1861 93.7479 15.2496 93.875 15.2814 94.0021C15.3132 94.1292 15.329 94.2404 15.329 94.3357C15.329 94.4152 15.329 94.4549 15.329 94.4549C15.2655 95.1063 15.2178 95.861 15.1861 96.7189C15.1543 97.561 15.1304 98.4587 15.1146 99.412C15.1146 100.365 15.1146 101.334 15.1146 102.319C15.1304 103.289 15.1463 104.234 15.1622 105.155C15.194 106.061 15.2337 106.895 15.2814 107.658C15.2814 107.658 15.2734 107.706 15.2576 107.801C15.2417 107.896 15.2019 108.007 15.1384 108.134C15.0748 108.246 14.9636 108.349 14.8047 108.444C14.6618 108.524 14.4552 108.563 14.1851 108.563ZM24.6366 108.277C23.7786 108.389 22.9366 108.476 22.1104 108.54C21.3001 108.603 20.5534 108.611 19.8702 108.563C19.2029 108.532 18.6468 108.436 18.2019 108.277C17.7571 108.103 17.487 107.841 17.3916 107.491C17.3281 106.808 17.2725 106.029 17.2248 105.155C17.193 104.266 17.1692 103.336 17.1533 102.367C17.1533 101.398 17.1613 100.421 17.1772 99.4358C17.193 98.4348 17.2248 97.4736 17.2725 96.5521C17.3201 95.6306 17.3758 94.7885 17.4393 94.0259C17.4552 93.8829 17.5029 93.7399 17.5823 93.5969C17.6617 93.4539 17.7888 93.3348 17.9636 93.2395C18.1384 93.1441 18.3767 93.0965 18.6786 93.0965L23.8978 93.1203C24.5969 93.2156 25.2403 93.4063 25.8282 93.6923C26.4161 93.9624 26.9245 94.3119 27.3534 94.7409C27.7824 95.1699 28.1002 95.6544 28.3067 96.1946C28.4656 96.6554 28.5292 97.1082 28.4974 97.5531C28.4656 97.982 28.3464 98.3872 28.1399 98.7685C27.9334 99.1339 27.6474 99.4676 27.2819 99.7694C26.9324 100.071 26.5193 100.326 26.0427 100.532C26.5352 100.755 26.9642 101.064 27.3296 101.462C27.695 101.843 27.989 102.272 28.2114 102.748C28.4338 103.209 28.5609 103.694 28.5927 104.202C28.5768 104.854 28.4259 105.449 28.1399 105.99C27.8539 106.514 27.4249 106.967 26.853 107.348C26.281 107.729 25.5422 108.039 24.6366 108.277ZM19.6795 106.49C20.4421 106.49 21.1651 106.482 21.8482 106.466C22.5473 106.434 23.1749 106.363 23.731 106.252C24.2871 106.125 24.7478 105.942 25.1132 105.704C26.003 105.036 26.3048 104.282 26.0188 103.44C25.8759 102.995 25.6455 102.645 25.3277 102.391C25.01 102.137 24.6445 101.946 24.2314 101.819C23.8342 101.692 23.4132 101.612 22.9683 101.581L19.5604 101.628C19.5445 102.439 19.5445 103.249 19.5604 104.059C19.5921 104.87 19.6319 105.68 19.6795 106.49ZM19.608 99.2213C20.3865 99.269 21.1492 99.2769 21.8959 99.2451C22.6585 99.1975 23.4212 99.1021 24.1838 98.9592C24.724 98.7685 25.153 98.5222 25.4707 98.2204C25.8044 97.9185 25.9791 97.5292 25.995 97.0526C25.9474 96.5283 25.7249 96.0914 25.3277 95.7418C24.9305 95.3923 24.3268 95.146 23.5165 95.003C23.294 94.9713 22.9842 94.9474 22.587 94.9315C22.1898 94.9156 21.745 94.9077 21.2524 94.9077C20.7758 94.8918 20.2833 94.8839 19.7748 94.8839L19.608 99.2213ZM31.8497 108.42C31.5637 108.42 31.3413 108.365 31.1824 108.254C31.0235 108.127 30.8964 107.992 30.8011 107.849C30.7058 107.69 30.6422 107.555 30.6104 107.443C30.5945 107.332 30.5866 107.277 30.5866 107.277C30.5389 106.673 30.4992 105.958 30.4674 105.132C30.4357 104.305 30.4118 103.416 30.3959 102.462C30.3959 101.493 30.4039 100.516 30.4198 99.5311C30.4357 98.5302 30.4674 97.561 30.5151 96.6236C30.5628 95.6862 30.6184 94.8362 30.6819 94.0736C30.6819 94.0736 30.6819 94.0339 30.6819 93.9544C30.6978 93.8591 30.7375 93.7558 30.8011 93.6446C30.8646 93.5175 30.9679 93.4063 31.1109 93.311C31.2698 93.1997 31.4843 93.1282 31.7544 93.0965C33.7245 92.9376 35.3768 92.9455 36.7114 93.1203C38.046 93.2792 39.0946 93.7399 39.8573 94.5026C40.6199 95.2493 41.1124 96.0675 41.3349 96.9573C41.5573 97.8311 41.5255 98.6891 41.2395 99.5311C40.9694 100.357 40.4531 101.104 39.6905 101.771C39.3727 102.057 38.9596 102.319 38.4512 102.558C37.9428 102.796 37.3787 102.995 36.7591 103.154C36.1395 103.312 35.4881 103.424 34.8049 103.487C34.1376 103.535 33.4703 103.511 32.803 103.416L32.8983 107.515C32.8983 107.515 32.8904 107.563 32.8745 107.658C32.8586 107.753 32.8189 107.864 32.7553 107.992C32.6918 108.103 32.5885 108.206 32.4455 108.301C32.3025 108.397 32.1039 108.436 31.8497 108.42ZM38.9278 107.539C38.2605 107.11 37.5615 106.697 36.8306 106.299C36.0998 105.886 35.3292 105.465 34.5189 105.036C33.7086 104.607 32.8348 104.155 31.8974 103.678C31.8974 103.583 31.9609 103.487 32.088 103.392C32.2151 103.281 32.374 103.185 32.5647 103.106C32.7712 103.011 32.9698 102.923 33.1605 102.844C33.367 102.764 33.5338 102.709 33.6609 102.677C33.8039 102.629 33.8754 102.605 33.8754 102.605C34.3362 102.796 34.7652 102.979 35.1624 103.154C35.5596 103.328 35.9488 103.511 36.3301 103.702C36.7114 103.877 37.1007 104.075 37.4979 104.298C37.911 104.504 38.34 104.75 38.7848 105.036C39.2456 105.306 39.754 105.624 40.3101 105.99C40.3101 105.99 40.3339 106.013 40.3816 106.061C40.4292 106.109 40.4769 106.18 40.5246 106.276C40.5881 106.371 40.6278 106.482 40.6437 106.609C40.6755 106.72 40.6755 106.848 40.6437 106.991C40.6278 107.134 40.5484 107.284 40.4054 107.443C40.3101 107.586 40.175 107.674 40.0003 107.706C39.8414 107.737 39.6746 107.745 39.4998 107.729C39.3409 107.698 39.2059 107.658 39.0946 107.61C38.9834 107.563 38.9278 107.539 38.9278 107.539ZM32.803 101.152C33.9151 101.231 34.8446 101.183 35.5913 101.009C36.354 100.818 36.9577 100.556 37.4026 100.222C37.8633 99.8886 38.197 99.5232 38.4035 99.126C38.626 98.7288 38.761 98.3395 38.8087 97.9582C38.8087 97.275 38.6418 96.7269 38.3082 96.3138C37.9904 95.9007 37.5535 95.5829 36.9974 95.3605C36.4572 95.1381 35.8297 94.9951 35.1147 94.9315C34.4156 94.868 33.7007 94.8521 32.9698 94.8839C32.8745 95.9166 32.8109 96.9731 32.7792 98.0535C32.7474 99.1339 32.7553 100.167 32.803 101.152ZM44.5338 108.563C44.2796 108.563 44.073 108.516 43.9141 108.42C43.7552 108.309 43.6281 108.19 43.5328 108.063C43.4534 107.92 43.3978 107.801 43.366 107.706C43.3342 107.594 43.3183 107.539 43.3183 107.539C43.2548 106.856 43.1992 106.077 43.1515 105.203C43.1197 104.313 43.0959 103.376 43.08 102.391C43.08 101.406 43.0879 100.421 43.1038 99.4358C43.1197 98.4348 43.1515 97.4736 43.1992 96.5521C43.2468 95.6147 43.3024 94.7647 43.366 94.0021C43.366 94.0021 43.3739 93.9624 43.3898 93.8829C43.4057 93.7876 43.4454 93.6843 43.509 93.5731C43.5725 93.446 43.6758 93.3427 43.8188 93.2633C43.9777 93.168 44.1842 93.1203 44.4384 93.1203C44.7085 93.1362 44.923 93.1918 45.0819 93.2871C45.2408 93.3666 45.3599 93.4778 45.4394 93.6208C45.5347 93.7479 45.5983 93.875 45.63 94.0021C45.6618 94.1292 45.6777 94.2404 45.6777 94.3357C45.6777 94.4152 45.6777 94.4549 45.6777 94.4549C45.6141 95.1063 45.5665 95.861 45.5347 96.7189C45.5029 97.561 45.4791 98.4587 45.4632 99.412C45.4632 100.365 45.4632 101.334 45.4632 102.319C45.4791 103.289 45.495 104.234 45.5109 105.155C45.5427 106.061 45.5824 106.895 45.63 107.658C45.63 107.658 45.6221 107.706 45.6062 107.801C45.5903 107.896 45.5506 108.007 45.487 108.134C45.4235 108.246 45.3123 108.349 45.1534 108.444C45.0104 108.524 44.8039 108.563 44.5338 108.563ZM53.1319 108.468C52.3375 108.516 51.6146 108.5 50.9632 108.42C50.3277 108.325 49.7875 108.206 49.3426 108.063C48.8978 107.92 48.5562 107.793 48.3178 107.682C48.0795 107.555 47.9604 107.491 47.9604 107.491C47.9604 107.491 47.9286 107.475 47.865 107.443C47.8015 107.396 47.722 107.332 47.6267 107.253C47.5473 107.173 47.4678 107.078 47.3884 106.967C47.3248 106.856 47.2851 106.728 47.2692 106.585C47.2692 106.442 47.309 106.299 47.3884 106.156C47.4837 105.982 47.5949 105.863 47.722 105.799C47.8491 105.72 47.9763 105.68 48.1034 105.68C48.2305 105.664 48.3337 105.672 48.4132 105.704C48.5085 105.72 48.5562 105.727 48.5562 105.727C49.1758 105.982 49.8193 106.164 50.4866 106.276C51.1539 106.387 51.7814 106.427 52.3693 106.395C52.9572 106.347 53.4497 106.212 53.8469 105.99C54.26 105.767 54.5142 105.441 54.6095 105.012C54.689 104.615 54.6333 104.266 54.4427 103.964C54.2679 103.646 53.9978 103.36 53.6324 103.106C53.267 102.852 52.8459 102.621 52.3693 102.415C51.9085 102.192 51.4478 101.986 50.987 101.795C50.6852 101.668 50.3595 101.493 50.0099 101.271C49.6604 101.048 49.3267 100.778 49.009 100.461C48.7071 100.143 48.4449 99.7933 48.2225 99.412C48.0001 99.0148 47.8571 98.5937 47.7935 98.1489C47.73 97.6881 47.7697 97.2035 47.9127 96.6951C48.0716 96.1867 48.3814 95.6624 48.8421 95.1222C49.3029 94.5661 49.7875 94.1451 50.2959 93.8591C50.8202 93.5572 51.3445 93.3427 51.8688 93.2156C52.3931 93.0885 52.8857 93.025 53.3464 93.025C53.8231 93.025 54.2441 93.0567 54.6095 93.1203C54.9908 93.1838 55.2848 93.2474 55.4913 93.311C55.7137 93.3745 55.8249 93.4063 55.8249 93.4063C55.8249 93.4063 55.8647 93.4222 55.9441 93.4539C56.0394 93.4857 56.1507 93.5413 56.2778 93.6208C56.4049 93.7002 56.532 93.7955 56.6591 93.9068C56.7862 94.0021 56.8815 94.1292 56.9451 94.2881C57.0086 94.4311 57.0245 94.5979 56.9927 94.7885C56.9451 94.9951 56.8497 95.154 56.7067 95.2652C56.5796 95.3605 56.4366 95.4161 56.2778 95.432C56.1348 95.4479 56.0077 95.4558 55.8964 95.4558C55.7852 95.44 55.7296 95.432 55.7296 95.432C54.9352 95.1937 54.1885 95.1381 53.4894 95.2652C52.7903 95.3764 52.1786 95.6068 51.6543 95.9563C51.1459 96.3058 50.7567 96.711 50.4866 97.1717C50.2324 97.6166 50.1688 98.0456 50.2959 98.4587C50.3912 98.8082 50.6137 99.118 50.9632 99.3881C51.3286 99.6423 51.7576 99.8886 52.2501 100.127C52.7586 100.349 53.2829 100.588 53.8231 100.842C54.3632 101.08 54.8637 101.358 55.3245 101.676C55.7852 101.978 56.1507 102.343 56.4207 102.772C56.7862 103.36 57.0007 103.924 57.0642 104.464C57.1278 105.005 57.0722 105.513 56.8974 105.99C56.7226 106.45 56.4525 106.856 56.0871 107.205C55.7217 107.555 55.2848 107.841 54.7763 108.063C54.2679 108.285 53.7198 108.42 53.1319 108.468ZM65.2271 108.73C64.2261 108.73 63.3126 108.548 62.4864 108.182C61.6602 107.817 60.9532 107.308 60.3653 106.657C59.7775 105.99 59.3326 105.211 59.0307 104.321C58.7447 103.416 58.6335 102.423 58.6971 101.342C58.7447 100.262 58.9592 99.2213 59.3405 98.2204C59.7377 97.2194 60.27 96.3217 60.9373 95.5273C61.6046 94.7329 62.3752 94.1054 63.249 93.6446C64.1387 93.168 65.1079 92.9296 66.1565 92.9296C66.9509 92.9296 67.7612 93.017 68.5874 93.1918C69.4136 93.3666 70.1921 93.6525 70.9229 94.0497C71.6697 94.4311 72.329 94.9474 72.901 95.5988C73.473 96.2344 73.9099 97.0129 74.2118 97.9344C74.5136 98.8559 74.6328 99.9363 74.5692 101.176C74.5216 102.192 74.2991 103.106 73.9019 103.916C73.5047 104.711 72.9804 105.41 72.329 106.013C71.6935 106.617 70.9706 107.126 70.1603 107.539C69.3659 107.936 68.5397 108.238 67.6818 108.444C66.8397 108.635 66.0215 108.73 65.2271 108.73ZM68.5874 111.733C68.3332 111.797 68.1108 111.797 67.9201 111.733C67.7294 111.67 67.5626 111.582 67.4196 111.471C67.2766 111.376 67.1734 111.28 67.1098 111.185C67.0463 111.106 67.0145 111.066 67.0145 111.066C66.6649 110.128 66.3551 109.255 66.085 108.444C65.8149 107.618 65.5846 106.824 65.3939 106.061C65.2032 105.298 65.0364 104.536 64.8934 103.773C64.8934 103.773 64.8934 103.726 64.8934 103.63C64.8934 103.535 64.9093 103.424 64.9411 103.297C64.9729 103.169 65.0285 103.05 65.1079 102.939C65.1874 102.828 65.3145 102.764 65.4892 102.748C65.7275 102.701 65.9261 102.733 66.085 102.844C66.2439 102.955 66.3631 103.074 66.4425 103.201C66.5378 103.312 66.5855 103.368 66.5855 103.368C66.8079 103.956 67.0621 104.631 67.3481 105.394C67.65 106.141 67.9598 106.943 68.2776 107.801C68.6112 108.659 68.9369 109.549 69.2547 110.47C69.2547 110.47 69.2626 110.518 69.2785 110.613C69.3103 110.724 69.3182 110.851 69.3024 110.994C69.2865 111.137 69.2229 111.272 69.1117 111.399C69.0164 111.542 68.8416 111.654 68.5874 111.733ZM65.7037 106.419C66.2598 106.419 66.8238 106.347 67.3958 106.204C67.9678 106.045 68.508 105.823 69.0164 105.537C69.5407 105.235 70.0173 104.862 70.4463 104.417C70.8753 103.956 71.2169 103.424 71.4711 102.82C71.7412 102.216 71.8921 101.533 71.9239 100.77C71.9874 99.7377 71.8683 98.8638 71.5664 98.1489C71.2804 97.4339 70.8673 96.8699 70.3271 96.4568C69.8028 96.0278 69.207 95.718 68.5397 95.5273C67.8883 95.3208 67.2131 95.2175 66.514 95.2175C65.8308 95.2175 65.1794 95.3764 64.5598 95.6942C63.956 96.0119 63.4158 96.4488 62.9392 97.0049C62.4626 97.561 62.0812 98.2045 61.7953 98.9353C61.5252 99.6503 61.3663 100.413 61.3186 101.223C61.2709 102.304 61.4219 103.233 61.7714 104.012C62.121 104.79 62.6373 105.386 63.3205 105.799C64.0037 106.212 64.7981 106.419 65.7037 106.419ZM83.0994 108.635C81.7331 108.54 80.5812 108.158 79.6438 107.491C78.7064 106.808 77.9835 105.831 77.4751 104.56C76.9667 103.289 76.6807 101.716 76.6171 99.8409V93.8829C76.6171 93.8829 76.6251 93.8432 76.641 93.7638C76.6727 93.6843 76.7125 93.5969 76.7601 93.5016C76.8237 93.3904 76.9269 93.2951 77.0699 93.2156C77.2129 93.1362 77.4036 93.0965 77.6419 93.0965C77.9597 93.0965 78.2059 93.1521 78.3807 93.2633C78.5714 93.3586 78.7143 93.4778 78.8097 93.6208C78.905 93.7638 78.9686 93.8909 79.0003 94.0021C79.0321 94.0974 79.048 94.1451 79.048 94.1451L79.1433 99.7218C79.1274 101.072 79.2545 102.24 79.5246 103.225C79.7947 104.194 80.2158 104.949 80.7877 105.489C81.3756 106.029 82.1144 106.355 83.0041 106.466C83.7509 106.355 84.3864 106.061 84.9107 105.584C85.4509 105.092 85.856 104.337 86.1261 103.32C86.4121 102.304 86.5472 100.961 86.5313 99.2928L86.4598 94.2166C86.4598 94.2166 86.4598 94.1689 86.4598 94.0736C86.4598 93.9782 86.4836 93.875 86.5313 93.7638C86.5948 93.6525 86.6981 93.5493 86.8411 93.4539C86.9841 93.3586 87.1906 93.311 87.4607 93.311C87.7308 93.311 87.9532 93.3586 88.128 93.4539C88.3187 93.5334 88.4617 93.6446 88.557 93.7876C88.6682 93.9147 88.7476 94.0497 88.7953 94.1927C88.8589 94.3198 88.8986 94.4311 88.9145 94.5264C88.9304 94.6217 88.9383 94.6694 88.9383 94.6694L89.0575 99.555C89.0892 100.778 89.0177 101.93 88.843 103.011C88.6682 104.075 88.3584 105.028 87.9135 105.87C87.4845 106.697 86.8729 107.356 86.0785 107.849C85.2999 108.325 84.3069 108.587 83.0994 108.635ZM92.3375 108.563C92.0833 108.563 91.8768 108.516 91.7179 108.42C91.559 108.309 91.4319 108.19 91.3366 108.063C91.2571 107.92 91.2015 107.801 91.1698 107.706C91.138 107.594 91.1221 107.539 91.1221 107.539C91.0585 106.856 91.0029 106.077 90.9553 105.203C90.9235 104.313 90.8997 103.376 90.8838 102.391C90.8838 101.406 90.8917 100.421 90.9076 99.4358C90.9235 98.4348 90.9553 97.4736 91.0029 96.5521C91.0506 95.6147 91.1062 94.7647 91.1698 94.0021C91.1698 94.0021 91.1777 93.9624 91.1936 93.8829C91.2095 93.7876 91.2492 93.6843 91.3128 93.5731C91.3763 93.446 91.4796 93.3427 91.6226 93.2633C91.7815 93.168 91.988 93.1203 92.2422 93.1203C92.5123 93.1362 92.7268 93.1918 92.8857 93.2871C93.0446 93.3666 93.1637 93.4778 93.2432 93.6208C93.3385 93.7479 93.402 93.875 93.4338 94.0021C93.4656 94.1292 93.4815 94.2404 93.4815 94.3357C93.4815 94.4152 93.4815 94.4549 93.4815 94.4549C93.4179 95.1063 93.3703 95.861 93.3385 96.7189C93.3067 97.561 93.2829 98.4587 93.267 99.412C93.267 100.365 93.267 101.334 93.267 102.319C93.2829 103.289 93.2988 104.234 93.3147 105.155C93.3464 106.061 93.3861 106.895 93.4338 107.658C93.4338 107.658 93.4259 107.706 93.41 107.801C93.3941 107.896 93.3544 108.007 93.2908 108.134C93.2273 108.246 93.1161 108.349 92.9572 108.444C92.8142 108.524 92.6076 108.563 92.3375 108.563ZM97.2361 108.563C97.0773 108.579 96.9025 108.571 96.7118 108.54C96.5371 108.492 96.3782 108.42 96.2352 108.325C96.0922 108.214 95.973 108.087 95.8777 107.944C95.7824 107.801 95.7347 107.634 95.7347 107.443C95.7506 107.253 95.8221 107.054 95.9492 106.848C96.5053 106.053 97.0534 105.251 97.5936 104.441C98.1338 103.614 98.6899 102.756 99.2619 101.867C99.8497 100.961 100.453 99.9998 101.073 98.983C101.709 97.9661 102.392 96.8699 103.123 95.6942C102.281 95.297 101.319 95.1222 100.239 95.1699C99.1745 95.2016 98.0464 95.3605 96.8548 95.6465C96.8548 95.6465 96.7992 95.6544 96.688 95.6703C96.5927 95.6703 96.4656 95.6703 96.3067 95.6703C96.1637 95.6544 96.0128 95.6147 95.8539 95.5512C95.7109 95.4717 95.5997 95.3526 95.5202 95.1937C95.409 95.003 95.3455 94.8362 95.3296 94.6932C95.3137 94.5502 95.3296 94.4311 95.3772 94.3357C95.4408 94.2404 95.5123 94.161 95.5917 94.0974C95.6712 94.0339 95.7347 93.9941 95.7824 93.9782C95.8459 93.9465 95.8777 93.9306 95.8777 93.9306C97.2282 93.4539 98.6184 93.1918 100.048 93.1441C101.478 93.0965 102.9 93.2553 104.314 93.6208C104.6 93.7479 104.854 93.9068 105.077 94.0974C105.299 94.2881 105.474 94.5184 105.601 94.7885C105.744 95.0427 105.816 95.3287 105.816 95.6465C105.832 95.9643 105.76 96.3058 105.601 96.6713C105.22 97.3386 104.839 97.982 104.457 98.6017C104.076 99.2213 103.687 99.8409 103.289 100.461C102.908 101.064 102.503 101.684 102.074 102.319C101.661 102.939 101.216 103.591 100.739 104.274C100.279 104.941 99.7703 105.656 99.2142 106.419L104.886 106.133C104.886 106.133 104.942 106.141 105.053 106.156C105.18 106.172 105.323 106.212 105.482 106.276C105.657 106.323 105.808 106.411 105.935 106.538C106.078 106.649 106.157 106.816 106.173 107.038C106.205 107.277 106.181 107.467 106.102 107.61C106.038 107.753 105.951 107.864 105.84 107.944C105.728 108.007 105.625 108.047 105.53 108.063C105.45 108.079 105.411 108.087 105.411 108.087L97.2361 108.563Z" fill="#F7F7F7"/>
</svg>
