<svg width="40" height="41" viewBox="0 0 40 41" fill="none" xmlns="http://www.w3.org/2000/svg">
<path d="M29.093 5.73635L32.513 2.31636C33.997 0.832371 36.403 0.832371 37.887 2.31636C39.371 3.80036 39.371 6.20638 37.887 7.69037L16.3666 29.2108C15.2951 30.2823 13.9736 31.0699 12.5214 31.5025L7.08 33.1234L8.70089 27.682C9.13347 26.2298 9.92107 24.9083 10.9925 23.8368L29.093 5.73635ZM29.093 5.73635L34.44 11.0834M31.4 25.0167V34.6434C31.4 37.1618 29.3584 39.2034 26.84 39.2034H5.56C3.04158 39.2034 1 37.1618 1 34.6434V13.3634C1 10.8449 3.04158 8.80335 5.56 8.80335H15.1867" stroke="#626262" stroke-width="2" stroke-linecap="round" stroke-linejoin="round"/>
</svg>
