<svg width="40" height="31" viewBox="0 0 40 31" fill="none" xmlns="http://www.w3.org/2000/svg">
<path d="M1.09837 16.0418C0.967331 15.6487 0.967206 15.223 1.09802 14.8297C3.73163 6.91257 11.1999 1.20337 20.0017 1.20337C28.7993 1.20337 36.2647 6.90726 38.9016 14.8187C39.0327 15.2119 39.0328 15.6375 38.902 16.0308C36.2684 23.948 28.8001 29.6571 19.9983 29.6571C11.2007 29.6571 3.73526 23.9533 1.09837 16.0418Z" stroke="#626262" stroke-width="2" stroke-linecap="round" stroke-linejoin="round"/>
<path d="M25.6909 15.4303C25.6909 18.5732 23.143 21.121 20.0001 21.121C16.8572 21.121 14.3094 18.5732 14.3094 15.4303C14.3094 12.2873 16.8572 9.7395 20.0001 9.7395C23.143 9.7395 25.6909 12.2873 25.6909 15.4303Z" stroke="#626262" stroke-width="2" stroke-linecap="round" stroke-linejoin="round"/>
</svg>
