<svg width="40" height="48" viewBox="0 0 40 48" fill="none" xmlns="http://www.w3.org/2000/svg">
<path d="M26.3112 16.7488L25.514 37.4761M14.486 37.4761L13.6888 16.7488M36.6455 9.35741C37.4331 9.47635 38.2179 9.6036 39 9.73907M36.6455 9.35741L34.1862 41.3281C33.9785 44.0278 31.7273 46.1125 29.0197 46.1125H10.9803C8.27266 46.1125 6.02146 44.0278 5.81379 41.3281L3.35451 9.35741M36.6455 9.35741C34.0052 8.95868 31.3344 8.65333 28.6364 8.44484M1 9.73907C1.78205 9.6036 2.56692 9.47635 3.35451 9.35741M3.35451 9.35741C5.99476 8.95868 8.66562 8.65333 11.3636 8.44484M28.6364 8.44484V6.33495C28.6364 3.61884 26.5391 1.3513 23.8244 1.26445C22.5546 1.22383 21.2797 1.20337 20 1.20337C18.7203 1.20337 17.4454 1.22383 16.1756 1.26445C13.4609 1.3513 11.3636 3.61884 11.3636 6.33495V8.44484M28.6364 8.44484C25.7865 8.22462 22.9063 8.11246 20 8.11246C17.0937 8.11246 14.2135 8.22462 11.3636 8.44484" stroke="#FF5555" stroke-width="2" stroke-linecap="round" stroke-linejoin="round"/>
</svg>
