<svg width="38" height="38" viewBox="0 0 38 38" fill="none" xmlns="http://www.w3.org/2000/svg">
<path d="M1.7998 5.97292C1.7998 3.33702 3.93663 1.2002 6.57253 1.2002H11.3453C13.9812 1.2002 16.118 3.33702 16.118 5.97292V10.7457C16.118 13.3816 13.9812 15.5184 11.3453 15.5184H6.57253C3.93663 15.5184 1.7998 13.3816 1.7998 10.7457V5.97292Z" stroke="#626262" stroke-width="2" stroke-linecap="round" stroke-linejoin="round"/>
<path d="M1.7998 26.6547C1.7998 24.0188 3.93663 21.882 6.57253 21.882H11.3453C13.9812 21.882 16.118 24.0188 16.118 26.6547V31.4275C16.118 34.0634 13.9812 36.2002 11.3453 36.2002H6.57253C3.93663 36.2002 1.7998 34.0634 1.7998 31.4275V26.6547Z" stroke="#626262" stroke-width="2" stroke-linecap="round" stroke-linejoin="round"/>
<path d="M22.4816 5.97292C22.4816 3.33702 24.6184 1.2002 27.2544 1.2002H32.0271C34.663 1.2002 36.7998 3.33702 36.7998 5.97292V10.7457C36.7998 13.3816 34.663 15.5184 32.0271 15.5184H27.2544C24.6184 15.5184 22.4816 13.3816 22.4816 10.7457V5.97292Z" stroke="#626262" stroke-width="2" stroke-linecap="round" stroke-linejoin="round"/>
<path d="M22.4816 26.6547C22.4816 24.0188 24.6184 21.882 27.2544 21.882H32.0271C34.663 21.882 36.7998 24.0188 36.7998 26.6547V31.4275C36.7998 34.0634 34.663 36.2002 32.0271 36.2002H27.2544C24.6184 36.2002 22.4816 34.0634 22.4816 31.4275V26.6547Z" stroke="#626262" stroke-width="2" stroke-linecap="round" stroke-linejoin="round"/>
</svg>
