<svg width="38" height="30" viewBox="0 0 38 30" fill="none" xmlns="http://www.w3.org/2000/svg">
<path d="M36.7998 5.23866V24.0848C36.7998 26.3152 34.9917 28.1233 32.7613 28.1233H5.83827C3.60789 28.1233 1.7998 26.3152 1.7998 24.0848V5.23866M36.7998 5.23866C36.7998 3.00828 34.9917 1.2002 32.7613 1.2002H5.83827C3.60789 1.2002 1.7998 3.00828 1.7998 5.23866M36.7998 5.23866V5.67429C36.7998 7.07669 36.0723 8.37869 34.8779 9.11368L21.4164 17.3977C20.1184 18.1965 18.4812 18.1965 17.1833 17.3977L3.72172 9.11368C2.52735 8.37869 1.7998 7.07669 1.7998 5.67429V5.23866" stroke="#626262" stroke-width="2" stroke-linecap="round" stroke-linejoin="round"/>
</svg>
