<svg width="38" height="38" viewBox="0 0 38 38" fill="none" xmlns="http://www.w3.org/2000/svg">
<path fill-rule="evenodd" clip-rule="evenodd" d="M17.3536 2.2408C18.2079 1.38653 19.5929 1.38653 20.4472 2.2408L35.7596 17.5532C36.3852 18.1789 36.5724 19.1197 36.2338 19.9372C35.8952 20.7546 35.0976 21.2875 34.2128 21.2875H32.0253V34.4125C32.0253 35.6206 31.046 36.6 29.8378 36.6H25.4629C24.2547 36.6 23.2754 35.6206 23.2754 34.4125V27.85C23.2754 26.6419 22.296 25.6625 21.0879 25.6625H16.7129C15.5048 25.6625 14.5254 26.6419 14.5254 27.85V34.4125C14.5254 35.6206 13.546 36.6 12.3379 36.6H7.96293C6.75481 36.6 5.77544 35.6206 5.77544 34.4125V21.2875H3.58795C2.70319 21.2875 1.90555 20.7546 1.56697 19.9372C1.22839 19.1197 1.41554 18.1789 2.04116 17.5532L17.3536 2.2408Z" stroke="#626262" stroke-width="2" stroke-linecap="round" stroke-linejoin="round"/>
</svg>
