<svg width="38" height="38" viewBox="0 0 38 38" fill="none" xmlns="http://www.w3.org/2000/svg">
<path d="M27.4469 31.0728H11.1527M27.4469 31.0728C30.4466 31.0728 32.8783 33.5046 32.8783 36.5042H5.72132C5.72132 33.5046 8.15304 31.0728 11.1527 31.0728M27.4469 31.0728V24.9625C27.4469 23.8376 26.535 22.9258 25.4101 22.9258H23.832M11.1527 31.0728V24.9625C11.1527 23.8376 12.0646 22.9258 13.1895 22.9258H14.7675M23.832 22.9258H14.7675M23.832 22.9258C22.8411 21.2127 22.2137 19.2632 22.0552 17.1825M14.7675 22.9258C15.7585 21.2127 16.3859 19.2632 16.5444 17.1825M7.07917 4.79642C5.30075 5.05503 3.54036 5.36924 1.7998 5.73723C2.61508 10.5666 6.61737 14.3131 11.5685 14.7384M7.07917 4.79642V5.27374C7.07917 9.0898 8.82826 12.4973 11.5685 14.7384M7.07917 4.79642V2.05273C11.072 1.49079 15.152 1.2002 19.2998 1.2002C23.4476 1.2002 27.5276 1.49079 31.5204 2.05273V4.79642M11.5685 14.7384C12.9944 15.9045 14.6886 16.7548 16.5444 17.1825M31.5204 4.79642V5.27374C31.5204 9.0898 29.7713 12.4973 27.0311 14.7384M31.5204 4.79642C33.2988 5.05504 35.0592 5.36925 36.7998 5.73724C35.9845 10.5666 31.9822 14.3131 27.0311 14.7384M27.0311 14.7384C25.6052 15.9045 23.911 16.7548 22.0552 17.1825M22.0552 17.1825C21.1696 17.3865 20.2473 17.4944 19.2998 17.4944C18.3523 17.4944 17.43 17.3865 16.5444 17.1825" stroke="#626262" stroke-width="2" stroke-linecap="round" stroke-linejoin="round"/>
</svg>
