<svg width="38" height="35" viewBox="0 0 38 35" fill="none" xmlns="http://www.w3.org/2000/svg">
<path d="M34.2072 16.7558V31.015C34.2072 32.4469 33.0465 33.6076 31.6146 33.6076H6.98499C5.55314 33.6076 4.3924 32.4469 4.3924 31.015V16.7558M18.6517 5.73723C18.6517 3.2315 16.6204 1.2002 14.1146 1.2002C11.6089 1.2002 9.57758 3.2315 9.57758 5.73723C9.57758 8.24297 11.6089 10.2743 14.1146 10.2743C15.3841 10.2743 18.6517 10.2743 18.6517 10.2743M18.6517 5.73723C18.6517 6.97345 18.6517 10.2743 18.6517 10.2743M18.6517 5.73723C18.6517 3.2315 20.683 1.2002 23.1887 1.2002C25.6944 1.2002 27.7257 3.2315 27.7257 5.73723C27.7257 8.24297 25.6944 10.2743 23.1887 10.2743C21.9192 10.2743 18.6517 10.2743 18.6517 10.2743M18.6517 10.2743V33.6076M3.74425 16.7558H34.8554C35.9292 16.7558 36.7998 15.8852 36.7998 14.8113V12.2187C36.7998 11.1448 35.9292 10.2743 34.8554 10.2743H3.74425C2.67036 10.2743 1.7998 11.1448 1.7998 12.2187V14.8113C1.7998 15.8852 2.67036 16.7558 3.74425 16.7558Z" stroke="#626262" stroke-width="2" stroke-linecap="round" stroke-linejoin="round"/>
</svg>
