<svg width="25" height="26" viewBox="0 0 25 26" fill="none" xmlns="http://www.w3.org/2000/svg">
<path fill-rule="evenodd" clip-rule="evenodd" d="M19.979 5.56444C15.8485 1.4339 9.15153 1.4339 5.02099 5.56444C0.890441 9.69499 0.89044 16.3919 5.02099 20.5225C9.15153 24.653 15.8485 24.653 19.979 20.5225C20.3545 20.147 20.9633 20.147 21.3388 20.5225C21.7143 20.898 21.7143 21.5068 21.3388 21.8823C16.4573 26.7638 8.54272 26.7638 3.66116 21.8823C-1.22039 17.0007 -1.22039 9.08618 3.66116 4.20462C8.54272 -0.676932 16.4573 -0.676932 21.3388 4.20462C23.7794 6.64522 25 9.84593 25 13.0435C25 14.2935 24.6212 15.4622 23.9628 16.34C23.3042 17.2182 22.3209 17.8511 21.1538 17.8511C19.9951 17.8511 19.0175 17.2272 18.359 16.3587C17.2025 18.3982 15.012 19.7742 12.5 19.7742C8.7827 19.7742 5.76923 16.7608 5.76923 13.0435C5.76923 9.32616 8.7827 6.31269 12.5 6.31269C14.3834 6.31269 16.086 7.08621 17.3077 8.3329V8.23576C17.3077 7.70472 17.7382 7.27423 18.2692 7.27423C18.8003 7.27423 19.2308 7.70472 19.2308 8.23576V13.0435C19.2308 13.9176 19.4977 14.672 19.8833 15.1862C20.2688 15.7001 20.7278 15.9281 21.1538 15.9281C21.5799 15.9281 22.0389 15.7001 22.4243 15.1862C22.81 14.672 23.0769 13.9176 23.0769 13.0435C23.0769 10.3351 22.0445 7.62991 19.979 5.56444ZM17.3077 13.0435C17.3077 10.3882 15.1552 8.23576 12.5 8.23576C9.84478 8.23576 7.69231 10.3882 7.69231 13.0435C7.69231 15.6987 9.84478 17.8511 12.5 17.8511C15.1552 17.8511 17.3077 15.6987 17.3077 13.0435Z" fill="#57BFE5"/>
</svg>
