<svg width="21" height="26" viewBox="0 0 21 26" fill="none" xmlns="http://www.w3.org/2000/svg">
<path fill-rule="evenodd" clip-rule="evenodd" d="M10.4621 0.543457C7.01027 0.543457 4.21205 3.34168 4.21205 6.79346V10.3649C2.23961 10.3649 0.640625 11.9639 0.640625 13.9363V21.972C0.640625 23.9445 2.23961 25.5435 4.21205 25.5435H16.7121C18.6845 25.5435 20.2835 23.9445 20.2835 21.972V13.9363C20.2835 11.9639 18.6845 10.3649 16.7121 10.3649V6.79346C16.7121 3.34168 13.9138 0.543457 10.4621 0.543457ZM14.9263 10.3649V6.79346C14.9263 4.3279 12.9276 2.32917 10.4621 2.32917C7.9965 2.32917 5.99777 4.3279 5.99777 6.79346V10.3649H14.9263Z" fill="#57BFE5"/>
</svg>
