<svg width="20" height="26" viewBox="0 0 20 26" fill="none" xmlns="http://www.w3.org/2000/svg">
<path fill-rule="evenodd" clip-rule="evenodd" d="M4.46293 5.9006C4.46293 2.94193 6.86141 0.543457 9.82008 0.543457C12.7787 0.543457 15.1772 2.94193 15.1772 5.9006C15.1772 8.85927 12.7787 11.2577 9.82008 11.2577C6.86141 11.2577 4.46293 8.85927 4.46293 5.9006Z" fill="#57BFE5"/>
<path fill-rule="evenodd" clip-rule="evenodd" d="M0.000133254 22.6927C0.0922049 17.3477 4.45339 13.0435 9.82008 13.0435C15.1869 13.0435 19.5482 17.3479 19.64 22.693C19.6461 23.0475 19.4419 23.372 19.1197 23.5199C16.2876 24.8194 13.1374 25.5435 9.82046 25.5435C6.50324 25.5435 3.35274 24.8193 0.520461 23.5195C0.198235 23.3717 -0.00597308 23.0471 0.000133254 22.6927Z" fill="#57BFE5"/>
</svg>
