<svg width="194" height="134" viewBox="0 0 194 134" fill="none" xmlns="http://www.w3.org/2000/svg">
<path d="M74.8688 85.0544C74.3248 85.1632 73.8352 85.1451 73.4 85C72.9648 84.8912 72.6021 84.728 72.312 84.5104C72.0219 84.2565 71.8043 84.0389 71.6592 83.8576C71.5141 83.6763 71.4416 83.5856 71.4416 83.5856C70.3899 81.5547 69.3563 79.8683 68.3408 78.5264C67.3253 77.1483 66.3099 75.9877 65.2944 75.0448C64.2789 74.1019 63.2272 73.3221 62.1392 72.7056C61.0875 72.0891 59.9632 71.5451 58.7664 71.0736L58.8752 65.5792C61.3776 64.8901 63.4992 63.9653 65.24 62.8048C66.9808 61.608 68.4133 60.3387 69.5376 58.9968C70.6619 57.6187 71.5323 56.2768 72.1488 54.9712C72.8016 53.6656 73.2368 52.5232 73.4544 51.544C73.4544 51.544 73.4907 51.4533 73.5632 51.272C73.672 51.0907 73.8352 50.9093 74.0528 50.728C74.2704 50.5104 74.5605 50.3472 74.9232 50.2384C75.2859 50.0933 75.7573 50.0752 76.3376 50.184C76.9541 50.2928 77.4075 50.5104 77.6976 50.8368C78.024 51.1269 78.2235 51.4352 78.296 51.7616C78.3685 52.088 78.4048 52.3781 78.4048 52.632C78.4048 52.8496 78.4048 52.9584 78.4048 52.9584C78.296 54.3728 77.9515 55.7691 77.3712 57.1472C76.8272 58.5253 76.12 59.8491 75.2496 61.1184C74.3792 62.3515 73.3819 63.4939 72.2576 64.5456C71.1333 65.5611 69.9365 66.4677 68.6672 67.2656C67.4341 68.0272 66.1829 68.6075 64.9136 69.0064C66.6181 69.8768 68.2139 71.0373 69.7008 72.488C71.224 73.9387 72.584 75.5344 73.7808 77.2752C74.9776 79.016 75.9568 80.7749 76.7184 82.552C76.7184 82.552 76.7365 82.6608 76.7728 82.8784C76.8091 83.0597 76.7909 83.3136 76.7184 83.64C76.6459 83.9301 76.4645 84.2203 76.1744 84.5104C75.9205 84.7643 75.4853 84.9456 74.8688 85.0544ZM58.712 85C58.0955 85 57.6059 84.8912 57.2432 84.6736C56.8805 84.4197 56.5904 84.1477 56.3728 83.8576C56.1915 83.5312 56.0645 83.2592 55.992 83.0416C55.9195 82.7877 55.8832 82.6608 55.8832 82.6608C55.7381 81.1013 55.6112 79.3243 55.5024 77.3296C55.4299 75.2987 55.3755 73.1589 55.3392 70.9104C55.3392 68.6619 55.3573 66.4133 55.3936 64.1648C55.4299 61.88 55.5024 59.6859 55.6112 57.5824C55.72 55.4427 55.8469 53.5024 55.992 51.7616C55.992 51.7616 56.0101 51.6528 56.0464 51.4352C56.0827 51.2176 56.1733 50.9819 56.3184 50.728C56.4635 50.4741 56.6992 50.2565 57.0256 50.0752C57.3883 49.8576 57.8597 49.7488 58.44 49.7488C59.0565 49.7488 59.5461 49.8576 59.9088 50.0752C60.2715 50.2928 60.5435 50.5648 60.7248 50.8912C60.9424 51.1813 61.0875 51.4715 61.16 51.7616C61.2325 52.0517 61.2688 52.3056 61.2688 52.5232C61.2688 52.7045 61.2688 52.7952 61.2688 52.7952C61.1237 54.2821 61.0149 56.0048 60.9424 57.9632C60.8699 59.8853 60.8155 61.9344 60.7792 64.1104C60.7792 66.2864 60.7792 68.4987 60.7792 70.7472C60.8155 72.9595 60.8517 75.1173 60.888 77.2208C60.9605 79.288 61.0512 81.192 61.16 82.9328C61.16 82.9328 61.1419 83.0416 61.1056 83.2592C61.0693 83.4768 60.9787 83.7307 60.8336 84.0208C60.6885 84.2747 60.4347 84.5104 60.072 84.728C59.7456 84.9093 59.2923 85 58.712 85ZM85.3795 85C84.7992 85 84.3277 84.8912 83.9651 84.6736C83.6024 84.4197 83.3123 84.1477 83.0947 83.8576C82.9133 83.5312 82.7864 83.2592 82.7139 83.0416C82.6413 82.7877 82.6051 82.6608 82.6051 82.6608C82.46 81.1013 82.3331 79.3243 82.2243 77.3296C82.1517 75.2987 82.0973 73.1589 82.0611 70.9104C82.0611 68.6619 82.0792 66.4133 82.1155 64.1648C82.1517 61.88 82.2243 59.6859 82.3331 57.5824C82.4419 55.4427 82.5688 53.5024 82.7139 51.7616C82.7139 51.7616 82.732 51.6709 82.7683 51.4896C82.8045 51.272 82.8952 51.0363 83.0403 50.7824C83.1853 50.4923 83.4211 50.2565 83.7475 50.0752C84.1101 49.8576 84.5816 49.7488 85.1619 49.7488C85.7784 49.7851 86.268 49.912 86.6307 50.1296C86.9933 50.3109 87.2653 50.5648 87.4467 50.8912C87.6643 51.1813 87.8093 51.4715 87.8819 51.7616C87.9544 52.0517 87.9907 52.3056 87.9907 52.5232C87.9907 52.7045 87.9907 52.7952 87.9907 52.7952C87.8456 54.2821 87.7368 56.0048 87.6643 57.9632C87.5917 59.8853 87.5373 61.9344 87.5011 64.1104C87.5011 66.2864 87.5011 68.4987 87.5011 70.7472C87.5373 72.9595 87.5736 75.1173 87.6099 77.2208C87.6824 79.288 87.7731 81.192 87.8819 82.9328C87.8819 82.9328 87.8637 83.0416 87.8275 83.2592C87.7912 83.4768 87.7005 83.7307 87.5555 84.0208C87.4104 84.2747 87.1565 84.5104 86.7939 84.728C86.4675 84.9093 85.996 85 85.3795 85ZM109.236 84.3472C107.278 84.6011 105.356 84.8005 103.47 84.9456C101.62 85.0907 99.9159 85.1088 98.3564 85C96.8332 84.9275 95.5639 84.7099 94.5484 84.3472C93.533 83.9483 92.9164 83.3499 92.6988 82.552C92.5538 80.9925 92.4268 79.2155 92.318 77.2208C92.2455 75.1899 92.1911 73.0683 92.1548 70.856C92.1548 68.6437 92.173 66.4133 92.2092 64.1648C92.2455 61.88 92.318 59.6859 92.4268 57.5824C92.5356 55.4789 92.6626 53.5568 92.8076 51.816C92.8439 51.4896 92.9527 51.1632 93.134 50.8368C93.3154 50.5104 93.6055 50.2384 94.0044 50.0208C94.4034 49.8032 94.9474 49.6944 95.6364 49.6944L107.55 49.7488C109.146 49.9664 110.615 50.4016 111.956 51.0544C113.298 51.6709 114.459 52.4688 115.438 53.448C116.417 54.4272 117.143 55.5333 117.614 56.7664C117.977 57.8181 118.122 58.8517 118.049 59.8672C117.977 60.8464 117.705 61.7712 117.233 62.6416C116.762 63.4757 116.109 64.2373 115.275 64.9264C114.477 65.6155 113.534 66.1957 112.446 66.6672C113.57 67.1749 114.549 67.8821 115.384 68.7888C116.218 69.6592 116.889 70.6384 117.396 71.7264C117.904 72.7781 118.194 73.8843 118.267 75.0448C118.231 76.5317 117.886 77.8917 117.233 79.1248C116.58 80.3216 115.601 81.3552 114.296 82.2256C112.99 83.096 111.304 83.8032 109.236 84.3472ZM97.9212 80.2672C99.662 80.2672 101.312 80.2491 102.872 80.2128C104.467 80.1403 105.9 79.9771 107.169 79.7232C108.439 79.4331 109.49 79.016 110.324 78.472C112.355 76.9488 113.044 75.2261 112.392 73.304C112.065 72.2885 111.539 71.4907 110.814 70.9104C110.089 70.3301 109.255 69.8949 108.312 69.6048C107.405 69.3147 106.444 69.1333 105.428 69.0608L97.6492 69.1696C97.613 71.0192 97.613 72.8688 97.6492 74.7184C97.7218 76.568 97.8124 78.4176 97.9212 80.2672ZM97.758 63.6752C99.5351 63.784 101.276 63.8021 102.98 63.7296C104.721 63.6208 106.462 63.4032 108.203 63.0768C109.436 62.6416 110.415 62.0795 111.14 61.3904C111.902 60.7013 112.301 59.8128 112.337 58.7248C112.228 57.528 111.721 56.5307 110.814 55.7328C109.907 54.9349 108.529 54.3728 106.68 54.0464C106.172 53.9739 105.465 53.9195 104.558 53.8832C103.651 53.8469 102.636 53.8288 101.512 53.8288C100.424 53.7925 99.2994 53.7744 98.1388 53.7744L97.758 63.6752ZM125.701 84.6736C125.049 84.6736 124.541 84.5467 124.178 84.2928C123.815 84.0027 123.525 83.6944 123.308 83.368C123.09 83.0053 122.945 82.6971 122.873 82.4432C122.836 82.1893 122.818 82.0624 122.818 82.0624C122.709 80.6843 122.619 79.0523 122.546 77.1664C122.474 75.2805 122.419 73.2496 122.383 71.0736C122.383 68.8613 122.401 66.6309 122.437 64.3824C122.474 62.0976 122.546 59.8853 122.655 57.7456C122.764 55.6059 122.891 53.6656 123.036 51.9248C123.036 51.9248 123.036 51.8341 123.036 51.6528C123.072 51.4352 123.163 51.1995 123.308 50.9456C123.453 50.6555 123.689 50.4016 124.015 50.184C124.378 49.9301 124.867 49.7669 125.484 49.6944C129.981 49.3317 133.753 49.3499 136.799 49.7488C139.845 50.1115 142.239 51.1632 143.98 52.904C145.721 54.6085 146.845 56.4763 147.353 58.5072C147.86 60.5019 147.788 62.4603 147.135 64.3824C146.518 66.2683 145.34 67.9728 143.599 69.496C142.874 70.1488 141.931 70.7472 140.77 71.2912C139.61 71.8352 138.322 72.2885 136.908 72.6512C135.493 73.0139 134.006 73.2677 132.447 73.4128C130.924 73.5216 129.401 73.4672 127.877 73.2496L128.095 82.6064C128.095 82.6064 128.077 82.7152 128.041 82.9328C128.004 83.1504 127.914 83.4043 127.769 83.6944C127.623 83.9483 127.388 84.184 127.061 84.4016C126.735 84.6192 126.282 84.7099 125.701 84.6736ZM141.858 82.6608C140.335 81.6816 138.739 80.7387 137.071 79.832C135.403 78.8891 133.644 77.928 131.794 76.9488C129.945 75.9696 127.95 74.936 125.81 73.848C125.81 73.6304 125.955 73.4128 126.245 73.1952C126.535 72.9413 126.898 72.7237 127.333 72.5424C127.805 72.3248 128.258 72.1253 128.693 71.944C129.165 71.7627 129.546 71.6357 129.836 71.5632C130.162 71.4544 130.325 71.4 130.325 71.4C131.377 71.8352 132.356 72.2523 133.263 72.6512C134.17 73.0501 135.058 73.4672 135.929 73.9024C136.799 74.3013 137.687 74.7547 138.594 75.2624C139.537 75.7339 140.516 76.296 141.532 76.9488C142.583 77.5653 143.744 78.2907 145.013 79.1248C145.013 79.1248 145.068 79.1792 145.177 79.288C145.285 79.3968 145.394 79.56 145.503 79.7776C145.648 79.9952 145.739 80.2491 145.775 80.5392C145.847 80.7931 145.847 81.0832 145.775 81.4096C145.739 81.736 145.557 82.0805 145.231 82.4432C145.013 82.7696 144.705 82.9691 144.306 83.0416C143.943 83.1141 143.563 83.1323 143.164 83.096C142.801 83.0235 142.493 82.9328 142.239 82.824C141.985 82.7152 141.858 82.6608 141.858 82.6608ZM127.877 68.0816C130.416 68.2629 132.538 68.1541 134.242 67.7552C135.983 67.32 137.361 66.7216 138.377 65.96C139.428 65.1984 140.19 64.3643 140.661 63.4576C141.169 62.5509 141.477 61.6624 141.586 60.792C141.586 59.2325 141.205 57.9813 140.444 57.0384C139.718 56.0955 138.721 55.3701 137.452 54.8624C136.219 54.3547 134.786 54.0283 133.154 53.8832C131.558 53.7381 129.926 53.7019 128.258 53.7744C128.041 56.1317 127.895 58.5435 127.823 61.0096C127.75 63.4757 127.769 65.8331 127.877 68.0816ZM154.654 85C154.074 85 153.603 84.8912 153.24 84.6736C152.877 84.4197 152.587 84.1477 152.37 83.8576C152.188 83.5312 152.061 83.2592 151.989 83.0416C151.916 82.7877 151.88 82.6608 151.88 82.6608C151.735 81.1013 151.608 79.3243 151.499 77.3296C151.427 75.2987 151.372 73.1589 151.336 70.9104C151.336 68.6619 151.354 66.4133 151.39 64.1648C151.427 61.88 151.499 59.6859 151.608 57.5824C151.717 55.4427 151.844 53.5024 151.989 51.7616C151.989 51.7616 152.007 51.6709 152.043 51.4896C152.08 51.272 152.17 51.0363 152.315 50.7824C152.46 50.4923 152.696 50.2565 153.022 50.0752C153.385 49.8576 153.857 49.7488 154.437 49.7488C155.053 49.7851 155.543 49.912 155.906 50.1296C156.268 50.3109 156.54 50.5648 156.722 50.8912C156.939 51.1813 157.084 51.4715 157.157 51.7616C157.229 52.0517 157.266 52.3056 157.266 52.5232C157.266 52.7045 157.266 52.7952 157.266 52.7952C157.121 54.2821 157.012 56.0048 156.939 57.9632C156.867 59.8853 156.812 61.9344 156.776 64.1104C156.776 66.2864 156.776 68.4987 156.776 70.7472C156.812 72.9595 156.849 75.1173 156.885 77.2208C156.957 79.288 157.048 81.192 157.157 82.9328C157.157 82.9328 157.139 83.0416 157.102 83.2592C157.066 83.4768 156.976 83.7307 156.83 84.0208C156.685 84.2747 156.432 84.5104 156.069 84.728C155.742 84.9093 155.271 85 154.654 85ZM174.281 84.7824C172.468 84.8912 170.818 84.8549 169.331 84.6736C167.88 84.456 166.647 84.184 165.631 83.8576C164.616 83.5312 163.836 83.2411 163.292 82.9872C162.748 82.6971 162.476 82.552 162.476 82.552C162.476 82.552 162.404 82.5157 162.259 82.4432C162.114 82.3344 161.932 82.1893 161.715 82.008C161.533 81.8267 161.352 81.6091 161.171 81.3552C161.026 81.1013 160.935 80.8112 160.899 80.4848C160.899 80.1584 160.989 79.832 161.171 79.5056C161.388 79.1067 161.642 78.8347 161.932 78.6896C162.222 78.5083 162.512 78.4176 162.803 78.4176C163.093 78.3813 163.328 78.3995 163.51 78.472C163.727 78.5083 163.836 78.5264 163.836 78.5264C165.251 79.1067 166.719 79.5237 168.243 79.7776C169.766 80.0315 171.198 80.1221 172.54 80.0496C173.882 79.9408 175.006 79.6325 175.913 79.1248C176.856 78.6171 177.436 77.8736 177.654 76.8944C177.835 75.9877 177.708 75.1899 177.273 74.5008C176.874 73.7755 176.258 73.1227 175.423 72.5424C174.589 71.9621 173.628 71.4363 172.54 70.9648C171.488 70.4571 170.437 69.9856 169.385 69.5504C168.696 69.2603 167.952 68.8613 167.155 68.3536C166.357 67.8459 165.595 67.2293 164.87 66.504C164.181 65.7787 163.582 64.9808 163.075 64.1104C162.567 63.2037 162.24 62.2427 162.095 61.2272C161.95 60.1755 162.041 59.0693 162.367 57.9088C162.73 56.7483 163.437 55.5515 164.489 54.3184C165.541 53.0491 166.647 52.088 167.807 51.4352C169.004 50.7461 170.201 50.2565 171.398 49.9664C172.595 49.6763 173.719 49.5312 174.771 49.5312C175.859 49.5312 176.82 49.6037 177.654 49.7488C178.524 49.8939 179.195 50.0389 179.667 50.184C180.174 50.3291 180.428 50.4016 180.428 50.4016C180.428 50.4016 180.519 50.4379 180.7 50.5104C180.918 50.5829 181.172 50.7099 181.462 50.8912C181.752 51.0725 182.042 51.2901 182.332 51.544C182.622 51.7616 182.84 52.0517 182.985 52.4144C183.13 52.7408 183.166 53.1216 183.094 53.5568C182.985 54.0283 182.767 54.3909 182.441 54.6448C182.151 54.8624 181.824 54.9893 181.462 55.0256C181.135 55.0619 180.845 55.08 180.591 55.08C180.338 55.0437 180.211 55.0256 180.211 55.0256C178.397 54.4816 176.693 54.3547 175.097 54.6448C173.501 54.8987 172.105 55.4245 170.908 56.2224C169.748 57.0203 168.859 57.9451 168.243 58.9968C167.662 60.0123 167.517 60.9915 167.807 61.9344C168.025 62.7323 168.533 63.4395 169.331 64.056C170.165 64.6363 171.144 65.1984 172.268 65.7424C173.429 66.2501 174.626 66.7941 175.859 67.3744C177.092 67.9184 178.234 68.5531 179.286 69.2784C180.338 69.9675 181.172 70.8016 181.788 71.7808C182.622 73.1227 183.112 74.4101 183.257 75.6432C183.402 76.8763 183.275 78.0368 182.876 79.1248C182.477 80.1765 181.861 81.1013 181.027 81.8992C180.192 82.6971 179.195 83.3499 178.035 83.8576C176.874 84.3653 175.623 84.6736 174.281 84.7824Z" fill="#83D0EC"/>
<path d="M62.8747 119.217C61.5705 119.217 60.3801 118.979 59.3036 118.503C58.2271 118.027 57.3059 117.365 56.54 116.516C55.774 115.646 55.1944 114.632 54.801 113.473C54.4284 112.293 54.2835 110.999 54.3663 109.591C54.4284 108.183 54.7079 106.827 55.2047 105.523C55.7223 104.219 56.4158 103.049 57.2852 102.014C58.1547 100.979 59.1587 100.162 60.2973 99.5612C61.4566 98.9402 62.7194 98.6297 64.0857 98.6297C65.1208 98.6297 66.1766 98.7435 67.253 98.9712C68.3295 99.1989 69.3439 99.5716 70.2962 100.089C71.2691 100.586 72.1283 101.259 72.8735 102.108C73.6188 102.936 74.1881 103.95 74.5814 105.151C74.9747 106.351 75.13 107.759 75.0472 109.374C74.9851 110.699 74.6953 111.889 74.1777 112.945C73.6602 113.98 72.977 114.891 72.1283 115.677C71.3002 116.464 70.3583 117.127 69.3025 117.665C68.2674 118.182 67.1909 118.576 66.073 118.845C64.9759 119.093 63.9097 119.217 62.8747 119.217ZM67.253 123.13C66.9218 123.213 66.632 123.213 66.3836 123.13C66.1351 123.047 65.9178 122.933 65.7315 122.788C65.5452 122.664 65.4106 122.54 65.3278 122.416C65.245 122.312 65.2036 122.26 65.2036 122.26C64.7481 121.039 64.3445 119.901 63.9925 118.845C63.6406 117.768 63.3404 116.733 63.092 115.74C62.8436 114.746 62.6262 113.752 62.4399 112.758C62.4399 112.758 62.4399 112.696 62.4399 112.572C62.4399 112.448 62.4606 112.303 62.502 112.137C62.5434 111.972 62.6159 111.817 62.7194 111.672C62.8229 111.527 62.9885 111.444 63.2162 111.423C63.5268 111.361 63.7855 111.403 63.9925 111.547C64.1996 111.692 64.3548 111.848 64.4583 112.013C64.5825 112.158 64.6446 112.231 64.6446 112.231C64.9345 112.997 65.2657 113.876 65.6383 114.87C66.0316 115.843 66.4353 116.888 66.8494 118.006C67.2841 119.124 67.7085 120.283 68.1225 121.484C68.1225 121.484 68.1329 121.546 68.1536 121.671C68.195 121.815 68.2053 121.981 68.1846 122.167C68.1639 122.354 68.0811 122.53 67.9362 122.695C67.812 122.882 67.5843 123.026 67.253 123.13ZM63.4957 116.205C64.2203 116.205 64.9552 116.112 65.7004 115.926C66.4457 115.719 67.1495 115.429 67.812 115.056C68.4951 114.663 69.1162 114.177 69.6751 113.597C70.2341 112.997 70.6791 112.303 71.0104 111.516C71.3623 110.73 71.559 109.84 71.6004 108.846C71.6832 107.5 71.5279 106.362 71.1346 105.43C70.762 104.499 70.2237 103.764 69.5199 103.225C68.8367 102.666 68.0604 102.263 67.1909 102.014C66.3422 101.745 65.4623 101.611 64.5515 101.611C63.6613 101.611 62.8125 101.818 62.0052 102.232C61.2185 102.646 60.5147 103.215 59.8936 103.94C59.2726 104.664 58.7757 105.503 58.4031 106.455C58.0512 107.386 57.8442 108.38 57.7821 109.436C57.72 110.844 57.9166 112.055 58.3721 113.069C58.8275 114.083 59.5003 114.86 60.3905 115.398C61.2806 115.936 62.3157 116.205 63.4957 116.205ZM86.1617 119.093C84.3814 118.969 82.8805 118.472 81.6591 117.603C80.4378 116.712 79.4958 115.439 78.8334 113.783C78.1709 112.127 77.7983 110.078 77.7155 107.635V99.8717C77.7155 99.8717 77.7258 99.82 77.7465 99.7165C77.788 99.613 77.8397 99.4991 77.9018 99.3749C77.9846 99.23 78.1192 99.1058 78.3055 99.0023C78.4918 98.8988 78.7402 98.847 79.0507 98.847C79.4648 98.847 79.7857 98.9195 80.0134 99.0644C80.2618 99.1886 80.4481 99.3439 80.5723 99.5302C80.6965 99.7165 80.7793 99.8821 80.8207 100.027C80.8621 100.151 80.8828 100.213 80.8828 100.213L81.007 107.48C80.9863 109.239 81.152 110.761 81.5039 112.044C81.8558 113.307 82.4044 114.29 83.1497 114.994C83.9156 115.698 84.8782 116.122 86.0375 116.267C87.0105 116.122 87.8386 115.74 88.5217 115.118C89.2256 114.477 89.7535 113.493 90.1054 112.168C90.478 110.844 90.654 109.094 90.6333 106.921L90.5401 100.306C90.5401 100.306 90.5401 100.244 90.5401 100.12C90.5401 99.996 90.5712 99.8614 90.6333 99.7165C90.7161 99.5716 90.8506 99.437 91.037 99.3128C91.2233 99.1886 91.4924 99.1265 91.8443 99.1265C92.1962 99.1265 92.4861 99.1886 92.7138 99.3128C92.9622 99.4163 93.1485 99.5612 93.2727 99.7475C93.4176 99.9131 93.5211 100.089 93.5833 100.275C93.6661 100.441 93.7178 100.586 93.7385 100.71C93.7592 100.834 93.7696 100.896 93.7696 100.896L93.9248 107.262C93.9662 108.856 93.8731 110.357 93.6454 111.765C93.4176 113.152 93.014 114.394 92.4343 115.491C91.8754 116.568 91.0784 117.427 90.0433 118.068C89.0289 118.689 87.7351 119.031 86.1617 119.093ZM98.1987 119C97.8674 119 97.5983 118.938 97.3913 118.814C97.1843 118.669 97.0187 118.514 96.8945 118.348C96.7909 118.162 96.7185 118.006 96.6771 117.882C96.6357 117.737 96.615 117.665 96.615 117.665C96.5322 116.775 96.4597 115.76 96.3976 114.622C96.3562 113.462 96.3252 112.241 96.3045 110.957C96.3045 109.674 96.3148 108.39 96.3355 107.107C96.3562 105.803 96.3976 104.55 96.4597 103.35C96.5218 102.128 96.5943 101.021 96.6771 100.027C96.6771 100.027 96.6874 99.9753 96.7081 99.8717C96.7288 99.7475 96.7806 99.613 96.8634 99.4681C96.9462 99.3025 97.0808 99.1679 97.2671 99.0644C97.4741 98.9402 97.7432 98.8781 98.0744 98.8781C98.4264 98.8988 98.7058 98.9712 98.9129 99.0954C99.1199 99.1989 99.2751 99.3439 99.3786 99.5302C99.5029 99.6958 99.5857 99.8614 99.6271 100.027C99.6685 100.193 99.6892 100.338 99.6892 100.462C99.6892 100.565 99.6892 100.617 99.6892 100.617C99.6064 101.466 99.5443 102.449 99.5029 103.567C99.4614 104.664 99.4304 105.834 99.4097 107.076C99.4097 108.318 99.4097 109.581 99.4097 110.864C99.4304 112.127 99.4511 113.359 99.4718 114.56C99.5132 115.74 99.565 116.826 99.6271 117.82C99.6271 117.82 99.6167 117.882 99.596 118.006C99.5753 118.131 99.5236 118.275 99.4407 118.441C99.3579 118.586 99.213 118.721 99.006 118.845C98.8197 118.948 98.5506 119 98.1987 119ZM104.581 119C104.374 119.021 104.147 119.01 103.898 118.969C103.67 118.907 103.463 118.814 103.277 118.689C103.091 118.545 102.936 118.379 102.811 118.193C102.687 118.006 102.625 117.789 102.625 117.541C102.646 117.292 102.739 117.033 102.905 116.764C103.629 115.729 104.343 114.684 105.047 113.628C105.751 112.551 106.476 111.434 107.221 110.274C107.987 109.094 108.773 107.842 109.581 106.517C110.409 105.192 111.299 103.764 112.251 102.232C111.154 101.714 109.902 101.486 108.494 101.549C107.107 101.59 105.637 101.797 104.085 102.17C104.085 102.17 104.012 102.18 103.867 102.201C103.743 102.201 103.577 102.201 103.37 102.201C103.184 102.18 102.987 102.128 102.78 102.045C102.594 101.942 102.449 101.787 102.346 101.58C102.201 101.331 102.118 101.114 102.097 100.928C102.076 100.741 102.097 100.586 102.159 100.462C102.242 100.338 102.335 100.234 102.439 100.151C102.542 100.068 102.625 100.017 102.687 99.996C102.77 99.9546 102.811 99.9338 102.811 99.9338C104.571 99.3128 106.382 98.9712 108.246 98.9091C110.109 98.847 111.961 99.054 113.804 99.5302C114.177 99.6958 114.508 99.9028 114.798 100.151C115.087 100.4 115.315 100.7 115.481 101.052C115.667 101.383 115.76 101.756 115.76 102.17C115.781 102.584 115.688 103.029 115.481 103.505C114.984 104.374 114.487 105.213 113.99 106.02C113.493 106.827 112.986 107.635 112.469 108.442C111.972 109.229 111.444 110.036 110.885 110.864C110.347 111.672 109.767 112.52 109.146 113.411C108.546 114.28 107.883 115.212 107.159 116.205L114.549 115.833C114.549 115.833 114.622 115.843 114.767 115.864C114.932 115.884 115.118 115.936 115.325 116.019C115.553 116.081 115.75 116.195 115.915 116.361C116.102 116.505 116.205 116.723 116.226 117.013C116.267 117.323 116.236 117.572 116.133 117.758C116.05 117.944 115.936 118.089 115.791 118.193C115.646 118.275 115.512 118.327 115.388 118.348C115.284 118.369 115.232 118.379 115.232 118.379L104.581 119ZM120.697 119.062C120.365 119.062 120.065 119 119.796 118.876C119.527 118.731 119.31 118.545 119.144 118.317C118.999 118.068 118.927 117.799 118.927 117.509C118.927 117.22 118.999 116.961 119.144 116.733C119.31 116.485 119.527 116.288 119.796 116.143C120.065 115.998 120.365 115.926 120.697 115.926C121.049 115.926 121.359 115.998 121.628 116.143C121.918 116.288 122.135 116.485 122.28 116.733C122.446 116.961 122.529 117.22 122.529 117.509C122.529 118.048 122.353 118.441 122.001 118.689C121.649 118.938 121.214 119.062 120.697 119.062ZM132.532 119.279C130.835 119.176 129.468 118.814 128.433 118.193C127.398 117.551 126.632 116.702 126.135 115.646C125.639 114.57 125.338 113.359 125.235 112.013C125.152 110.937 125.266 109.902 125.576 108.908C125.908 107.894 126.404 106.993 127.067 106.206C127.75 105.399 128.578 104.768 129.551 104.312C130.524 103.836 131.632 103.608 132.874 103.629C133.909 103.629 134.778 103.764 135.482 104.033C136.207 104.281 136.807 104.602 137.283 104.995C137.759 105.368 138.122 105.741 138.37 106.113C138.639 106.486 138.825 106.807 138.929 107.076C139.032 107.324 139.084 107.449 139.084 107.449C139.084 107.449 139.084 107.511 139.084 107.635C139.084 107.759 139.043 107.914 138.96 108.101C138.898 108.266 138.743 108.421 138.494 108.566C138.266 108.711 138.018 108.794 137.749 108.815C137.48 108.836 137.231 108.815 137.004 108.753C136.776 108.691 136.61 108.608 136.507 108.504C136.507 108.504 136.445 108.411 136.321 108.225C136.217 108.039 136.041 107.832 135.793 107.604C135.565 107.376 135.244 107.169 134.83 106.983C134.437 106.796 133.95 106.703 133.371 106.703C132.708 106.724 132.077 106.827 131.476 107.014C130.876 107.2 130.348 107.5 129.893 107.914C129.437 108.308 129.085 108.815 128.837 109.436C128.588 110.057 128.495 110.802 128.557 111.672C128.578 112.727 128.764 113.576 129.116 114.218C129.468 114.839 129.944 115.305 130.545 115.615C131.166 115.905 131.88 116.091 132.687 116.174C133.308 116.216 133.888 116.174 134.426 116.05C134.965 115.926 135.441 115.76 135.855 115.553C136.269 115.346 136.59 115.17 136.817 115.025C137.066 114.86 137.211 114.767 137.252 114.746C137.521 114.663 137.78 114.632 138.028 114.653C138.277 114.673 138.505 114.746 138.712 114.87C138.939 114.974 139.136 115.129 139.302 115.336C139.488 115.564 139.581 115.781 139.581 115.988C139.602 116.195 139.591 116.371 139.55 116.516C139.509 116.64 139.488 116.702 139.488 116.702C139.488 116.702 139.364 116.847 139.115 117.137C138.867 117.406 138.463 117.727 137.904 118.099C137.366 118.451 136.652 118.752 135.762 119C134.892 119.248 133.816 119.342 132.532 119.279ZM148.179 118.938C147.102 118.938 146.109 118.741 145.198 118.348C144.308 117.955 143.542 117.427 142.9 116.764C142.258 116.081 141.761 115.284 141.409 114.373C141.058 113.462 140.882 112.489 140.882 111.454C140.882 110.419 141.068 109.426 141.441 108.473C141.834 107.5 142.382 106.641 143.086 105.896C143.79 105.151 144.608 104.561 145.539 104.126C146.471 103.691 147.475 103.474 148.552 103.474C149.628 103.474 150.632 103.629 151.564 103.94C152.495 104.25 153.303 104.726 153.986 105.368C154.69 105.989 155.228 106.796 155.6 107.79C155.994 108.763 156.19 109.912 156.19 111.237C156.19 112.272 155.983 113.255 155.569 114.187C155.155 115.118 154.565 115.936 153.799 116.64C153.054 117.344 152.195 117.903 151.222 118.317C150.27 118.731 149.255 118.938 148.179 118.938ZM148.148 116.174C148.81 116.174 149.431 116.04 150.011 115.771C150.611 115.481 151.139 115.098 151.595 114.622C152.05 114.145 152.412 113.607 152.681 113.007C152.951 112.386 153.085 111.734 153.085 111.051C153.085 109.891 152.888 108.939 152.495 108.194C152.123 107.449 151.605 106.9 150.943 106.548C150.28 106.175 149.514 105.989 148.645 105.989C148.003 105.989 147.403 106.155 146.844 106.486C146.285 106.796 145.788 107.221 145.353 107.759C144.939 108.277 144.608 108.867 144.359 109.529C144.111 110.191 143.987 110.864 143.987 111.547C143.987 112.438 144.152 113.235 144.484 113.938C144.836 114.642 145.322 115.191 145.943 115.584C146.585 115.978 147.32 116.174 148.148 116.174ZM170.678 118.41C170.327 118.306 170.057 118.162 169.871 117.975C169.685 117.789 169.561 117.603 169.499 117.416C169.436 117.209 169.395 117.033 169.374 116.888C169.374 116.723 169.374 116.64 169.374 116.64C169.602 114.901 169.685 113.317 169.623 111.889C169.581 110.44 169.333 109.312 168.877 108.504C168.463 107.738 167.977 107.19 167.418 106.859C166.859 106.507 166.279 106.351 165.679 106.393C165.079 106.413 164.478 106.61 163.878 106.983C163.174 107.438 162.626 107.997 162.232 108.66C161.839 109.322 161.559 110.026 161.394 110.771C161.249 111.516 161.166 112.241 161.145 112.945C161.166 113.607 161.176 114.208 161.176 114.746C161.176 115.284 161.187 115.76 161.208 116.174C161.228 116.588 161.249 116.93 161.27 117.199C161.27 117.199 161.259 117.24 161.239 117.323C161.239 117.406 161.218 117.509 161.176 117.634C161.135 117.758 161.042 117.872 160.897 117.975C160.773 118.079 160.566 118.141 160.276 118.162C160.028 118.182 159.81 118.131 159.624 118.006C159.438 117.882 159.282 117.758 159.158 117.634C159.055 117.509 159.003 117.447 159.003 117.447C158.775 117.075 158.651 116.712 158.63 116.361C158.63 116.009 158.641 115.615 158.661 115.181C158.703 114.746 158.672 114.218 158.568 113.597C158.527 112.831 158.506 112.137 158.506 111.516C158.527 110.875 158.578 110.274 158.661 109.715C158.744 109.136 158.879 108.597 159.065 108.101C159.251 107.604 159.51 107.117 159.841 106.641C160.255 106.103 160.762 105.616 161.363 105.182C161.963 104.747 162.615 104.395 163.319 104.126C164.044 103.857 164.789 103.702 165.555 103.66C166.321 103.619 167.087 103.722 167.853 103.971C168.37 104.198 168.867 104.499 169.343 104.871C169.84 105.223 170.296 105.647 170.71 106.144C171.124 106.641 171.486 107.231 171.796 107.914C172.107 108.577 172.366 109.353 172.573 110.243C172.78 111.34 172.873 112.458 172.852 113.597C172.831 114.735 172.718 115.978 172.511 117.323C172.511 117.323 172.49 117.396 172.448 117.541C172.407 117.685 172.324 117.841 172.2 118.006C172.097 118.172 171.921 118.306 171.672 118.41C171.424 118.493 171.093 118.493 170.678 118.41ZM160.152 118.969C159.862 118.948 159.614 118.886 159.406 118.783C159.22 118.658 159.065 118.524 158.941 118.379C158.816 118.213 158.723 118.079 158.661 117.975C158.62 117.872 158.599 117.82 158.599 117.82C158.475 116.702 158.382 115.615 158.32 114.56C158.278 113.504 158.258 112.458 158.258 111.423C158.258 110.367 158.289 109.281 158.351 108.163C158.413 107.045 158.496 105.865 158.599 104.623C158.599 104.623 158.609 104.571 158.63 104.467C158.651 104.343 158.703 104.209 158.785 104.064C158.889 103.919 159.034 103.795 159.22 103.691C159.427 103.567 159.707 103.515 160.059 103.536C160.411 103.536 160.69 103.608 160.897 103.753C161.104 103.898 161.249 104.074 161.332 104.281C161.435 104.467 161.497 104.633 161.518 104.778C161.559 104.923 161.58 104.995 161.58 104.995C161.518 106.03 161.466 107.045 161.425 108.039C161.383 109.032 161.363 110.047 161.363 111.082C161.363 112.117 161.373 113.193 161.394 114.311C161.435 115.408 161.497 116.568 161.58 117.789C161.58 117.789 161.57 117.851 161.549 117.975C161.528 118.099 161.466 118.244 161.363 118.41C161.28 118.555 161.145 118.689 160.959 118.814C160.773 118.938 160.504 118.99 160.152 118.969ZM181.982 118.41C181.63 118.306 181.361 118.162 181.174 117.975C180.988 117.789 180.864 117.603 180.802 117.416C180.739 117.209 180.698 117.033 180.677 116.888C180.677 116.723 180.677 116.64 180.677 116.64C180.905 114.901 180.988 113.317 180.926 111.889C180.884 110.44 180.626 109.312 180.149 108.504C179.735 107.738 179.249 107.19 178.69 106.859C178.152 106.507 177.582 106.351 176.982 106.393C176.382 106.413 175.781 106.61 175.181 106.983C174.477 107.438 173.929 107.997 173.535 108.66C173.142 109.322 172.863 110.026 172.697 110.771C172.531 111.516 172.448 112.241 172.448 112.945C172.469 113.607 172.469 114.166 172.448 114.622C172.428 115.056 172.407 115.429 172.386 115.74C172.366 116.05 172.335 116.371 172.293 116.702C172.293 116.702 172.293 116.764 172.293 116.888C172.293 116.992 172.273 117.116 172.231 117.261C172.19 117.406 172.107 117.541 171.983 117.665C171.858 117.789 171.672 117.861 171.424 117.882C171.155 117.903 170.927 117.861 170.741 117.758C170.575 117.634 170.451 117.509 170.368 117.385C170.285 117.261 170.244 117.199 170.244 117.199C170.14 116.93 170.078 116.619 170.057 116.267C170.037 115.915 170.026 115.512 170.026 115.056C170.026 114.601 170.026 114.104 170.026 113.566C169.985 112.821 169.954 112.127 169.933 111.485C169.933 110.844 169.964 110.243 170.026 109.684C170.089 109.125 170.202 108.597 170.368 108.101C170.554 107.604 170.813 107.117 171.144 106.641C171.558 106.103 172.066 105.616 172.666 105.182C173.266 104.747 173.918 104.395 174.622 104.126C175.326 103.857 176.061 103.702 176.827 103.66C177.614 103.619 178.39 103.722 179.156 103.971C179.673 104.198 180.17 104.499 180.646 104.871C181.122 105.223 181.568 105.647 181.982 106.144C182.416 106.641 182.789 107.231 183.099 107.914C183.41 108.577 183.658 109.353 183.845 110.243C184.072 111.34 184.166 112.458 184.124 113.597C184.103 114.735 183.99 115.978 183.783 117.323C183.783 117.323 183.762 117.396 183.72 117.541C183.7 117.685 183.627 117.841 183.503 118.006C183.379 118.172 183.193 118.306 182.944 118.41C182.716 118.493 182.396 118.493 181.982 118.41Z" fill="#83D0EC"/>
<path d="M62.4002 14.4426L61.7737 13.2331L27.4476 14.2294L6.84839 41.6681L7.48684 42.9007L41.783 41.9055L62.4002 14.4426Z" fill="#83D0EC"/>
<path d="M20.6183 44.9674L24.7148 52.8761L45.3914 52.276L48.172 50.8357L60.5568 34.3388C60.5547 34.2957 60.5515 34.2533 60.5482 34.2105L56.4945 26.3844L43.032 44.3167L20.6183 44.9674Z" fill="#83D0EC"/>
<path d="M69.4013 35.0436L61.4319 19.6578L59.8268 21.8788L67.2287 36.1689L68.047 41.2149L71.6704 42.9707L72.3944 42.5956L73.0507 38.6231L69.4013 35.0436Z" fill="#83D0EC"/>
</svg>
