<svg width="303" height="100" viewBox="0 0 303 100" fill="none" xmlns="http://www.w3.org/2000/svg">
<path d="M27.0298 80.0672C26.3575 80.2017 25.7523 80.1793 25.2144 80C24.6765 79.8655 24.2282 79.6638 23.8696 79.3949C23.511 79.0811 23.2421 78.8121 23.0628 78.588C22.8835 78.3639 22.7938 78.2518 22.7938 78.2518C21.4939 75.7416 20.2163 73.6572 18.9612 71.9986C17.7061 70.2953 16.451 68.8608 15.1959 67.6954C13.9408 66.5299 12.6408 65.5662 11.2961 64.8041C9.99611 64.0421 8.60652 63.3697 7.12727 62.787L7.26175 55.9959C10.3547 55.1442 12.977 54.0011 15.1286 52.5667C17.2803 51.0875 19.0509 49.5186 20.4405 47.86C21.8301 46.1567 22.9059 44.4981 23.6679 42.8844C24.4748 41.2707 25.0127 39.8587 25.2816 38.6484C25.2816 38.6484 25.3265 38.5363 25.4161 38.3122C25.5506 38.0881 25.7523 37.8639 26.0213 37.6398C26.2902 37.3708 26.6488 37.1691 27.0971 37.0347C27.5453 36.8554 28.1281 36.8329 28.8453 36.9674C29.6073 37.1019 30.1676 37.3709 30.5262 37.7743C30.9297 38.1329 31.1762 38.5139 31.2659 38.9173C31.3555 39.3208 31.4003 39.6794 31.4003 39.9931C31.4003 40.2621 31.4003 40.3966 31.4003 40.3966C31.2659 42.1448 30.84 43.8706 30.1228 45.5739C29.4504 47.2773 28.5763 48.9134 27.5005 50.4823C26.4247 52.0064 25.192 53.4184 23.8024 54.7184C22.4128 55.9735 20.9336 57.0941 19.3647 58.0803C17.8406 59.0216 16.2941 59.7388 14.7252 60.2319C16.832 61.3077 18.8043 62.7421 20.6422 64.5352C22.5249 66.3282 24.2058 68.3005 25.6851 70.4521C27.1643 72.6038 28.3746 74.7778 29.3159 76.9743C29.3159 76.9743 29.3384 77.1087 29.3832 77.3777C29.428 77.6018 29.4056 77.9156 29.3159 78.319C29.2263 78.6776 29.0022 79.0362 28.6436 79.3949C28.3298 79.7086 27.7919 79.9328 27.0298 80.0672ZM7.06003 80C6.298 80 5.69285 79.8655 5.2446 79.5966C4.79634 79.2828 4.43773 78.9466 4.16878 78.588C3.94465 78.1846 3.78776 77.8484 3.69811 77.5794C3.60846 77.2656 3.56364 77.1087 3.56364 77.1087C3.38433 75.1812 3.22744 72.9848 3.09297 70.5194C3.00332 68.0092 2.93608 65.3644 2.89125 62.5853C2.89125 59.8061 2.91366 57.0269 2.95849 54.2477C3.00332 51.4237 3.09297 48.7117 3.22744 46.1118C3.36192 43.4671 3.51881 41.069 3.69811 38.9173C3.69811 38.9173 3.72053 38.7829 3.76535 38.5139C3.81018 38.2449 3.92224 37.9536 4.10154 37.6398C4.28085 37.326 4.57221 37.0571 4.97564 36.8329C5.4239 36.564 6.00663 36.4295 6.72384 36.4295C7.48588 36.4295 8.09102 36.564 8.53928 36.8329C8.98753 37.1019 9.32373 37.4381 9.54785 37.8415C9.81681 38.2001 9.99611 38.5587 10.0858 38.9173C10.1754 39.2759 10.2202 39.5897 10.2202 39.8587C10.2202 40.0828 10.2202 40.1949 10.2202 40.1949C10.0409 42.0327 9.90646 44.1619 9.81681 46.5825C9.72716 48.9583 9.65992 51.4909 9.61509 54.1805C9.61509 56.87 9.61509 59.6044 9.61509 62.3835C9.65992 65.1179 9.70474 67.785 9.74957 70.3849C9.83922 72.94 9.95128 75.2933 10.0858 77.4449C10.0858 77.4449 10.0633 77.5794 10.0185 77.8484C9.9737 78.1173 9.86163 78.4311 9.68233 78.7897C9.50303 79.1035 9.18925 79.3949 8.74099 79.6638C8.33756 79.8879 7.77724 80 7.06003 80ZM40.021 80C39.3038 80 38.7211 79.8655 38.2728 79.5966C37.8246 79.2828 37.466 78.9466 37.197 78.588C36.9729 78.1846 36.816 77.8484 36.7264 77.5794C36.6367 77.2656 36.5919 77.1087 36.5919 77.1087C36.4126 75.1812 36.2557 72.9848 36.1212 70.5194C36.0316 68.0092 35.9643 65.3644 35.9195 62.5853C35.9195 59.8061 35.9419 57.0269 35.9867 54.2477C36.0316 51.4237 36.1212 48.7117 36.2557 46.1118C36.3902 43.4671 36.5471 41.069 36.7264 38.9173C36.7264 38.9173 36.7488 38.8053 36.7936 38.5811C36.8384 38.3122 36.9505 38.0208 37.1298 37.707C37.3091 37.3484 37.6005 37.0571 38.0039 36.8329C38.4521 36.564 39.0349 36.4295 39.7521 36.4295C40.5141 36.4743 41.1193 36.6312 41.5675 36.9002C42.0158 37.1243 42.352 37.4381 42.5761 37.8415C42.845 38.2001 43.0243 38.5587 43.114 38.9173C43.2037 39.2759 43.2485 39.5897 43.2485 39.8587C43.2485 40.0828 43.2485 40.1949 43.2485 40.1949C43.0692 42.0327 42.9347 44.1619 42.845 46.5825C42.7554 48.9583 42.6882 51.4909 42.6433 54.1805C42.6433 56.87 42.6433 59.6044 42.6433 62.3835C42.6882 65.1179 42.733 67.785 42.7778 70.3849C42.8675 72.94 42.9795 75.2933 43.114 77.4449C43.114 77.4449 43.0916 77.5794 43.0468 77.8484C43.0019 78.1173 42.8899 78.4311 42.7106 78.7897C42.5313 79.1035 42.2175 79.3949 41.7692 79.6638C41.3658 79.8879 40.7831 80 40.021 80ZM69.5082 79.1931C67.0876 79.5069 64.7119 79.7535 62.381 79.9328C60.0949 80.1121 57.988 80.1345 56.0605 80C54.1779 79.9103 52.609 79.6414 51.3539 79.1931C50.0987 78.7001 49.3367 77.9604 49.0678 76.9743C48.8884 75.0468 48.7316 72.8503 48.5971 70.3849C48.5074 67.8747 48.4402 65.2524 48.3954 62.518C48.3954 59.7837 48.4178 57.0269 48.4626 54.2477C48.5074 51.4237 48.5971 48.7117 48.7316 46.1118C48.866 43.512 49.0229 41.1362 49.2022 38.9846C49.2471 38.5811 49.3815 38.1777 49.6057 37.7743C49.8298 37.3709 50.1884 37.0347 50.6815 36.7657C51.1746 36.4968 51.8469 36.3623 52.6986 36.3623L67.4238 36.4295C69.3962 36.6985 71.2116 37.2364 72.8701 38.0432C74.5287 38.8053 75.9631 39.7914 77.1734 41.0017C78.3837 42.212 79.2802 43.5792 79.8629 45.1033C80.3112 46.4032 80.4905 47.6807 80.4009 48.9359C80.3112 50.1461 79.975 51.2892 79.3923 52.365C78.8095 53.396 78.0027 54.3373 76.9717 55.189C75.9855 56.0407 74.8201 56.7579 73.4753 57.3407C74.8649 57.9682 76.0752 58.8423 77.1062 59.963C78.1372 61.0388 78.9664 62.2491 79.594 63.5938C80.2215 64.8938 80.5802 66.261 80.6698 67.6954C80.625 69.5332 80.1991 71.2142 79.3923 72.7383C78.5854 74.2175 77.3751 75.495 75.7614 76.5708C74.1477 77.6467 72.0633 78.5208 69.5082 79.1931ZM55.5226 74.1503C57.6743 74.1503 59.7138 74.1278 61.6413 74.083C63.6137 73.9934 65.3843 73.7917 66.9532 73.4779C68.5221 73.1193 69.822 72.6038 70.853 71.9314C73.3632 70.0487 74.2149 67.9195 73.4081 65.5437C73.0046 64.2886 72.3547 63.3025 71.4581 62.5853C70.5616 61.868 69.5306 61.3301 68.3652 60.9715C67.2445 60.6129 66.0567 60.3888 64.8015 60.2991L55.1864 60.4336C55.1416 62.7197 55.1416 65.0058 55.1864 67.2919C55.2761 69.578 55.3882 71.8642 55.5226 74.1503ZM55.3209 53.6425C57.5174 53.777 59.669 53.7994 61.7758 53.7098C63.9274 53.5753 66.0791 53.3064 68.2307 52.9029C69.7548 52.365 70.9651 51.6702 71.8616 50.8185C72.8029 49.9668 73.296 48.8686 73.3408 47.5239C73.2063 46.0446 72.5788 44.8119 71.4581 43.8257C70.3375 42.8396 68.6341 42.1448 66.348 41.7413C65.7205 41.6517 64.8464 41.5845 63.7257 41.5396C62.6051 41.4948 61.35 41.4724 59.9604 41.4724C58.6156 41.4276 57.226 41.4052 55.7916 41.4052L55.3209 53.6425ZM89.8589 79.5966C89.052 79.5966 88.4245 79.4397 87.9762 79.1259C87.5279 78.7673 87.1693 78.3863 86.9004 77.9828C86.6314 77.5346 86.4521 77.1536 86.3625 76.8398C86.3177 76.526 86.2952 76.3691 86.2952 76.3691C86.1608 74.6658 86.0487 72.6486 85.959 70.3177C85.8694 67.9867 85.8022 65.4765 85.7573 62.787C85.7573 60.0526 85.7797 57.2958 85.8246 54.5166C85.8694 51.6926 85.959 48.9583 86.0935 46.3136C86.228 43.6688 86.3849 41.2707 86.5642 39.119C86.5642 39.119 86.5642 39.007 86.5642 38.7829C86.609 38.5139 86.7211 38.2225 86.9004 37.9088C87.0797 37.5502 87.3711 37.2364 87.7745 36.9674C88.2227 36.6536 88.8279 36.4519 89.5899 36.3623C95.1483 35.914 99.8102 35.9364 103.576 36.4295C107.341 36.8778 110.299 38.1777 112.451 40.3293C114.603 42.4361 115.992 44.7447 116.62 47.2549C117.247 49.7203 117.158 52.1409 116.351 54.5166C115.589 56.8476 114.132 58.9544 111.98 60.8371C111.084 61.6439 109.918 62.3835 108.484 63.0559C107.049 63.7283 105.458 64.2886 103.71 64.7369C101.962 65.1851 100.124 65.4989 98.1964 65.6782C96.3138 65.8127 94.4311 65.7455 92.5484 65.4765L92.8174 77.0415C92.8174 77.0415 92.795 77.176 92.7501 77.4449C92.7053 77.7139 92.5932 78.0277 92.4139 78.3863C92.2346 78.7001 91.9433 78.9914 91.5398 79.2604C91.1364 79.5293 90.5761 79.6414 89.8589 79.5966ZM109.829 77.1087C107.946 75.8985 105.974 74.733 103.912 73.6124C101.85 72.4469 99.6757 71.259 97.3896 70.0487C95.1035 68.8384 92.6381 67.5609 89.9934 66.2161C89.9934 65.9472 90.1727 65.6782 90.5313 65.4093C90.8899 65.0955 91.3381 64.8265 91.876 64.6024C92.4588 64.3335 93.0191 64.0869 93.557 63.8628C94.1397 63.6387 94.6104 63.4818 94.969 63.3921C95.3724 63.2576 95.5741 63.1904 95.5741 63.1904C96.8741 63.7283 98.0844 64.2438 99.205 64.7369C100.326 65.23 101.424 65.7455 102.5 66.2834C103.576 66.7764 104.674 67.3368 105.794 67.9643C106.96 68.5471 108.17 69.2419 109.425 70.0487C110.725 70.8108 112.16 71.7073 113.729 72.7383C113.729 72.7383 113.796 72.8055 113.93 72.94C114.065 73.0744 114.199 73.2762 114.334 73.5451C114.513 73.8141 114.625 74.1278 114.67 74.4865C114.759 74.8002 114.759 75.1588 114.67 75.5623C114.625 75.9657 114.401 76.3915 113.997 76.8398C113.729 77.2432 113.347 77.4898 112.854 77.5794C112.406 77.6691 111.935 77.6915 111.442 77.6467C110.994 77.557 110.613 77.4449 110.299 77.3105C109.986 77.176 109.829 77.1087 109.829 77.1087ZM92.5484 59.0889C95.6862 59.313 98.3085 59.1785 100.415 58.6854C102.567 58.1475 104.27 57.4079 105.525 56.4666C106.825 55.5252 107.767 54.4942 108.349 53.3736C108.977 52.253 109.358 51.1547 109.492 50.0789C109.492 48.1514 109.022 46.6049 108.08 45.4395C107.184 44.274 105.951 43.3775 104.382 42.7499C102.858 42.1224 101.088 41.7189 99.0705 41.5396C97.0982 41.3603 95.0811 41.3155 93.0191 41.4052C92.7501 44.3188 92.5708 47.2997 92.4812 50.3479C92.3915 53.396 92.4139 56.3097 92.5484 59.0889ZM125.645 80C124.928 80 124.345 79.8655 123.897 79.5966C123.448 79.2828 123.09 78.9466 122.821 78.588C122.597 78.1846 122.44 77.8484 122.35 77.5794C122.261 77.2656 122.216 77.1087 122.216 77.1087C122.036 75.1812 121.88 72.9848 121.745 70.5194C121.655 68.0092 121.588 65.3644 121.543 62.5853C121.543 59.8061 121.566 57.0269 121.611 54.2477C121.655 51.4237 121.745 48.7117 121.88 46.1118C122.014 43.4671 122.171 41.069 122.35 38.9173C122.35 38.9173 122.373 38.8053 122.417 38.5811C122.462 38.3122 122.574 38.0208 122.754 37.707C122.933 37.3484 123.224 37.0571 123.628 36.8329C124.076 36.564 124.659 36.4295 125.376 36.4295C126.138 36.4743 126.743 36.6312 127.191 36.9002C127.64 37.1243 127.976 37.4381 128.2 37.8415C128.469 38.2001 128.648 38.5587 128.738 38.9173C128.828 39.2759 128.872 39.5897 128.872 39.8587C128.872 40.0828 128.872 40.1949 128.872 40.1949C128.693 42.0327 128.559 44.1619 128.469 46.5825C128.379 48.9583 128.312 51.4909 128.267 54.1805C128.267 56.87 128.267 59.6044 128.267 62.3835C128.312 65.1179 128.357 67.785 128.402 70.3849C128.491 72.94 128.603 75.2933 128.738 77.4449C128.738 77.4449 128.715 77.5794 128.671 77.8484C128.626 78.1173 128.514 78.4311 128.334 78.7897C128.155 79.1035 127.841 79.3949 127.393 79.6638C126.99 79.8879 126.407 80 125.645 80ZM149.903 79.731C147.662 79.8655 145.622 79.8207 143.785 79.5966C141.992 79.3276 140.467 78.9914 139.212 78.588C137.957 78.1846 136.994 77.826 136.321 77.5122C135.649 77.1536 135.313 76.9743 135.313 76.9743C135.313 76.9743 135.223 76.9294 135.044 76.8398C134.864 76.7053 134.64 76.526 134.371 76.3019C134.147 76.0778 133.923 75.8088 133.699 75.495C133.52 75.1812 133.407 74.8226 133.363 74.4192C133.363 74.0158 133.475 73.6124 133.699 73.2089C133.968 72.7158 134.282 72.3796 134.64 72.2003C134.999 71.9762 135.357 71.8642 135.716 71.8642C136.075 71.8193 136.366 71.8417 136.59 71.9314C136.859 71.9762 136.994 71.9986 136.994 71.9986C138.742 72.7158 140.557 73.2313 142.44 73.5451C144.323 73.8589 146.093 73.971 147.752 73.8813C149.41 73.7468 150.8 73.3658 151.92 72.7383C153.086 72.1107 153.803 71.1918 154.072 69.9815C154.296 68.8608 154.139 67.8747 153.601 67.023C153.108 66.1265 152.346 65.3196 151.315 64.6024C150.284 63.8852 149.096 63.2352 147.752 62.6525C146.452 62.0249 145.152 61.4422 143.852 60.9043C143 60.5457 142.081 60.0526 141.095 59.425C140.109 58.7975 139.168 58.0355 138.271 57.1389C137.419 56.2424 136.68 55.2563 136.052 54.1805C135.425 53.0598 135.021 51.8719 134.842 50.6168C134.663 49.3169 134.775 47.9497 135.178 46.5153C135.626 45.0809 136.5 43.6016 137.8 42.0775C139.1 40.5086 140.467 39.3208 141.902 38.5139C143.381 37.6622 144.86 37.0571 146.34 36.6985C147.819 36.3399 149.208 36.1606 150.508 36.1606C151.853 36.1606 153.041 36.2502 154.072 36.4295C155.148 36.6088 155.977 36.7881 156.56 36.9674C157.187 37.1467 157.501 37.2364 157.501 37.2364C157.501 37.2364 157.613 37.2812 157.837 37.3709C158.106 37.4605 158.42 37.6174 158.779 37.8415C159.137 38.0656 159.496 38.3346 159.855 38.6484C160.213 38.9173 160.482 39.2759 160.661 39.7242C160.841 40.1276 160.886 40.5983 160.796 41.1362C160.661 41.7189 160.392 42.1672 159.989 42.481C159.63 42.7499 159.227 42.9068 158.779 42.9516C158.375 42.9965 158.017 43.0189 157.703 43.0189C157.389 42.9741 157.232 42.9516 157.232 42.9516C154.991 42.2793 152.884 42.1224 150.912 42.481C148.94 42.7947 147.214 43.4447 145.735 44.4309C144.3 45.417 143.202 46.5601 142.44 47.86C141.723 49.1152 141.543 50.3254 141.902 51.4909C142.171 52.4771 142.798 53.3512 143.785 54.1132C144.816 54.8304 146.026 55.5252 147.415 56.1976C148.85 56.8252 150.329 57.4975 151.853 58.2148C153.377 58.8871 154.789 59.6716 156.089 60.5681C157.389 61.4198 158.42 62.4508 159.182 63.6611C160.213 65.3196 160.818 66.9109 160.998 68.435C161.177 69.9591 161.02 71.3935 160.527 72.7383C160.034 74.0382 159.272 75.1812 158.241 76.1674C157.21 77.1536 155.977 77.9604 154.543 78.588C153.108 79.2156 151.562 79.5966 149.903 79.731ZM184.028 80.4707C181.204 80.4707 178.626 79.9552 176.295 78.9242C173.964 77.8932 171.97 76.4588 170.311 74.6209C168.653 72.7383 167.398 70.5418 166.546 68.0316C165.739 65.4765 165.425 62.6749 165.605 59.6268C165.739 56.5786 166.344 53.6425 167.42 50.8185C168.541 47.9945 170.042 45.4619 171.925 43.2206C173.808 40.9793 175.982 39.2087 178.447 37.9088C180.957 36.564 183.692 35.8916 186.65 35.8916C188.891 35.8916 191.178 36.1381 193.508 36.6312C195.839 37.1243 198.036 37.9312 200.098 39.0518C202.205 40.1276 204.065 41.5845 205.679 43.4223C207.292 45.2153 208.525 47.4118 209.377 50.0117C210.228 52.6116 210.565 55.6597 210.385 59.1561C210.251 62.0249 209.623 64.6024 208.503 66.8885C207.382 69.1298 205.903 71.1021 204.065 72.8055C202.272 74.5089 200.232 75.9433 197.946 77.1087C195.705 78.2294 193.374 79.0811 190.953 79.6638C188.578 80.2017 186.269 80.4707 184.028 80.4707ZM193.508 88.9427C192.791 89.122 192.164 89.122 191.626 88.9427C191.088 88.7634 190.617 88.5169 190.214 88.2031C189.81 87.9341 189.519 87.6652 189.34 87.3962C189.16 87.1721 189.071 87.06 189.071 87.06C188.085 84.4153 187.21 81.9499 186.448 79.6638C185.686 77.3329 185.036 75.0916 184.499 72.94C183.961 70.7883 183.49 68.6367 183.087 66.4851C183.087 66.4851 183.087 66.3506 183.087 66.0816C183.087 65.8127 183.131 65.4989 183.221 65.1403C183.311 64.7817 183.468 64.4455 183.692 64.1317C183.916 63.818 184.274 63.6387 184.767 63.5938C185.44 63.4594 186 63.549 186.448 63.8628C186.897 64.1766 187.233 64.5128 187.457 64.8714C187.726 65.1851 187.86 65.342 187.86 65.342C188.488 67.0006 189.205 68.9057 190.012 71.0573C190.864 73.1641 191.738 75.4278 192.634 77.8484C193.576 80.269 194.495 82.7792 195.391 85.3791C195.391 85.3791 195.414 85.5135 195.458 85.7825C195.548 86.0963 195.57 86.4549 195.526 86.8583C195.481 87.2617 195.301 87.6428 194.988 88.0014C194.719 88.4048 194.226 88.7186 193.508 88.9427ZM185.373 73.9485C186.942 73.9485 188.533 73.7468 190.147 73.3434C191.76 72.8951 193.284 72.2676 194.719 71.4607C196.198 70.609 197.543 69.5556 198.753 68.3005C199.963 67.0006 200.927 65.4989 201.644 63.7955C202.406 62.0922 202.832 60.1647 202.922 58.013C203.101 55.0994 202.765 52.634 201.913 50.6168C201.106 48.5997 199.941 47.0084 198.417 45.8429C196.938 44.6326 195.257 43.7585 193.374 43.2206C191.536 42.6379 189.631 42.3465 187.659 42.3465C185.731 42.3465 183.893 42.7947 182.145 43.6913C180.442 44.5878 178.918 45.8205 177.573 47.3894C176.228 48.9583 175.152 50.7737 174.346 52.8357C173.583 54.8528 173.135 57.0045 173.001 59.2906C172.866 62.3387 173.292 64.961 174.278 67.1575C175.264 69.3539 176.721 71.0349 178.649 72.2003C180.576 73.3658 182.818 73.9485 185.373 73.9485ZM234.452 80.2017C230.597 79.9328 227.347 78.8569 224.702 76.9743C222.058 75.0468 220.018 72.29 218.584 68.7039C217.149 65.1179 216.342 60.6802 216.163 55.3907V38.5811C216.163 38.5811 216.185 38.4691 216.23 38.2449C216.32 38.0208 216.432 37.7743 216.566 37.5053C216.746 37.1915 217.037 36.9226 217.441 36.6985C217.844 36.4743 218.382 36.3623 219.054 36.3623C219.951 36.3623 220.646 36.5192 221.139 36.8329C221.677 37.1019 222.08 37.4381 222.349 37.8415C222.618 38.2449 222.797 38.6036 222.887 38.9173C222.977 39.1863 223.021 39.3208 223.021 39.3208L223.29 55.0546C223.246 58.8647 223.604 62.1594 224.366 64.9386C225.128 67.673 226.316 69.8022 227.93 71.3262C229.588 72.8503 231.673 73.7692 234.183 74.083C236.29 73.7692 238.083 72.94 239.562 71.5952C241.086 70.2056 242.229 68.0764 242.991 65.2076C243.798 62.3387 244.179 58.5509 244.134 53.8443L243.933 39.5225C243.933 39.5225 243.933 39.388 243.933 39.119C243.933 38.8501 244 38.5587 244.134 38.2449C244.314 37.9312 244.605 37.6398 245.008 37.3709C245.412 37.1019 245.994 36.9674 246.757 36.9674C247.519 36.9674 248.146 37.1019 248.639 37.3709C249.177 37.595 249.581 37.9088 249.849 38.3122C250.163 38.6708 250.387 39.0518 250.522 39.4552C250.701 39.8138 250.813 40.1276 250.858 40.3966C250.903 40.6655 250.925 40.8 250.925 40.8L251.262 54.5839C251.351 58.0355 251.149 61.2853 250.656 64.3335C250.163 67.3368 249.289 70.0263 248.034 72.4021C246.824 74.733 245.098 76.5933 242.857 77.9828C240.66 79.3276 237.859 80.0672 234.452 80.2017ZM260.516 80C259.799 80 259.216 79.8655 258.768 79.5966C258.319 79.2828 257.961 78.9466 257.692 78.588C257.468 78.1846 257.311 77.8484 257.221 77.5794C257.131 77.2656 257.087 77.1087 257.087 77.1087C256.907 75.1812 256.75 72.9848 256.616 70.5194C256.526 68.0092 256.459 65.3644 256.414 62.5853C256.414 59.8061 256.437 57.0269 256.481 54.2477C256.526 51.4237 256.616 48.7117 256.75 46.1118C256.885 43.4671 257.042 41.069 257.221 38.9173C257.221 38.9173 257.243 38.8053 257.288 38.5811C257.333 38.3122 257.445 38.0208 257.624 37.707C257.804 37.3484 258.095 37.0571 258.499 36.8329C258.947 36.564 259.53 36.4295 260.247 36.4295C261.009 36.4743 261.614 36.6312 262.062 36.9002C262.51 37.1243 262.847 37.4381 263.071 37.8415C263.34 38.2001 263.519 38.5587 263.609 38.9173C263.698 39.2759 263.743 39.5897 263.743 39.8587C263.743 40.0828 263.743 40.1949 263.743 40.1949C263.564 42.0327 263.429 44.1619 263.34 46.5825C263.25 48.9583 263.183 51.4909 263.138 54.1805C263.138 56.87 263.138 59.6044 263.138 62.3835C263.183 65.1179 263.228 67.785 263.272 70.3849C263.362 72.94 263.474 75.2933 263.609 77.4449C263.609 77.4449 263.586 77.5794 263.541 77.8484C263.497 78.1173 263.385 78.4311 263.205 78.7897C263.026 79.1035 262.712 79.3949 262.264 79.6638C261.86 79.8879 261.278 80 260.516 80ZM274.336 80C273.888 80.0448 273.395 80.0224 272.857 79.9328C272.364 79.7983 271.916 79.5966 271.512 79.3276C271.109 79.0138 270.773 78.6552 270.504 78.2518C270.235 77.8484 270.1 77.3777 270.1 76.8398C270.145 76.3019 270.347 75.7416 270.705 75.1588C272.274 72.9176 273.821 70.6539 275.345 68.3678C276.869 66.0368 278.438 63.6162 280.052 61.106C281.71 58.5509 283.414 55.839 285.162 52.9702C286.955 50.1013 288.882 47.0084 290.944 43.6913C288.569 42.5706 285.857 42.0775 282.808 42.212C279.805 42.3017 276.622 42.7499 273.261 43.5568C273.261 43.5568 273.104 43.5792 272.79 43.624C272.521 43.624 272.162 43.624 271.714 43.624C271.311 43.5792 270.885 43.4671 270.437 43.2878C270.033 43.0637 269.719 42.7275 269.495 42.2793C269.181 41.7413 269.002 41.2707 268.957 40.8672C268.912 40.4638 268.957 40.1276 269.092 39.8587C269.271 39.5897 269.473 39.3656 269.697 39.1863C269.921 39.007 270.1 38.8949 270.235 38.8501C270.414 38.7604 270.504 38.7156 270.504 38.7156C274.314 37.3708 278.236 36.6312 282.271 36.4968C286.305 36.3623 290.317 36.8105 294.306 37.8415C295.113 38.2001 295.83 38.6484 296.458 39.1863C297.085 39.7242 297.578 40.3742 297.937 41.1362C298.34 41.8534 298.542 42.6603 298.542 43.5568C298.587 44.4533 298.385 45.417 297.937 46.448C296.861 48.3307 295.785 50.1461 294.71 51.8943C293.634 53.6425 292.536 55.3907 291.415 57.1389C290.339 58.8423 289.196 60.5905 287.986 62.3835C286.82 64.1317 285.565 65.9696 284.22 67.8971C282.92 69.7798 281.486 71.7969 279.917 73.9485L295.92 73.1417C295.92 73.1417 296.077 73.1641 296.391 73.2089C296.749 73.2537 297.153 73.3658 297.601 73.5451C298.094 73.6796 298.52 73.9261 298.878 74.2847C299.282 74.5985 299.506 75.0692 299.551 75.6967C299.64 76.3691 299.573 76.907 299.349 77.3105C299.17 77.7139 298.923 78.0277 298.609 78.2518C298.296 78.4311 298.004 78.5432 297.735 78.588C297.511 78.6328 297.399 78.6552 297.399 78.6552L274.336 80Z" fill="#83D0EC"/>
<path d="M38.7432 10.1887V9.33548L19.3631 0L0 9.32723L0 10.1968L19.3631 19.5243L38.7432 10.1887Z" fill="#83D0EC"/>
<path d="M6.70857 15.1297V20.709L18.3823 26.3323H20.3439L31.9856 20.7244C31.9968 20.6999 32.0073 20.6754 32.0177 20.6506V15.1296L19.3631 21.2254L6.70857 15.1297Z" fill="#83D0EC"/>
<path d="M36.702 23.6646V12.8105L35.1694 13.5835V23.6646L34.1707 26.707L35.6803 28.7276H36.1911L37.7006 26.707L36.702 23.6646Z" fill="#83D0EC"/>
</svg>
