<svg width="37" height="37" viewBox="0 0 37 37" fill="none" xmlns="http://www.w3.org/2000/svg">
<path d="M1 5.77273C1 3.13682 3.13682 1 5.77273 1H10.5455C13.1814 1 15.3182 3.13682 15.3182 5.77273V10.5455C15.3182 13.1814 13.1814 15.3182 10.5455 15.3182H5.77273C3.13682 15.3182 1 13.1814 1 10.5455V5.77273Z" fill="#626262"/>
<path d="M1 26.4545C1 23.8186 3.13682 21.6818 5.77273 21.6818H10.5455C13.1814 21.6818 15.3182 23.8186 15.3182 26.4545V31.2273C15.3182 33.8632 13.1814 36 10.5455 36H5.77273C3.13682 36 1 33.8632 1 31.2273V26.4545Z" fill="#626262"/>
<path d="M21.6818 5.77273C21.6818 3.13682 23.8186 1 26.4545 1H31.2273C33.8632 1 36 3.13682 36 5.77273V10.5455C36 13.1814 33.8632 15.3182 31.2273 15.3182H26.4545C23.8186 15.3182 21.6818 13.1814 21.6818 10.5455V5.77273Z" fill="#626262"/>
<path d="M21.6818 26.4545C21.6818 23.8186 23.8186 21.6818 26.4545 21.6818H31.2273C33.8632 21.6818 36 23.8186 36 26.4545V31.2273C36 33.8632 33.8632 36 31.2273 36H26.4545C23.8186 36 21.6818 33.8632 21.6818 31.2273V26.4545Z" fill="#626262"/>
<path d="M1 5.77273C1 3.13682 3.13682 1 5.77273 1H10.5455C13.1814 1 15.3182 3.13682 15.3182 5.77273V10.5455C15.3182 13.1814 13.1814 15.3182 10.5455 15.3182H5.77273C3.13682 15.3182 1 13.1814 1 10.5455V5.77273Z" stroke="#626262" stroke-width="2" stroke-linecap="round" stroke-linejoin="round"/>
<path d="M1 26.4545C1 23.8186 3.13682 21.6818 5.77273 21.6818H10.5455C13.1814 21.6818 15.3182 23.8186 15.3182 26.4545V31.2273C15.3182 33.8632 13.1814 36 10.5455 36H5.77273C3.13682 36 1 33.8632 1 31.2273V26.4545Z" stroke="#626262" stroke-width="2" stroke-linecap="round" stroke-linejoin="round"/>
<path d="M21.6818 5.77273C21.6818 3.13682 23.8186 1 26.4545 1H31.2273C33.8632 1 36 3.13682 36 5.77273V10.5455C36 13.1814 33.8632 15.3182 31.2273 15.3182H26.4545C23.8186 15.3182 21.6818 13.1814 21.6818 10.5455V5.77273Z" stroke="#626262" stroke-width="2" stroke-linecap="round" stroke-linejoin="round"/>
<path d="M21.6818 26.4545C21.6818 23.8186 23.8186 21.6818 26.4545 21.6818H31.2273C33.8632 21.6818 36 23.8186 36 26.4545V31.2273C36 33.8632 33.8632 36 31.2273 36H26.4545C23.8186 36 21.6818 33.8632 21.6818 31.2273V26.4545Z" stroke="#626262" stroke-width="2" stroke-linecap="round" stroke-linejoin="round"/>
</svg>
