<svg width="37" height="29" viewBox="0 0 37 29" fill="none" xmlns="http://www.w3.org/2000/svg">
<path d="M1 5.03846C1 2.80808 2.80808 1 5.03846 1H31.9615C34.1919 1 36 2.80808 36 5.03846V23.8846C36 26.115 34.1919 27.9231 31.9615 27.9231H5.03846C2.80808 27.9231 1 26.115 1 23.8846V5.03846Z" fill="#626262"/>
<path d="M36 5.03846V23.8846C36 26.115 34.1919 27.9231 31.9615 27.9231H5.03846C2.80808 27.9231 1 26.115 1 23.8846V5.03846M36 5.03846C36 2.80808 34.1919 1 31.9615 1H5.03846C2.80808 1 1 2.80808 1 5.03846M36 5.03846V5.4741C36 6.8765 35.2725 8.17849 34.0781 8.91349L20.6165 17.1975C19.3186 17.9963 17.6814 17.9963 16.3835 17.1975L2.92191 8.91349C1.72755 8.17849 1 6.8765 1 5.4741V5.03846" stroke="#F7F7F7" stroke-width="2" stroke-linecap="round" stroke-linejoin="round"/>
</svg>
