<svg width="37" height="37" viewBox="0 0 37 37" fill="none" xmlns="http://www.w3.org/2000/svg">
<path fill-rule="evenodd" clip-rule="evenodd" d="M16.9532 1.6407C17.8075 0.786433 19.1925 0.786433 20.0468 1.6407L35.3592 16.9531C35.9849 17.5788 36.172 18.5196 35.8334 19.3371C35.4948 20.1545 34.6972 20.6874 33.8124 20.6874H31.625V33.8124C31.625 35.0205 30.6456 35.9999 29.4375 35.9999H25.0625C23.8544 35.9999 22.875 35.0205 22.875 33.8124V27.2499C22.875 26.0418 21.8956 25.0624 20.6875 25.0624H16.3125C15.1044 25.0624 14.125 26.0418 14.125 27.2499V33.8124C14.125 35.0205 13.1456 35.9999 11.9375 35.9999H7.56254C6.35442 35.9999 5.37505 35.0205 5.37505 33.8124V20.6874H3.18756C2.3028 20.6874 1.50516 20.1545 1.16658 19.3371C0.827995 18.5196 1.01515 17.5788 1.64077 16.9531L16.9532 1.6407Z" fill="#626262" stroke="#626262" stroke-width="2" stroke-linecap="round" stroke-linejoin="round"/>
</svg>
