<svg width="37" height="38" viewBox="0 0 37 38" fill="none" xmlns="http://www.w3.org/2000/svg">
<path d="M4.92152 36.304C4.92152 33.3044 7.35323 30.8726 10.3529 30.8726H26.6471C29.6467 30.8726 32.0785 33.3044 32.0785 36.304H4.92152Z" fill="#626262"/>
<path d="M10.3529 24.7623C10.3529 23.6375 11.2648 22.7256 12.3897 22.7256H13.9677H23.0322H24.6103C25.7352 22.7256 26.6471 23.6375 26.6471 24.7623V30.8726H10.3529V24.7623Z" fill="#626262"/>
<path d="M18.5 17.2942C19.4475 17.2942 20.3698 17.1863 21.2554 16.9823C23.1112 16.5546 24.8054 15.7043 26.2313 14.5382C28.9715 12.2971 30.7206 8.8896 30.7206 5.07354V4.59623V1.85253C26.7278 1.29059 22.6478 1 18.5 1C14.3522 1 10.2722 1.29059 6.27936 1.85253V4.59623V5.07354C6.27936 8.8896 8.02846 12.2971 10.7687 14.5382C12.1946 15.7043 13.8888 16.5546 15.7446 16.9823C16.6301 17.1863 17.5525 17.2942 18.5 17.2942Z" fill="#626262"/>
<path d="M26.6471 30.8726H10.3529M26.6471 30.8726C29.6467 30.8726 32.0785 33.3044 32.0785 36.304H4.92152C4.92152 33.3044 7.35323 30.8726 10.3529 30.8726M26.6471 30.8726V24.7623C26.6471 23.6375 25.7352 22.7256 24.6103 22.7256H23.0322M10.3529 30.8726V24.7623C10.3529 23.6375 11.2648 22.7256 12.3897 22.7256H13.9677M23.0322 22.7256H13.9677M23.0322 22.7256C22.0413 21.0125 21.4139 19.063 21.2554 16.9823M13.9677 22.7256C14.9587 21.0125 15.5861 19.063 15.7446 16.9823M6.27936 4.59623C4.50095 4.85484 2.74055 5.16905 1 5.53704C1.81527 10.3664 5.81756 14.1129 10.7687 14.5382M6.27936 4.59623V5.07354C6.27936 8.8896 8.02846 12.2971 10.7687 14.5382M6.27936 4.59623V1.85253C10.2722 1.29059 14.3522 1 18.5 1C22.6478 1 26.7278 1.29059 30.7206 1.85253V4.59623M10.7687 14.5382C12.1946 15.7043 13.8888 16.5546 15.7446 16.9823M30.7206 4.59623V5.07354C30.7206 8.8896 28.9715 12.2971 26.2313 14.5382M30.7206 4.59623C32.499 4.85484 34.2594 5.16905 36 5.53704C35.1847 10.3664 31.1824 14.1129 26.2313 14.5382M26.2313 14.5382C24.8054 15.7043 23.1112 16.5546 21.2554 16.9823M21.2554 16.9823C20.3698 17.1863 19.4475 17.2942 18.5 17.2942C17.5525 17.2942 16.6301 17.1863 15.7446 16.9823" stroke="#626262" stroke-width="2" stroke-linecap="round" stroke-linejoin="round"/>
</svg>
