<svg width="35" height="33" viewBox="0 0 35 33" fill="none" xmlns="http://www.w3.org/2000/svg">
<path d="M12.6724 2.41379C11.006 2.41379 9.65517 3.76466 9.65517 5.43104C9.65517 7.09741 11.006 8.44828 12.6724 8.44828H15.6897V15.6897H3.01724C1.35087 15.6897 0 14.3388 0 12.6724V11.4655C0 9.79914 1.35087 8.44828 3.01724 8.44828H8.15593C7.57827 7.58529 7.24138 6.5475 7.24138 5.43104C7.24138 2.43156 9.67294 0 12.6724 0C14.3785 0 15.9009 0.786697 16.8966 2.01713C17.8922 0.786697 19.4146 0 21.1207 0C24.1202 0 26.5517 2.43156 26.5517 5.43104C26.5517 6.5475 26.2148 7.58529 25.6372 8.44828H31.9828C33.6491 8.44828 35 9.79914 35 11.4655V12.6724C35 14.3388 33.6491 15.6897 31.9828 15.6897H18.1034V8.44828H21.1207C22.7871 8.44828 24.1379 7.09741 24.1379 5.43104C24.1379 3.76466 22.7871 2.41379 21.1207 2.41379C19.4543 2.41379 18.1034 3.76466 18.1034 5.43104V8.44828H15.6897V5.43104C15.6897 3.76466 14.3388 2.41379 12.6724 2.41379Z" fill="#626262"/>
<path d="M15.6897 18.1035H2.41379V28.9655C2.41379 30.9652 4.03483 32.5862 6.03448 32.5862H15.6897V18.1035Z" fill="#626262"/>
<path d="M18.1034 18.1035V32.5862H28.9655C30.9652 32.5862 32.5862 30.9652 32.5862 28.9655V18.1035H18.1034Z" fill="#626262"/>
</svg>
