<svg width="40" height="41" viewBox="0 0 40 41" fill="none" xmlns="http://www.w3.org/2000/svg">
<path d="M25.3195 9.41008C25.3195 8.69031 25.6966 8.03972 26.1326 7.46707C26.5803 6.87915 26.8395 6.18178 26.8395 5.43396C26.8395 3.33532 24.798 1.63403 22.2796 1.63403C19.7612 1.63403 17.7197 3.33532 17.7197 5.43396C17.7197 6.18178 17.9789 6.87915 18.4266 7.46707C18.8626 8.03972 19.2397 8.69031 19.2397 9.41008C19.2397 10.1423 18.6401 10.7335 17.9082 10.7124C15.0636 10.6305 12.2495 10.4265 9.47109 10.1053C9.84878 13.3738 10.0645 16.6916 10.1099 20.0505C10.12 20.7922 9.51777 21.3936 8.77604 21.3937C8.05628 21.3937 7.40569 21.0166 6.83303 20.5806C6.24512 20.1329 5.54775 19.8737 4.79993 19.8737C2.70129 19.8737 1 21.9152 1 24.4336C1 26.952 2.70129 28.9935 4.79993 28.9935C5.54775 28.9935 6.24512 28.7343 6.83303 28.2866C7.40569 27.8506 8.05628 27.4735 8.77604 27.4735C9.40266 27.4735 9.90007 28.002 9.85413 28.627C9.5991 32.0966 9.16208 35.5156 8.55259 38.8746C11.6288 39.2597 14.7497 39.5013 17.9083 39.5922C18.6403 39.6133 19.2399 39.0219 19.2399 38.2896C19.2399 37.5699 18.8628 36.9193 18.4268 36.3466C17.9791 35.7587 17.7199 35.0613 17.7199 34.3135C17.7199 32.2149 19.7615 30.5136 22.2798 30.5136C24.7982 30.5136 26.8397 32.2149 26.8397 34.3135C26.8397 35.0613 26.5805 35.7587 26.1329 36.3466C25.6968 36.9193 25.3198 37.5699 25.3198 38.2896C25.3198 38.9643 25.8832 39.5029 26.5567 39.4634C30.2832 39.2444 33.9534 38.8156 37.5555 38.1887C38.1016 35.051 38.4973 31.8616 38.735 28.6284C38.781 28.0027 38.2831 27.4736 37.6557 27.4736C36.936 27.4736 36.2854 27.8507 35.7127 28.2867C35.1248 28.7344 34.4274 28.9936 33.6796 28.9936C31.581 28.9936 29.8797 26.9521 29.8797 24.4337C29.8797 21.9153 31.581 19.8738 33.6796 19.8738C34.4274 19.8738 35.1248 20.133 35.7127 20.5807C36.2854 21.0167 36.936 21.3938 37.6557 21.3938C38.3981 21.3938 39.001 20.7918 38.9909 20.0495C38.9411 16.376 38.6878 12.7516 38.2416 9.18723C34.4196 9.8807 30.5199 10.3509 26.5563 10.5837C25.8829 10.6233 25.3195 10.0847 25.3195 9.41008Z" fill="#D9D9D9" stroke="#626262" stroke-width="2" stroke-linecap="round" stroke-linejoin="round"/>
</svg>
