<svg width="42" height="41" viewBox="0 0 42 41" fill="none" xmlns="http://www.w3.org/2000/svg">
<path fill-rule="evenodd" clip-rule="evenodd" d="M19.3206 2.32965C20.2481 1.40216 21.7519 1.40216 22.6794 2.32965L39.3043 18.9546C39.9836 19.6338 40.1867 20.6554 39.8191 21.5428C39.4515 22.4303 38.5855 23.009 37.6249 23.009H35.2499V37.2589C35.2499 38.5706 34.1866 39.6339 32.875 39.6339H28.125C26.8133 39.6339 25.75 38.5706 25.75 37.2589V30.1339C25.75 28.8223 24.6867 27.7589 23.375 27.7589H18.625C17.3133 27.7589 16.25 28.8223 16.25 30.1339V37.2589C16.25 38.5706 15.1867 39.6339 13.875 39.6339H9.12504C7.81337 39.6339 6.75005 38.5706 6.75005 37.2589V23.009H4.37506C3.41447 23.009 2.54846 22.4303 2.18085 21.5428C1.81325 20.6554 2.01645 19.6338 2.69569 18.9546L19.3206 2.32965Z" fill="#D9D9D9" stroke="#626262" stroke-width="2.17143" stroke-linecap="round" stroke-linejoin="round"/>
</svg>
