<svg width="41" height="38" viewBox="0 0 41 38" fill="none" xmlns="http://www.w3.org/2000/svg">
<path d="M35.2678 1.63403H5.90412C3.51925 1.63403 1.58594 3.56735 1.58594 5.95222C1.58594 8.33708 3.51925 10.2704 5.90412 10.2704H35.2678C37.6526 10.2704 39.5859 8.33708 39.5859 5.95222C39.5859 3.56735 37.6526 1.63403 35.2678 1.63403Z" fill="#D9D9D9"/>
<path d="M1.58594 18.9068H39.5859M1.58594 27.5431H39.5859M1.58594 36.1795H39.5859M5.90412 1.63403H35.2678C37.6526 1.63403 39.5859 3.56735 39.5859 5.95222C39.5859 8.33708 37.6526 10.2704 35.2678 10.2704H5.90412C3.51925 10.2704 1.58594 8.33708 1.58594 5.95222C1.58594 3.56735 3.51925 1.63403 5.90412 1.63403Z" stroke="#626262" stroke-width="2" stroke-linecap="round" stroke-linejoin="round"/>
</svg>
