<svg width="40" height="39" viewBox="0 0 40 39" fill="none" xmlns="http://www.w3.org/2000/svg">
<path d="M14.7586 4.25472C12.9494 4.25472 11.4828 5.72138 11.4828 7.53058C11.4828 9.33979 12.9494 10.8064 14.7586 10.8064H18.0345V18.6685H4.27586C2.46666 18.6685 1 17.2019 1 15.3927V14.0823C1 12.2731 2.46665 10.8064 4.27586 10.8064H9.85501C9.22783 9.86949 8.86207 8.74275 8.86207 7.53058C8.86207 4.27401 11.502 1.63403 14.7586 1.63403C16.611 1.63403 18.2638 2.48816 19.3448 3.82406C20.4258 2.48816 22.0787 1.63403 23.931 1.63403C27.1876 1.63403 29.8276 4.27401 29.8276 7.53058C29.8276 8.74275 29.4618 9.86949 28.8346 10.8064H35.7241C37.5333 10.8064 39 12.2731 39 14.0823V15.3927C39 17.2019 37.5333 18.6685 35.7241 18.6685H20.6552V10.8064H23.931C25.7402 10.8064 27.2069 9.33979 27.2069 7.53058C27.2069 5.72138 25.7402 4.25472 23.931 4.25472C22.1218 4.25472 20.6552 5.72138 20.6552 7.53058V10.8064H18.0345V7.53058C18.0345 5.72138 16.5678 4.25472 14.7586 4.25472Z" fill="#D9D9D9"/>
<path d="M18.0345 21.2892H3.62069V33.0823C3.62069 35.2534 5.38067 37.0133 7.55172 37.0133H18.0345V21.2892Z" fill="#D9D9D9"/>
<path d="M20.6552 21.2892V37.0133H32.4483C34.6193 37.0133 36.3793 35.2534 36.3793 33.0823V21.2892H20.6552Z" fill="#D9D9D9"/>
<path d="M18.0345 10.8064H14.7586C12.9494 10.8064 11.4828 9.33979 11.4828 7.53058C11.4828 5.72138 12.9494 4.25472 14.7586 4.25472C16.5678 4.25472 18.0345 5.72138 18.0345 7.53058V10.8064ZM18.0345 10.8064V18.6685H4.27586C2.46666 18.6685 1 17.2019 1 15.3927V14.0823C1 12.2731 2.46665 10.8064 4.27586 10.8064H9.85501C9.22783 9.86949 8.86207 8.74275 8.86207 7.53058C8.86207 4.27401 11.502 1.63403 14.7586 1.63403C16.611 1.63403 18.2638 2.48816 19.3448 3.82406C20.4258 2.48816 22.0787 1.63403 23.931 1.63403C27.1876 1.63403 29.8276 4.27401 29.8276 7.53058C29.8276 8.74275 29.4618 9.86949 28.8346 10.8064H35.7241C37.5333 10.8064 39 12.2731 39 14.0823V15.3927C39 17.2019 37.5333 18.6685 35.7241 18.6685H20.6552V10.8064M18.0345 10.8064H20.6552M20.6552 10.8064H23.931C25.7402 10.8064 27.2069 9.33979 27.2069 7.53058C27.2069 5.72138 25.7402 4.25472 23.931 4.25472C22.1218 4.25472 20.6552 5.72138 20.6552 7.53058V10.8064ZM3.62069 21.2892H18.0345V37.0133H7.55172C5.38067 37.0133 3.62069 35.2534 3.62069 33.0823V21.2892ZM20.6552 21.2892V37.0133H32.4483C34.6193 37.0133 36.3793 35.2534 36.3793 33.0823V21.2892H20.6552Z" stroke="#626262" stroke-width="2"/>
</svg>
