<svg width="41" height="41" viewBox="0 0 41 41" fill="none" xmlns="http://www.w3.org/2000/svg">
<path d="M20.2929 36.71C11.4135 36.71 4.21532 29.5118 4.21532 20.6324C4.21532 11.753 11.4135 4.55487 20.2929 4.55487C29.1723 4.55487 36.3704 11.753 36.3704 20.6324C36.3704 29.5118 29.1723 36.71 20.2929 36.71Z" fill="#D9D9D9"/>
<path d="M4.21532 20.6324C4.21532 29.5118 11.4135 36.71 20.2929 36.71C29.1723 36.71 36.3704 29.5118 36.3704 20.6324M4.21532 20.6324C4.21532 11.753 11.4135 4.55487 20.2929 4.55487C29.1723 4.55487 36.3704 11.753 36.3704 20.6324M4.21532 20.6324L0.999816 20.6324M36.3704 20.6324L39.5859 20.6324M36.3704 20.6324L20.2929 20.6324M2.16289 27.231L5.18448 26.1313M35.4004 15.1336L38.422 14.0338M5.51326 33.0351L7.97648 30.9682M32.6087 10.2993L35.0719 8.23241M10.6461 37.3424L12.2539 34.5576M28.3314 6.71051L29.9392 3.9258M16.9425 39.6339L17.5008 36.4673M23.0845 4.80069L23.6429 1.63403M23.6429 39.634L23.0845 36.4674M17.5009 4.80078L16.9425 1.63412M29.9393 37.342L28.3315 34.5573M10.6462 3.92546L20.2929 20.6324M35.0723 33.0338L32.609 30.9669M7.9768 10.298L5.51358 8.23108M38.4225 27.2314L35.4009 26.1316M5.18501 15.1339L2.16342 14.0341M20.2929 20.6324L12.2541 34.556" stroke="#626262" stroke-width="2" stroke-linecap="round" stroke-linejoin="round"/>
</svg>
