<svg width="40" height="41" viewBox="0 0 40 41" fill="none" xmlns="http://www.w3.org/2000/svg">
<path d="M39 20.634C39 26.28 36.5374 31.3508 32.6277 34.8308C29.2709 37.8187 24.8475 39.634 20 39.634C15.1525 39.634 10.7291 37.8187 7.37231 34.8308C3.46261 31.3508 1 26.28 1 20.634C1 10.1406 9.50659 1.63403 20 1.63403C30.4934 1.63403 39 10.1406 39 20.634Z" fill="#DBDBDB"/>
<path d="M26.3333 15.884C26.3333 19.3818 23.4978 22.2174 20 22.2174C16.5022 22.2174 13.6667 19.3818 13.6667 15.884C13.6667 12.3862 16.5022 9.5507 20 9.5507C23.4978 9.5507 26.3333 12.3862 26.3333 15.884Z" fill="#DBDBDB"/>
<path d="M32.6277 34.8308C29.7367 31.0154 25.1562 28.5507 20 28.5507C14.8438 28.5507 10.2633 31.0154 7.37231 34.8308M32.6277 34.8308C36.5374 31.3508 39 26.28 39 20.634C39 10.1406 30.4934 1.63403 20 1.63403C9.50659 1.63403 1 10.1406 1 20.634C1 26.28 3.46261 31.3508 7.37231 34.8308M32.6277 34.8308C29.2709 37.8187 24.8475 39.634 20 39.634C15.1525 39.634 10.7291 37.8187 7.37231 34.8308M26.3333 15.884C26.3333 19.3818 23.4978 22.2174 20 22.2174C16.5022 22.2174 13.6667 19.3818 13.6667 15.884C13.6667 12.3862 16.5022 9.5507 20 9.5507C23.4978 9.5507 26.3333 12.3862 26.3333 15.884Z" stroke="#626262" stroke-width="2" stroke-linecap="round" stroke-linejoin="round"/>
</svg>
