<svg width="41" height="37" viewBox="0 0 41 37" fill="none" xmlns="http://www.w3.org/2000/svg">
<path d="M26.4309 7.48024C26.4309 10.709 23.8134 13.3264 20.5847 13.3264C17.3559 13.3264 14.7385 10.709 14.7385 7.48024C14.7385 4.25147 17.3559 1.63403 20.5847 1.63403C23.8134 1.63403 26.4309 4.25147 26.4309 7.48024Z" fill="#D9D9D9"/>
<path d="M38.1233 13.3264C38.1233 15.748 36.1602 17.7111 33.7386 17.7111C31.317 17.7111 29.354 15.748 29.354 13.3264C29.354 10.9049 31.317 8.94179 33.7386 8.94179C36.1602 8.94179 38.1233 10.9049 38.1233 13.3264Z" fill="#D9D9D9"/>
<path d="M11.8154 13.3264C11.8154 15.748 9.85229 17.7111 7.43071 17.7111C5.00914 17.7111 3.04606 15.748 3.04606 13.3264C3.04606 10.9049 5.00914 8.94179 7.43071 8.94179C9.85229 8.94179 11.8154 10.9049 11.8154 13.3264Z" fill="#D9D9D9"/>
<path d="M8.9634 32.1622C8.91639 31.7363 8.89226 31.3035 8.89226 30.865C8.89226 30.8451 8.89231 30.8251 8.89241 30.8051C8.90392 28.5117 9.57569 26.3745 10.7274 24.5738C12.8046 21.3258 16.4432 19.1726 20.5847 19.1726C24.7266 19.1726 28.3656 21.3263 30.4428 24.575C31.5939 26.3754 32.2654 28.5121 32.2769 30.8049C32.277 30.8249 32.2771 30.845 32.2771 30.865C32.2771 31.3035 32.2529 31.7363 32.2059 32.1622C28.7825 34.1266 24.8147 35.2497 20.5847 35.2497C16.3546 35.2497 12.3869 34.1265 8.9634 32.1622Z" fill="#D9D9D9"/>
<path d="M32.2769 30.8049C32.7593 30.8447 33.2471 30.865 33.7397 30.865C35.7827 30.865 37.744 30.5158 39.5673 29.8736C39.5796 29.7185 39.5859 29.5618 39.5859 29.4035C39.5859 26.1747 36.9685 23.5573 33.7397 23.5573C32.5167 23.5573 31.3813 23.9329 30.4428 24.575M32.2769 30.8049C32.277 30.8249 32.2771 30.845 32.2771 30.865C32.2771 31.3035 32.2529 31.7363 32.2059 32.1622C28.7825 34.1266 24.8147 35.2497 20.5847 35.2497C16.3546 35.2497 12.3869 34.1266 8.9634 32.1622C8.91639 31.7363 8.89226 31.3035 8.89226 30.865C8.89226 30.8451 8.89231 30.8251 8.89241 30.8051M32.2769 30.8049C32.2654 28.5121 31.5939 26.3754 30.4428 24.575M30.4428 24.575C28.3656 21.3263 24.7266 19.1726 20.5847 19.1726C16.4432 19.1726 12.8046 21.3258 10.7274 24.5738M10.7274 24.5738C9.78913 23.9324 8.65444 23.5573 7.43214 23.5573C4.20337 23.5573 1.58594 26.1747 1.58594 29.4035C1.58594 29.5618 1.59223 29.7185 1.60457 29.8736C3.42787 30.5158 5.38921 30.865 7.43214 30.865C7.92389 30.865 8.41091 30.8448 8.89241 30.8051M10.7274 24.5738C9.57569 26.3745 8.90392 28.5117 8.89241 30.8051M26.4309 7.48024C26.4309 10.709 23.8134 13.3264 20.5847 13.3264C17.3559 13.3264 14.7385 10.709 14.7385 7.48024C14.7385 4.25147 17.3559 1.63403 20.5847 1.63403C23.8134 1.63403 26.4309 4.25147 26.4309 7.48024ZM38.1233 13.3264C38.1233 15.748 36.1602 17.7111 33.7386 17.7111C31.317 17.7111 29.354 15.748 29.354 13.3264C29.354 10.9049 31.317 8.94179 33.7386 8.94179C36.1602 8.94179 38.1233 10.9049 38.1233 13.3264ZM11.8154 13.3264C11.8154 15.748 9.85229 17.7111 7.43071 17.7111C5.00914 17.7111 3.04606 15.748 3.04606 13.3264C3.04606 10.9049 5.00914 8.94179 7.43071 8.94179C9.85229 8.94179 11.8154 10.9049 11.8154 13.3264Z" stroke="#626262" stroke-width="2" stroke-linecap="round" stroke-linejoin="round"/>
</svg>
