<svg width="33" height="33" viewBox="0 0 33 33" fill="none" xmlns="http://www.w3.org/2000/svg">
<path d="M16.0848 32.0767C7.24734 32.0767 0.0848389 24.9142 0.0848389 16.0767C0.0848389 7.23916 7.24734 0.0766602 16.0848 0.0766602C24.9223 0.0766602 32.0848 7.23916 32.0848 16.0767C32.0848 24.9142 24.9223 32.0767 16.0848 32.0767ZM20.5161 8.19229C19.963 8.11416 19.1817 8.07666 18.1755 8.07666C16.9911 8.07666 16.0442 8.40479 15.3317 9.06104C14.6192 9.71729 14.263 10.6423 14.263 11.8329V13.9267H11.6473V16.7704H14.2661V24.0579H17.4067V16.7642H20.013L20.413 13.9235H17.4067V12.1079C17.4067 11.6454 17.5098 11.3017 17.7161 11.0704C17.9223 10.8423 18.3161 10.7267 18.9036 10.7267H20.5161V8.19229Z" fill="#57BFE5"/>
</svg>
