<svg width="32" height="32" viewBox="0 0 32 32" fill="none" xmlns="http://www.w3.org/2000/svg">
<path d="M17.1533 0.161621C25.2723 0.161621 31.9152 6.80451 31.9152 14.9236V17.23C31.9152 25.3491 25.2723 31.992 17.1533 31.992H14.8468C6.72773 31.992 0.0848389 25.3491 0.0848389 17.23V14.9236C0.0848389 6.80451 6.72773 0.161621 14.8468 0.161621H17.1533ZM16.2902 8.16189L16.0848 8.16162C14.3746 8.16162 12.6644 8.21815 12.6644 8.21815C10.1664 8.21815 8.14137 10.2432 8.14137 12.7411C8.14137 12.7411 8.08945 14.2097 8.08512 15.7859L8.08484 15.992C8.08484 17.7569 8.14137 19.5821 8.14137 19.5821C8.14137 22.0801 10.1664 24.1051 12.6644 24.1051C12.6644 24.1051 14.2634 24.1616 15.9153 24.1616C17.6801 24.1616 19.5619 24.1051 19.5619 24.1051C22.0599 24.1051 24.0283 22.1366 24.0283 19.6387C24.0283 19.6387 24.0848 17.834 24.0848 16.1051L24.0838 15.6994C24.0762 14.1482 24.0283 12.6846 24.0283 12.6846C24.0283 10.1866 22.0598 8.21815 19.5618 8.21815C19.5618 8.21815 17.9336 8.16605 16.2902 8.16189ZM16.0848 9.60158C17.4873 9.60158 19.2854 9.64796 19.2854 9.64796C21.3338 9.64796 22.5985 10.9127 22.5985 12.961C22.5985 12.961 22.6448 14.7284 22.6448 16.1152C22.6448 17.5329 22.5985 19.3621 22.5985 19.3621C22.5985 21.4105 21.3338 22.6752 19.2854 22.6752C19.2854 22.6752 17.6952 22.7141 16.3155 22.7206L15.9458 22.7216C14.5912 22.7216 12.9408 22.6752 12.9408 22.6752C10.8925 22.6752 9.57122 21.3539 9.57122 19.3056C9.57122 19.3056 9.52484 17.4697 9.52484 16.0225C9.52484 14.668 9.57122 12.961 9.57122 12.961C9.57122 10.9127 10.8925 9.64796 12.9408 9.64796C12.9408 9.64796 14.6824 9.60158 16.0848 9.60158ZM16.0848 12.0635C13.8215 12.0635 11.9868 13.8983 11.9868 16.1616C11.9868 18.4249 13.8215 20.2596 16.0848 20.2596C18.3481 20.2596 20.1828 18.4249 20.1828 16.1616C20.1828 13.8983 18.3481 12.0635 16.0848 12.0635ZM16.0848 13.4949C17.5576 13.4949 18.7515 14.6888 18.7515 16.1616C18.7515 17.6343 17.5576 18.8282 16.0848 18.8282C14.6121 18.8282 13.4181 17.6343 13.4181 16.1616C13.4181 14.6888 14.612 13.4949 16.0848 13.4949ZM20.3789 10.9263C19.8321 10.9263 19.3887 11.3718 19.3887 11.9214C19.3887 12.471 19.8321 12.9165 20.3789 12.9165C20.9258 12.9165 21.3691 12.471 21.3691 11.9214C21.3691 11.3718 20.9258 10.9263 20.3789 10.9263Z" fill="#57BFE5"/>
</svg>
