<svg width="33" height="33" viewBox="0 0 33 33" fill="none" xmlns="http://www.w3.org/2000/svg">
<path fill-rule="evenodd" clip-rule="evenodd" d="M16.9153 0.0766602C25.7518 0.0766602 32.9153 7.2401 32.9153 16.0767C32.9153 24.9132 25.7518 32.0767 16.9153 32.0767C8.07873 32.0767 0.915283 24.9132 0.915283 16.0767C0.915283 7.2401 8.07873 0.0766602 16.9153 0.0766602ZM19.7997 10.0767C18.9842 10.0763 18.2019 10.3952 17.6253 10.9632C17.0486 11.5311 16.7248 12.3016 16.7252 13.1049C16.7252 13.3394 16.7542 13.5732 16.8016 13.7987C14.328 13.6744 12.0241 12.5228 10.4617 10.63C10.1954 11.0795 10.0435 11.5953 10.0435 12.1576C10.0424 13.1713 10.5571 14.1181 11.4143 14.6791C10.9106 14.6603 10.435 14.5197 10.0251 14.2949V14.3325C10.0231 15.7752 11.0548 17.0188 12.4905 17.3043C12.2333 17.3697 11.9562 17.4073 11.6807 17.4073C11.4807 17.4073 11.2899 17.3885 11.0998 17.3607C11.5048 18.5935 12.6598 19.437 13.9751 19.4604C12.8864 20.3018 11.5418 20.7576 10.158 20.7543C9.90073 20.7543 9.66259 20.7445 9.41528 20.7167C10.777 21.5797 12.3951 22.0767 14.1369 22.0767C19.7906 22.0767 22.8841 17.4637 22.8841 13.4604C22.8841 13.3296 22.8841 13.1988 22.8742 13.0673C23.4738 12.6345 23.9948 12.1051 24.4153 11.5013C23.8523 11.7437 23.2557 11.9018 22.6452 11.9704C23.287 11.5946 23.7676 11.0012 23.997 10.3014C23.3944 10.6543 22.7344 10.9018 22.0461 11.0329C21.4843 10.442 20.6851 10.0767 19.7997 10.0767Z" fill="#57BFE5"/>
</svg>
