<svg width="43" height="42" viewBox="0 0 43 42" fill="none" xmlns="http://www.w3.org/2000/svg">
<path d="M34.1947 35.3717C31.2885 31.5361 26.6838 29.0585 21.5005 29.0585C16.3172 29.0585 11.7125 31.5361 8.80627 35.3717M34.1947 35.3717C38.125 31.8733 40.6006 26.7758 40.6006 21.1001C40.6006 10.5514 32.0492 2 21.5005 2C10.9518 2 2.40039 10.5514 2.40039 21.1001C2.40039 26.7758 4.87598 31.8733 8.80627 35.3717M34.1947 35.3717C30.8203 38.3753 26.3735 40.2002 21.5005 40.2002C16.6275 40.2002 12.1807 38.3753 8.80627 35.3717M27.8672 16.3251C27.8672 19.8413 25.0167 22.6918 21.5005 22.6918C17.9843 22.6918 15.1338 19.8413 15.1338 16.3251C15.1338 12.8088 17.9843 9.95837 21.5005 9.95837C25.0167 9.95837 27.8672 12.8088 27.8672 16.3251Z" stroke="#57BFE5" stroke-width="3.18335" stroke-linecap="round" stroke-linejoin="round"/>
</svg>
