<svg width="54" height="39" viewBox="0 0 54 39" fill="none" xmlns="http://www.w3.org/2000/svg">
<mask id="mask0_148_14391" style="mask-type:luminance" maskUnits="userSpaceOnUse" x="-1" y="0" width="55" height="39">
<path d="M49.659 0.476807H3.81902C1.7093 0.476807 -0.000976562 2.18708 -0.000976562 4.29681V34.8568C-0.000976562 36.9665 1.7093 38.6768 3.81902 38.6768H49.659C51.7687 38.6768 53.479 36.9665 53.479 34.8568V4.29681C53.479 2.18708 51.7687 0.476807 49.659 0.476807Z" fill="white"/>
</mask>
<g mask="url(#mask0_148_14391)">
<path d="M49.659 0.476807H3.81902C1.7093 0.476807 -0.000976562 2.18708 -0.000976562 4.29681V34.8568C-0.000976562 36.9665 1.7093 38.6768 3.81902 38.6768H49.659C51.7687 38.6768 53.479 36.9665 53.479 34.8568V4.29681C53.479 2.18708 51.7687 0.476807 49.659 0.476807Z" fill="white"/>
<mask id="mask1_148_14391" style="mask-type:alpha" maskUnits="userSpaceOnUse" x="-1" y="0" width="55" height="39">
<path d="M49.658 0.476807H3.81805C1.70832 0.476807 -0.00195312 2.18708 -0.00195312 4.29681V34.8568C-0.00195312 36.9665 1.70832 38.6768 3.81805 38.6768H49.658C51.7678 38.6768 53.478 36.9665 53.478 34.8568V4.29681C53.478 2.18708 51.7678 0.476807 49.658 0.476807Z" fill="white"/>
</mask>
<g mask="url(#mask1_148_14391)">
<path d="M53.478 0.476807H-0.00195312V38.6768H53.478V0.476807Z" fill="#E92434"/>
<path fill-rule="evenodd" clip-rule="evenodd" d="M36.3279 21.0444L33.9885 23.8806L34.148 20.2074L30.7275 18.859L34.27 17.8755L34.4956 14.2058L36.5257 17.2711L40.0854 16.3516L37.7974 19.2295L39.7722 22.331L36.3279 21.0444Z" fill="white"/>
<path fill-rule="evenodd" clip-rule="evenodd" d="M33.2368 26.6128C31.1398 29.3051 27.8674 31.0367 24.1905 31.0367C17.8613 31.0367 12.7305 25.9059 12.7305 19.5767C12.7305 13.2475 17.8613 8.1167 24.1905 8.1167C27.8674 8.1167 31.1398 9.84829 33.2368 12.5405C31.6185 11.3641 29.5837 10.6633 27.3735 10.6633C22.0992 10.6633 17.8235 14.654 17.8235 19.5767C17.8235 24.4993 22.0992 28.4899 27.3735 28.4899C29.5837 28.4899 31.6187 27.7891 33.2368 26.6128Z" fill="white"/>
</g>
</g>
</svg>
