<svg width="54" height="39" viewBox="0 0 54 39" fill="none" xmlns="http://www.w3.org/2000/svg">
<mask id="mask0_148_14392" style="mask-type:luminance" maskUnits="userSpaceOnUse" x="0" y="0" width="54" height="39">
<path d="M50.1395 0.476807H4.29949C2.18976 0.476807 0.479492 2.18708 0.479492 4.29681V34.8568C0.479492 36.9665 2.18976 38.6768 4.29949 38.6768H50.1395C52.2492 38.6768 53.9595 36.9665 53.9595 34.8568V4.29681C53.9595 2.18708 52.2492 0.476807 50.1395 0.476807Z" fill="white"/>
</mask>
<g mask="url(#mask0_148_14392)">
<path d="M50.1395 0.476807H4.29949C2.18976 0.476807 0.479492 2.18708 0.479492 4.29681V34.8568C0.479492 36.9665 2.18976 38.6768 4.29949 38.6768H50.1395C52.2492 38.6768 53.9595 36.9665 53.9595 34.8568V4.29681C53.9595 2.18708 52.2492 0.476807 50.1395 0.476807Z" fill="white"/>
<mask id="mask1_148_14392" style="mask-type:alpha" maskUnits="userSpaceOnUse" x="0" y="0" width="54" height="39">
<path d="M50.1385 0.476807H4.29852C2.18879 0.476807 0.478516 2.18708 0.478516 4.29681V34.8568C0.478516 36.9665 2.18879 38.6768 4.29852 38.6768H50.1385C52.2482 38.6768 53.9585 36.9665 53.9585 34.8568V4.29681C53.9585 2.18708 52.2482 0.476807 50.1385 0.476807Z" fill="white"/>
</mask>
<g mask="url(#mask1_148_14392)">
<path fill-rule="evenodd" clip-rule="evenodd" d="M53.9585 0.476807H0.478516V3.02347H53.9585V0.476807ZM53.9585 5.57015H0.478516V8.11681H53.9585V5.57015ZM0.478516 10.6635H53.9585V13.2101H0.478516V10.6635ZM53.9585 15.7568H0.478516V18.3035H53.9585V15.7568ZM0.478516 20.8502H53.9585V23.3968H0.478516V20.8502ZM53.9585 25.9434H0.478516V28.4902H53.9585V25.9434ZM0.478516 31.0368H53.9585V33.5834H0.478516V31.0368ZM53.9585 36.1302H0.478516V38.6768H53.9585V36.1302Z" fill="#D02F44"/>
<path d="M23.3985 0.476807H0.478516V18.3035H23.3985V0.476807Z" fill="#46467F"/>
<g filter="url(#filter0_d_148_14392)">
<path fill-rule="evenodd" clip-rule="evenodd" d="M5.57109 4.29676C5.57109 5 5.001 5.5701 4.29775 5.5701C3.59451 5.5701 3.02441 5 3.02441 4.29676C3.02441 3.59353 3.59451 3.02344 4.29775 3.02344C5.001 3.02344 5.57109 3.59353 5.57109 4.29676ZM10.6644 4.29676C10.6644 5 10.0943 5.5701 9.39109 5.5701C8.68785 5.5701 8.11775 5 8.11775 4.29676C8.11775 3.59353 8.68785 3.02344 9.39109 3.02344C10.0943 3.02344 10.6644 3.59353 10.6644 4.29676ZM14.4844 5.5701C15.1877 5.5701 15.7578 5 15.7578 4.29676C15.7578 3.59353 15.1877 3.02344 14.4844 3.02344C13.7812 3.02344 13.2111 3.59353 13.2111 4.29676C13.2111 5 13.7812 5.5701 14.4844 5.5701ZM20.851 4.29676C20.851 5 20.2811 5.5701 19.5778 5.5701C18.8745 5.5701 18.3044 5 18.3044 4.29676C18.3044 3.59353 18.8745 3.02344 19.5778 3.02344C20.2811 3.02344 20.851 3.59353 20.851 4.29676ZM6.84441 8.11676C7.54766 8.11676 8.11775 7.54668 8.11775 6.84344C8.11775 6.14019 7.54766 5.5701 6.84441 5.5701C6.14117 5.5701 5.57109 6.14019 5.57109 6.84344C5.57109 7.54668 6.14117 8.11676 6.84441 8.11676ZM13.2111 6.84344C13.2111 7.54668 12.641 8.11676 11.9378 8.11676C11.2345 8.11676 10.6644 7.54668 10.6644 6.84344C10.6644 6.14019 11.2345 5.5701 11.9378 5.5701C12.641 5.5701 13.2111 6.14019 13.2111 6.84344ZM17.0311 8.11676C17.7343 8.11676 18.3044 7.54668 18.3044 6.84344C18.3044 6.14019 17.7343 5.5701 17.0311 5.5701C16.3279 5.5701 15.7578 6.14019 15.7578 6.84344C15.7578 7.54668 16.3279 8.11676 17.0311 8.11676ZM20.851 9.3901C20.851 10.0933 20.2811 10.6634 19.5778 10.6634C18.8745 10.6634 18.3044 10.0933 18.3044 9.3901C18.3044 8.68685 18.8745 8.11676 19.5778 8.11676C20.2811 8.11676 20.851 8.68685 20.851 9.3901ZM14.4844 10.6634C15.1877 10.6634 15.7578 10.0933 15.7578 9.3901C15.7578 8.68685 15.1877 8.11676 14.4844 8.11676C13.7812 8.11676 13.2111 8.68685 13.2111 9.3901C13.2111 10.0933 13.7812 10.6634 14.4844 10.6634ZM10.6644 9.3901C10.6644 10.0933 10.0943 10.6634 9.39109 10.6634C8.68785 10.6634 8.11775 10.0933 8.11775 9.3901C8.11775 8.68685 8.68785 8.11676 9.39109 8.11676C10.0943 8.11676 10.6644 8.68685 10.6644 9.3901ZM4.29775 10.6634C5.001 10.6634 5.57109 10.0933 5.57109 9.3901C5.57109 8.68685 5.001 8.11676 4.29775 8.11676C3.59451 8.11676 3.02441 8.68685 3.02441 9.3901C3.02441 10.0933 3.59451 10.6634 4.29775 10.6634ZM8.11775 11.9368C8.11775 12.64 7.54766 13.2101 6.84441 13.2101C6.14117 13.2101 5.57109 12.64 5.57109 11.9368C5.57109 11.2335 6.14117 10.6634 6.84441 10.6634C7.54766 10.6634 8.11775 11.2335 8.11775 11.9368ZM11.9378 13.2101C12.641 13.2101 13.2111 12.64 13.2111 11.9368C13.2111 11.2335 12.641 10.6634 11.9378 10.6634C11.2345 10.6634 10.6644 11.2335 10.6644 11.9368C10.6644 12.64 11.2345 13.2101 11.9378 13.2101ZM18.3044 11.9368C18.3044 12.64 17.7343 13.2101 17.0311 13.2101C16.3279 13.2101 15.7578 12.64 15.7578 11.9368C15.7578 11.2335 16.3279 10.6634 17.0311 10.6634C17.7343 10.6634 18.3044 11.2335 18.3044 11.9368ZM19.5778 15.7568C20.2811 15.7568 20.851 15.1867 20.851 14.4834C20.851 13.7802 20.2811 13.2101 19.5778 13.2101C18.8745 13.2101 18.3044 13.7802 18.3044 14.4834C18.3044 15.1867 18.8745 15.7568 19.5778 15.7568ZM15.7578 14.4834C15.7578 15.1867 15.1877 15.7568 14.4844 15.7568C13.7812 15.7568 13.2111 15.1867 13.2111 14.4834C13.2111 13.7802 13.7812 13.2101 14.4844 13.2101C15.1877 13.2101 15.7578 13.7802 15.7578 14.4834ZM9.39109 15.7568C10.0943 15.7568 10.6644 15.1867 10.6644 14.4834C10.6644 13.7802 10.0943 13.2101 9.39109 13.2101C8.68785 13.2101 8.11775 13.7802 8.11775 14.4834C8.11775 15.1867 8.68785 15.7568 9.39109 15.7568ZM5.57109 14.4834C5.57109 15.1867 5.001 15.7568 4.29775 15.7568C3.59451 15.7568 3.02441 15.1867 3.02441 14.4834C3.02441 13.7802 3.59451 13.2101 4.29775 13.2101C5.001 13.2101 5.57109 13.7802 5.57109 14.4834Z" fill="url(#paint0_linear_148_14392)"/>
</g>
</g>
</g>
<defs>
<filter id="filter0_d_148_14392" x="3.02441" y="3.02344" width="17.8262" height="14.6434" filterUnits="userSpaceOnUse" color-interpolation-filters="sRGB">
<feFlood flood-opacity="0" result="BackgroundImageFix"/>
<feColorMatrix in="SourceAlpha" type="matrix" values="0 0 0 0 0 0 0 0 0 0 0 0 0 0 0 0 0 0 127 0" result="hardAlpha"/>
<feOffset dy="1.91"/>
<feColorMatrix type="matrix" values="0 0 0 0 0 0 0 0 0 0 0 0 0 0 0 0 0 0 0.06 0"/>
<feBlend mode="normal" in2="BackgroundImageFix" result="effect1_dropShadow_148_14392"/>
<feBlend mode="normal" in="SourceGraphic" in2="effect1_dropShadow_148_14392" result="shape"/>
</filter>
<linearGradient id="paint0_linear_148_14392" x1="3.02441" y1="3.02344" x2="3.02441" y2="15.7568" gradientUnits="userSpaceOnUse">
<stop stop-color="white"/>
<stop offset="1" stop-color="#F0F0F0"/>
</linearGradient>
</defs>
</svg>
