<svg width="736" height="673" viewBox="0 0 736 673" fill="none" xmlns="http://www.w3.org/2000/svg">
<path d="M306.442 203.99L253.188 130.684C238.318 143.518 225.596 158.771 215.698 175.879H208.142C159.586 175.879 120.227 215.24 120.227 263.794H192.17C192.17 277.635 193.779 291.098 196.802 304.017L283.052 275.991L306.442 203.99Z" fill="#6DC8E8"/>
<path d="M405.831 186.778L459.098 113.434C448.896 107.24 438.037 102.022 426.614 97.9839V58.6596C426.614 26.2907 400.374 0.0495605 368.004 0.0495605C335.633 0.0495605 309.394 26.2907 309.394 58.6596V97.9839C297.969 102.022 287.109 107.241 276.906 113.435L330.174 186.777L405.831 186.778Z" fill="#6DC8E8"/>
<path d="M205.854 331.907C212.528 347.777 221.457 362.463 232.253 375.56C211.228 412.751 219.942 460.727 254.58 487.905L302.39 426.966C318.348 433.389 335.462 437.531 353.335 439.009L353.341 348.417L292.06 303.885L205.854 331.907Z" fill="#6DC8E8"/>
<path d="M527.857 175.88H520.301C510.403 158.771 497.679 143.518 482.81 130.683L429.557 203.988L452.946 275.99L539.197 304.014C542.22 291.097 543.829 277.634 543.829 263.795H615.772C615.772 215.241 576.413 175.88 527.857 175.88Z" fill="#6DC8E8"/>
<path d="M443.936 303.884L382.656 348.414L382.664 439.007C400.534 437.529 417.649 433.387 433.606 426.965L481.416 487.903C516.056 460.725 524.769 412.75 503.743 375.558C514.538 362.463 523.468 347.775 530.142 331.906L443.936 303.884Z" fill="#6DC8E8"/>
<path d="M402.677 216.08H333.33L311.895 282.069L368.003 322.841L424.112 282.069L402.677 216.08Z" fill="#6DC8E8"/>
<path d="M65.7604 650.114C64.1246 650.441 62.6523 650.386 61.3436 649.95C60.035 649.623 58.9444 649.132 58.072 648.478C57.1995 647.715 56.5452 647.06 56.109 646.515C55.6728 645.97 55.4547 645.697 55.4547 645.697C52.2921 639.59 49.184 634.519 46.1304 630.484C43.0769 626.34 40.0233 622.85 36.9698 620.014C33.9162 617.179 30.7536 614.834 27.482 612.98C24.3193 611.126 20.9386 609.491 17.3398 608.073L17.667 591.551C25.1918 589.479 31.5715 586.698 36.8062 583.208C42.0408 579.609 46.3485 575.793 49.7293 571.757C53.11 567.613 55.7273 563.578 57.5812 559.652C59.5442 555.726 60.8529 552.291 61.5072 549.347C61.5072 549.347 61.6163 549.074 61.8344 548.529C62.1616 547.983 62.6523 547.438 63.3066 546.893C63.961 546.239 64.8334 545.748 65.924 545.421C67.0145 544.984 68.4322 544.93 70.1771 545.257C72.0311 545.584 73.3943 546.239 74.2667 547.22C75.2482 548.092 75.848 549.019 76.0661 550.001C76.2842 550.982 76.3933 551.855 76.3933 552.618C76.3933 553.273 76.3933 553.6 76.3933 553.6C76.0661 557.853 75.0301 562.052 73.2852 566.196C71.6494 570.34 69.5228 574.32 66.9055 578.137C64.2881 581.845 61.2891 585.28 57.9084 588.443C54.5277 591.497 50.9289 594.223 47.1119 596.622C43.404 598.912 39.6416 600.657 35.8247 601.857C40.9503 604.474 45.7487 607.964 50.22 612.326C54.8003 616.688 58.8899 621.487 62.4887 626.721C66.0876 631.956 69.0321 637.245 71.3222 642.589C71.3222 642.589 71.3767 642.916 71.4858 643.57C71.5949 644.116 71.5403 644.879 71.3222 645.861C71.1041 646.733 70.5588 647.606 69.6864 648.478C68.923 649.241 67.6143 649.787 65.7604 650.114ZM17.1762 649.95C15.3223 649.95 13.85 649.623 12.7595 648.969C11.6689 648.205 10.7965 647.387 10.1421 646.515C9.59687 645.533 9.21518 644.716 8.99707 644.061C8.77896 643.298 8.6699 642.916 8.6699 642.916C8.23368 638.227 7.85199 632.883 7.52482 626.885C7.30671 620.778 7.14313 614.344 7.03407 607.582C7.03407 600.821 7.0886 594.059 7.19765 587.298C7.30671 580.427 7.52482 573.83 7.85199 567.504C8.17915 561.07 8.56085 555.236 8.99707 550.001C8.99707 550.001 9.0516 549.674 9.16065 549.019C9.26971 548.365 9.54235 547.656 9.97857 546.893C10.4148 546.129 11.1236 545.475 12.1051 544.93C13.1957 544.276 14.6134 543.948 16.3583 543.948C18.2122 543.948 19.6845 544.276 20.775 544.93C21.8656 545.584 22.6835 546.402 23.2288 547.384C23.8831 548.256 24.3193 549.129 24.5375 550.001C24.7556 550.873 24.8646 551.637 24.8646 552.291C24.8646 552.836 24.8646 553.109 24.8646 553.109C24.4284 557.58 24.1012 562.76 23.8831 568.649C23.665 574.429 23.5014 580.591 23.3924 587.134C23.3924 593.678 23.3924 600.33 23.3924 607.091C23.5014 613.744 23.6105 620.233 23.7195 626.558C23.9377 632.774 24.2103 638.499 24.5375 643.734C24.5375 643.734 24.4829 644.061 24.3739 644.716C24.2648 645.37 23.9922 646.133 23.556 647.006C23.1197 647.769 22.3564 648.478 21.2658 649.132C20.2843 649.678 18.9211 649.95 17.1762 649.95ZM97.3664 649.95C95.6215 649.95 94.2038 649.623 93.1133 648.969C92.0227 648.205 91.1503 647.387 90.4959 646.515C89.9507 645.533 89.569 644.716 89.3509 644.061C89.1327 643.298 89.0237 642.916 89.0237 642.916C88.5875 638.227 88.2058 632.883 87.8786 626.885C87.6605 620.778 87.4969 614.344 87.3879 607.582C87.3879 600.821 87.4424 594.059 87.5514 587.298C87.6605 580.427 87.8786 573.83 88.2058 567.504C88.5329 561.07 88.9146 555.236 89.3509 550.001C89.3509 550.001 89.4054 549.728 89.5144 549.183C89.6235 548.529 89.8961 547.82 90.3323 547.056C90.7686 546.184 91.4774 545.475 92.4589 544.93C93.5495 544.276 94.9672 543.948 96.7121 543.948C98.566 544.057 100.038 544.439 101.129 545.093C102.219 545.639 103.037 546.402 103.583 547.384C104.237 548.256 104.673 549.129 104.891 550.001C105.109 550.873 105.218 551.637 105.218 552.291C105.218 552.836 105.218 553.109 105.218 553.109C104.782 557.58 104.455 562.76 104.237 568.649C104.019 574.429 103.855 580.591 103.746 587.134C103.746 593.678 103.746 600.33 103.746 607.091C103.855 613.744 103.964 620.233 104.073 626.558C104.291 632.774 104.564 638.499 104.891 643.734C104.891 643.734 104.837 644.061 104.728 644.716C104.619 645.37 104.346 646.133 103.91 647.006C103.474 647.769 102.71 648.478 101.62 649.132C100.638 649.678 99.2204 649.95 97.3664 649.95ZM169.105 647.987C163.216 648.751 157.436 649.35 151.765 649.787C146.204 650.223 141.078 650.277 136.389 649.95C131.808 649.732 127.991 649.078 124.938 647.987C121.884 646.788 120.03 644.988 119.376 642.589C118.94 637.9 118.558 632.556 118.231 626.558C118.013 620.451 117.849 614.071 117.74 607.419C117.74 600.766 117.795 594.059 117.904 587.298C118.013 580.427 118.231 573.83 118.558 567.504C118.885 561.179 119.267 555.399 119.703 550.165C119.812 549.183 120.139 548.202 120.685 547.22C121.23 546.239 122.102 545.421 123.302 544.766C124.502 544.112 126.137 543.785 128.209 543.785L164.034 543.948C168.833 544.603 173.249 545.911 177.284 547.874C181.319 549.728 184.809 552.128 187.754 555.072C190.698 558.017 192.879 561.343 194.297 565.051C195.388 568.213 195.824 571.321 195.606 574.375C195.388 577.319 194.57 580.1 193.152 582.718C191.734 585.226 189.771 587.516 187.263 589.588C184.864 591.66 182.028 593.405 178.757 594.823C182.137 596.349 185.082 598.476 187.59 601.202C190.098 603.82 192.116 606.764 193.643 610.036C195.169 613.199 196.042 616.525 196.26 620.014C196.151 624.486 195.115 628.575 193.152 632.283C191.189 635.882 188.244 638.99 184.318 641.607C180.392 644.225 175.321 646.351 169.105 647.987ZM135.08 635.718C140.315 635.718 145.277 635.664 149.966 635.555C154.764 635.337 159.072 634.846 162.889 634.083C166.706 633.21 169.869 631.956 172.377 630.32C178.484 625.74 180.556 620.56 178.593 614.78C177.612 611.726 176.03 609.327 173.849 607.582C171.668 605.837 169.16 604.529 166.324 603.656C163.598 602.784 160.708 602.238 157.654 602.02L134.262 602.348C134.153 607.909 134.153 613.471 134.262 619.033C134.48 624.595 134.753 630.157 135.08 635.718ZM134.589 585.826C139.933 586.153 145.168 586.207 150.293 585.989C155.528 585.662 160.763 585.008 165.997 584.026C169.705 582.718 172.65 581.027 174.831 578.955C177.121 576.883 178.32 574.211 178.429 570.94C178.102 567.341 176.576 564.342 173.849 561.943C171.123 559.543 166.979 557.853 161.417 556.871C159.89 556.653 157.764 556.49 155.037 556.381C152.311 556.272 149.257 556.217 145.876 556.217C142.605 556.108 139.224 556.054 135.734 556.054L134.589 585.826ZM218.616 648.969C216.653 648.969 215.126 648.587 214.036 647.824C212.945 646.951 212.073 646.024 211.418 645.043C210.764 643.952 210.328 643.025 210.11 642.262C210.001 641.498 209.946 641.117 209.946 641.117C209.619 636.973 209.346 632.065 209.128 626.394C208.91 620.723 208.746 614.616 208.637 608.073C208.637 601.421 208.692 594.714 208.801 587.952C208.91 581.082 209.128 574.429 209.455 567.995C209.782 561.561 210.164 555.726 210.6 550.492C210.6 550.492 210.6 550.219 210.6 549.674C210.709 549.019 210.982 548.311 211.418 547.547C211.855 546.675 212.563 545.911 213.545 545.257C214.635 544.494 216.108 544.003 217.962 543.785C231.485 542.694 242.826 542.749 251.987 543.948C261.148 545.039 268.345 548.202 273.58 553.436C278.815 558.562 282.195 564.178 283.722 570.285C285.249 576.283 285.031 582.172 283.068 587.952C281.214 593.623 277.669 598.749 272.435 603.329C270.254 605.292 267.418 607.091 263.928 608.727C260.439 610.363 256.567 611.726 252.314 612.817C248.061 613.907 243.59 614.671 238.9 615.107C234.32 615.434 229.74 615.271 225.159 614.616L225.814 642.753C225.814 642.753 225.759 643.08 225.65 643.734C225.541 644.388 225.268 645.152 224.832 646.024C224.396 646.788 223.687 647.496 222.706 648.151C221.724 648.805 220.361 649.078 218.616 648.969ZM267.2 642.916C262.62 639.972 257.821 637.136 252.805 634.41C247.788 631.574 242.499 628.684 236.937 625.74C231.375 622.795 225.377 619.687 218.943 616.416C218.943 615.761 219.379 615.107 220.252 614.453C221.124 613.689 222.215 613.035 223.523 612.49C224.941 611.835 226.304 611.236 227.613 610.69C229.031 610.145 230.176 609.763 231.048 609.545C232.03 609.218 232.521 609.054 232.521 609.054C235.683 610.363 238.628 611.617 241.354 612.817C244.08 614.016 246.752 615.271 249.37 616.579C251.987 617.779 254.659 619.142 257.385 620.669C260.221 622.087 263.165 623.777 266.219 625.74C269.381 627.594 272.871 629.775 276.688 632.283C276.688 632.283 276.852 632.447 277.179 632.774C277.506 633.101 277.833 633.592 278.16 634.246C278.596 634.901 278.869 635.664 278.978 636.536C279.196 637.3 279.196 638.172 278.978 639.154C278.869 640.135 278.324 641.171 277.342 642.262C276.688 643.243 275.761 643.843 274.561 644.061C273.471 644.279 272.326 644.334 271.126 644.225C270.036 644.007 269.109 643.734 268.345 643.407C267.582 643.08 267.2 642.916 267.2 642.916ZM225.159 599.076C232.793 599.621 239.173 599.294 244.299 598.094C249.533 596.786 253.677 594.986 256.731 592.696C259.893 590.406 262.184 587.898 263.601 585.171C265.128 582.445 266.055 579.773 266.382 577.156C266.382 572.466 265.237 568.704 262.947 565.869C260.766 563.033 257.767 560.852 253.95 559.325C250.242 557.798 245.934 556.817 241.027 556.381C236.228 555.944 231.321 555.835 226.304 556.054C225.65 563.142 225.214 570.394 224.996 577.81C224.778 585.226 224.832 592.314 225.159 599.076ZM305.679 649.95C303.934 649.95 302.517 649.623 301.426 648.969C300.335 648.205 299.463 647.387 298.809 646.515C298.263 645.533 297.882 644.716 297.664 644.061C297.446 643.298 297.336 642.916 297.336 642.916C296.9 638.227 296.519 632.883 296.191 626.885C295.973 620.778 295.81 614.344 295.701 607.582C295.701 600.821 295.755 594.059 295.864 587.298C295.973 580.427 296.191 573.83 296.519 567.504C296.846 561.07 297.227 555.236 297.664 550.001C297.664 550.001 297.718 549.728 297.827 549.183C297.936 548.529 298.209 547.82 298.645 547.056C299.081 546.184 299.79 545.475 300.772 544.93C301.862 544.276 303.28 543.948 305.025 543.948C306.879 544.057 308.351 544.439 309.442 545.093C310.532 545.639 311.35 546.402 311.895 547.384C312.55 548.256 312.986 549.129 313.204 550.001C313.422 550.873 313.531 551.637 313.531 552.291C313.531 552.836 313.531 553.109 313.531 553.109C313.095 557.58 312.768 562.76 312.55 568.649C312.332 574.429 312.168 580.591 312.059 587.134C312.059 593.678 312.059 600.33 312.059 607.091C312.168 613.744 312.277 620.233 312.386 626.558C312.604 632.774 312.877 638.499 313.204 643.734C313.204 643.734 313.149 644.061 313.04 644.716C312.931 645.37 312.659 646.133 312.223 647.006C311.786 647.769 311.023 648.478 309.932 649.132C308.951 649.678 307.533 649.95 305.679 649.95ZM364.697 649.296C359.244 649.623 354.282 649.514 349.811 648.969C345.449 648.314 341.741 647.496 338.687 646.515C335.634 645.533 333.289 644.661 331.653 643.898C330.017 643.025 329.199 642.589 329.199 642.589C329.199 642.589 328.981 642.48 328.545 642.262C328.109 641.935 327.564 641.498 326.909 640.953C326.364 640.408 325.819 639.754 325.273 638.99C324.837 638.227 324.565 637.354 324.455 636.373C324.455 635.391 324.728 634.41 325.273 633.428C325.928 632.229 326.691 631.411 327.564 630.975C328.436 630.429 329.308 630.157 330.181 630.157C331.053 630.048 331.762 630.102 332.307 630.32C332.962 630.429 333.289 630.484 333.289 630.484C337.542 632.229 341.959 633.483 346.539 634.246C351.12 635.01 355.427 635.282 359.462 635.064C363.497 634.737 366.878 633.81 369.604 632.283C372.44 630.756 374.185 628.521 374.839 625.576C375.384 622.85 375.003 620.451 373.694 618.379C372.494 616.198 370.64 614.235 368.132 612.49C365.624 610.745 362.734 609.163 359.462 607.746C356.3 606.219 353.137 604.801 349.974 603.493C347.902 602.62 345.667 601.421 343.268 599.894C340.868 598.367 338.578 596.513 336.397 594.332C334.325 592.151 332.526 589.752 330.999 587.134C329.472 584.408 328.491 581.518 328.054 578.464C327.618 575.302 327.891 571.976 328.872 568.486C329.963 564.996 332.089 561.397 335.252 557.689C338.415 553.872 341.741 550.982 345.231 549.019C348.829 546.947 352.428 545.475 356.027 544.603C359.626 543.73 363.007 543.294 366.169 543.294C369.441 543.294 372.331 543.512 374.839 543.948C377.456 544.385 379.474 544.821 380.892 545.257C382.418 545.693 383.182 545.911 383.182 545.911C383.182 545.911 383.454 546.02 384 546.239C384.654 546.457 385.417 546.838 386.29 547.384C387.162 547.929 388.035 548.583 388.907 549.347C389.78 550.001 390.434 550.873 390.87 551.964C391.306 552.945 391.415 554.091 391.197 555.399C390.87 556.817 390.216 557.907 389.234 558.671C388.362 559.325 387.38 559.707 386.29 559.816C385.308 559.925 384.436 559.98 383.673 559.98C382.909 559.87 382.527 559.816 382.527 559.816C377.075 558.18 371.949 557.798 367.151 558.671C362.352 559.434 358.154 561.016 354.555 563.415C351.065 565.814 348.393 568.595 346.539 571.757C344.794 574.811 344.358 577.756 345.231 580.591C345.885 582.99 347.412 585.117 349.811 586.971C352.319 588.716 355.264 590.406 358.644 592.042C362.134 593.569 365.733 595.204 369.441 596.949C373.149 598.585 376.584 600.494 379.747 602.675C382.909 604.747 385.417 607.255 387.271 610.2C389.78 614.235 391.252 618.106 391.688 621.814C392.124 625.522 391.743 629.012 390.543 632.283C389.343 635.446 387.489 638.227 384.981 640.626C382.473 643.025 379.474 644.988 375.984 646.515C372.494 648.042 368.732 648.969 364.697 649.296ZM447.718 651.095C440.847 651.095 434.577 649.841 428.906 647.333C423.235 644.825 418.382 641.335 414.347 636.864C410.312 632.283 407.258 626.94 405.186 620.832C403.223 614.616 402.46 607.8 402.896 600.385C403.223 592.969 404.696 585.826 407.313 578.955C410.039 572.085 413.693 565.923 418.273 560.47C422.853 555.017 428.142 550.71 434.14 547.547C440.248 544.276 446.9 542.64 454.098 542.64C459.55 542.64 465.112 543.24 470.783 544.439C476.454 545.639 481.798 547.602 486.814 550.328C491.94 552.945 496.466 556.49 500.392 560.961C504.318 565.323 507.317 570.667 509.389 576.992C511.461 583.317 512.279 590.733 511.842 599.239C511.515 606.219 509.988 612.49 507.262 618.051C504.536 623.504 500.937 628.303 496.466 632.447C492.103 636.591 487.141 640.081 481.58 642.916C476.127 645.643 470.456 647.715 464.567 649.132C458.787 650.441 453.171 651.095 447.718 651.095ZM470.783 671.707C469.038 672.143 467.511 672.143 466.203 671.707C464.894 671.271 463.749 670.671 462.768 669.907C461.786 669.253 461.077 668.599 460.641 667.944C460.205 667.399 459.987 667.126 459.987 667.126C457.587 660.692 455.461 654.694 453.607 649.132C451.753 643.461 450.172 638.009 448.863 632.774C447.554 627.539 446.409 622.305 445.428 617.07C445.428 617.07 445.428 616.743 445.428 616.089C445.428 615.434 445.537 614.671 445.755 613.798C445.973 612.926 446.355 612.108 446.9 611.345C447.445 610.581 448.318 610.145 449.517 610.036C451.153 609.709 452.516 609.927 453.607 610.69C454.697 611.454 455.515 612.272 456.061 613.144C456.715 613.907 457.042 614.289 457.042 614.289C458.569 618.324 460.314 622.959 462.277 628.194C464.349 633.319 466.475 638.827 468.656 644.716C470.947 650.605 473.182 656.712 475.363 663.037C475.363 663.037 475.418 663.364 475.527 664.018C475.745 664.782 475.8 665.654 475.691 666.636C475.582 667.617 475.145 668.544 474.382 669.417C473.728 670.398 472.528 671.161 470.783 671.707ZM450.99 635.228C454.806 635.228 458.678 634.737 462.604 633.755C466.53 632.665 470.238 631.138 473.728 629.175C477.326 627.103 480.598 624.54 483.543 621.487C486.487 618.324 488.832 614.671 490.577 610.527C492.431 606.383 493.467 601.693 493.685 596.459C494.121 589.37 493.303 583.372 491.231 578.464C489.268 573.557 486.433 569.685 482.725 566.85C479.126 563.906 475.036 561.779 470.456 560.47C465.985 559.053 461.35 558.344 456.551 558.344C451.862 558.344 447.391 559.434 443.138 561.615C438.993 563.796 435.286 566.795 432.014 570.612C428.742 574.429 426.125 578.846 424.162 583.863C422.308 588.77 421.217 594.005 420.89 599.567C420.563 606.982 421.599 613.362 423.998 618.706C426.398 624.05 429.942 628.139 434.631 630.975C439.321 633.81 444.773 635.228 450.99 635.228ZM570.394 650.441C561.015 649.787 553.108 647.169 546.674 642.589C540.24 637.9 535.278 631.193 531.788 622.468C528.298 613.744 526.335 602.947 525.899 590.079V549.183C525.899 549.183 525.954 548.91 526.063 548.365C526.281 547.82 526.553 547.22 526.881 546.566C527.317 545.802 528.026 545.148 529.007 544.603C529.989 544.057 531.297 543.785 532.933 543.785C535.114 543.785 536.805 544.166 538.004 544.93C539.313 545.584 540.294 546.402 540.949 547.384C541.603 548.365 542.039 549.238 542.257 550.001C542.475 550.655 542.585 550.982 542.585 550.982L543.239 589.261C543.13 598.531 544.002 606.546 545.856 613.308C547.71 619.96 550.6 625.14 554.526 628.848C558.561 632.556 563.632 634.791 569.739 635.555C574.865 634.791 579.227 632.774 582.826 629.502C586.534 626.122 589.315 620.941 591.169 613.962C593.132 606.982 594.059 597.767 593.95 586.316L593.459 551.473C593.459 551.473 593.459 551.146 593.459 550.492C593.459 549.837 593.622 549.129 593.95 548.365C594.386 547.602 595.095 546.893 596.076 546.239C597.058 545.584 598.475 545.257 600.329 545.257C602.183 545.257 603.71 545.584 604.91 546.239C606.218 546.784 607.2 547.547 607.854 548.529C608.618 549.401 609.163 550.328 609.49 551.31C609.926 552.182 610.199 552.945 610.308 553.6C610.417 554.254 610.472 554.581 610.472 554.581L611.289 588.116C611.508 596.513 611.017 604.42 609.817 611.835C608.618 619.142 606.491 625.685 603.437 631.465C600.493 637.136 596.294 641.662 590.842 645.043C585.498 648.314 578.682 650.114 570.394 650.441ZM633.804 649.95C632.059 649.95 630.641 649.623 629.551 648.969C628.46 648.205 627.588 647.387 626.933 646.515C626.388 645.533 626.006 644.716 625.788 644.061C625.57 643.298 625.461 642.916 625.461 642.916C625.025 638.227 624.643 632.883 624.316 626.885C624.098 620.778 623.934 614.344 623.825 607.582C623.825 600.821 623.88 594.059 623.989 587.298C624.098 580.427 624.316 573.83 624.643 567.504C624.97 561.07 625.352 555.236 625.788 550.001C625.788 550.001 625.843 549.728 625.952 549.183C626.061 548.529 626.334 547.82 626.77 547.056C627.206 546.184 627.915 545.475 628.896 544.93C629.987 544.276 631.405 543.948 633.15 543.948C635.003 544.057 636.476 544.439 637.566 545.093C638.657 545.639 639.475 546.402 640.02 547.384C640.674 548.256 641.111 549.129 641.329 550.001C641.547 550.873 641.656 551.637 641.656 552.291C641.656 552.836 641.656 553.109 641.656 553.109C641.22 557.58 640.892 562.76 640.674 568.649C640.456 574.429 640.293 580.591 640.184 587.134C640.184 593.678 640.184 600.33 640.184 607.091C640.293 613.744 640.402 620.233 640.511 626.558C640.729 632.774 641.001 638.499 641.329 643.734C641.329 643.734 641.274 644.061 641.165 644.716C641.056 645.37 640.783 646.133 640.347 647.006C639.911 647.769 639.148 648.478 638.057 649.132C637.075 649.678 635.658 649.95 633.804 649.95ZM633.477 535.769C631.732 535.769 630.096 535.388 628.569 534.624C627.151 533.861 626.006 532.879 625.134 531.68C624.371 530.371 623.989 528.953 623.989 527.426C623.989 525.9 624.371 524.537 625.134 523.337C626.006 522.028 627.151 521.047 628.569 520.392C630.096 519.629 631.732 519.247 633.477 519.247C635.222 519.247 636.803 519.629 638.221 520.392C639.747 521.047 640.947 522.028 641.819 523.337C642.692 524.537 643.128 525.9 643.128 527.426C643.128 529.28 642.692 530.807 641.819 532.007C640.947 533.206 639.802 534.133 638.384 534.788C636.966 535.442 635.331 535.769 633.477 535.769ZM667.428 649.95C666.337 650.059 665.138 650.005 663.829 649.787C662.629 649.459 661.539 648.969 660.557 648.314C659.576 647.551 658.758 646.679 658.104 645.697C657.449 644.716 657.122 643.57 657.122 642.262C657.231 640.953 657.722 639.59 658.594 638.172C662.411 632.719 666.174 627.212 669.882 621.65C673.589 615.979 677.406 610.09 681.332 603.983C685.367 597.767 689.512 591.169 693.765 584.19C698.127 577.21 702.816 569.685 707.833 561.615C702.053 558.889 695.455 557.689 688.039 558.017C680.733 558.235 672.99 559.325 664.81 561.288C664.81 561.288 664.429 561.343 663.665 561.452C663.011 561.452 662.139 561.452 661.048 561.452C660.067 561.343 659.031 561.07 657.94 560.634C656.958 560.089 656.195 559.271 655.65 558.18C654.886 556.871 654.45 555.726 654.341 554.745C654.232 553.763 654.341 552.945 654.668 552.291C655.105 551.637 655.595 551.091 656.141 550.655C656.686 550.219 657.122 549.946 657.449 549.837C657.885 549.619 658.104 549.51 658.104 549.51C667.373 546.239 676.916 544.439 686.731 544.112C696.546 543.785 706.306 544.875 716.012 547.384C717.975 548.256 719.72 549.347 721.247 550.655C722.773 551.964 723.973 553.545 724.845 555.399C725.827 557.144 726.318 559.107 726.318 561.288C726.427 563.469 725.936 565.814 724.845 568.322C722.228 572.903 719.611 577.319 716.993 581.572C714.376 585.826 711.704 590.079 708.978 594.332C706.361 598.476 703.58 602.729 700.635 607.091C697.8 611.345 694.746 615.816 691.475 620.505C688.312 625.086 684.822 629.993 681.005 635.228L719.938 633.265C719.938 633.265 720.32 633.319 721.083 633.428C721.955 633.537 722.937 633.81 724.028 634.246C725.227 634.573 726.263 635.173 727.136 636.046C728.117 636.809 728.662 637.954 728.771 639.481C728.99 641.117 728.826 642.425 728.281 643.407C727.844 644.388 727.245 645.152 726.481 645.697C725.718 646.133 725.009 646.406 724.355 646.515C723.809 646.624 723.537 646.679 723.537 646.679L667.428 649.95Z" fill="#6DC8E8"/>
</svg>
