<svg width="40" height="41" viewBox="0 0 40 41" fill="none" xmlns="http://www.w3.org/2000/svg">
<path d="M25.3195 9.74016C25.3195 9.02039 25.6966 8.3698 26.1326 7.79715C26.5803 7.20923 26.8395 6.51186 26.8395 5.76404C26.8395 3.6654 24.798 1.96411 22.2796 1.96411C19.7612 1.96411 17.7197 3.6654 17.7197 5.76404C17.7197 6.51186 17.9789 7.20923 18.4266 7.79715C18.8626 8.3698 19.2397 9.02039 19.2397 9.74016V9.74016C19.2397 10.4723 18.6401 11.0636 17.9082 11.0425C15.0636 10.9606 12.2495 10.7565 9.47109 10.4354C9.84878 13.7039 10.0645 17.0217 10.1099 20.3806C10.12 21.1223 9.51777 21.7236 8.77604 21.7237V21.7237C8.05628 21.7237 7.40569 21.3467 6.83303 20.9106C6.24512 20.463 5.54775 20.2038 4.79993 20.2038C2.70129 20.2038 1 22.2453 1 24.7637C1 27.282 2.70129 29.3236 4.79993 29.3236C5.54775 29.3236 6.24512 29.0644 6.83303 28.6167C7.40569 28.1807 8.05628 27.8036 8.77604 27.8036V27.8036C9.40266 27.8036 9.90007 28.3321 9.85413 28.957C9.5991 32.4267 9.16208 35.8457 8.55259 39.2047C11.6288 39.5898 14.7497 39.8313 17.9083 39.9223C18.6403 39.9433 19.2399 39.352 19.2399 38.6197V38.6197C19.2399 37.8999 18.8628 37.2493 18.4268 36.6767C17.9791 36.0888 17.7199 35.3914 17.7199 34.6436C17.7199 32.5449 19.7615 30.8437 22.2798 30.8437C24.7982 30.8437 26.8397 32.5449 26.8397 34.6436C26.8397 35.3914 26.5805 36.0888 26.1329 36.6767C25.6968 37.2493 25.3198 37.8999 25.3198 38.6197V38.6197C25.3198 39.2943 25.8832 39.833 26.5567 39.7934C30.2832 39.5745 33.9534 39.1457 37.5555 38.5188C38.1016 35.3811 38.4973 32.1917 38.735 28.9585C38.781 28.3328 38.2831 27.8037 37.6557 27.8037V27.8037C36.936 27.8037 36.2854 28.1808 35.7127 28.6168C35.1248 29.0645 34.4274 29.3237 33.6796 29.3237C31.581 29.3237 29.8797 27.2821 29.8797 24.7638C29.8797 22.2454 31.581 20.2039 33.6796 20.2039C34.4274 20.2039 35.1248 20.4631 35.7127 20.9107C36.2854 21.3468 36.936 21.7238 37.6557 21.7238V21.7238C38.3981 21.7238 39.001 21.1219 38.9909 20.3796C38.9411 16.7061 38.6878 13.0816 38.2416 9.5173C34.4196 10.2108 30.5199 10.6809 26.5563 10.9138C25.8829 10.9534 25.3195 10.4147 25.3195 9.74016V9.74016Z" stroke="#626262" stroke-width="2" stroke-linecap="round" stroke-linejoin="round"/>
</svg>
