<svg width="38" height="39" viewBox="0 0 38 39" fill="none" xmlns="http://www.w3.org/2000/svg">
<path fill-rule="evenodd" clip-rule="evenodd" d="M32.0279 33.7944C35.7047 30.3296 38 25.4149 38 19.9641C38 9.4707 29.4934 0.964111 19 0.964111C8.50659 0.964111 0 9.4707 0 19.9641C0 25.4149 2.2953 30.3296 5.97209 33.7944C9.37356 36.9997 13.9574 38.9641 19 38.9641C24.0426 38.9641 28.6264 36.9997 32.0279 33.7944ZM7.5905 31.2907C10.269 27.9496 14.3847 25.8103 19 25.8103C23.6153 25.8103 27.731 27.9496 30.4095 31.2907C27.4969 34.2244 23.4606 36.041 19 36.041C14.5394 36.041 10.5031 34.2244 7.5905 31.2907ZM26.3077 14.118C26.3077 18.1539 23.0359 21.4256 19 21.4256C14.9641 21.4256 11.6923 18.1539 11.6923 14.118C11.6923 10.082 14.9641 6.81027 19 6.81027C23.0359 6.81027 26.3077 10.082 26.3077 14.118Z" fill="#757575"/>
</svg>
