<svg width="40" height="41" viewBox="0 0 40 41" fill="none" xmlns="http://www.w3.org/2000/svg">
<path d="M1 4.55502C1 3.1241 2.15999 1.96411 3.59091 1.96411H13.9545C15.3855 1.96411 16.5455 3.1241 16.5455 4.55502V14.9187C16.5455 16.3496 15.3855 17.5096 13.9545 17.5096H3.59091C2.15999 17.5096 1 16.3496 1 14.9187V4.55502Z" stroke="#626262" stroke-width="2" stroke-linecap="round" stroke-linejoin="round"/>
<path d="M1 27.0096C1 25.5786 2.15999 24.4187 3.59091 24.4187H13.9545C15.3855 24.4187 16.5455 25.5786 16.5455 27.0096V37.3732C16.5455 38.8041 15.3855 39.9641 13.9545 39.9641H3.59091C2.15999 39.9641 1 38.8041 1 37.3732V27.0096Z" stroke="#626262" stroke-width="2" stroke-linecap="round" stroke-linejoin="round"/>
<path d="M23.4545 4.55502C23.4545 3.1241 24.6145 1.96411 26.0455 1.96411H36.4091C37.84 1.96411 39 3.1241 39 4.55502V14.9187C39 16.3496 37.84 17.5096 36.4091 17.5096H26.0455C24.6145 17.5096 23.4545 16.3496 23.4545 14.9187V4.55502Z" stroke="#626262" stroke-width="2" stroke-linecap="round" stroke-linejoin="round"/>
<path d="M7.90909 8.8732H9.63636V10.6005H7.90909V8.8732Z" stroke="#626262" stroke-width="2" stroke-linecap="round" stroke-linejoin="round"/>
<path d="M7.90909 31.3277H9.63636V33.055H7.90909V31.3277Z" stroke="#626262" stroke-width="2" stroke-linecap="round" stroke-linejoin="round"/>
<path d="M30.3636 8.8732H32.0909V10.6005H30.3636V8.8732Z" stroke="#626262" stroke-width="2" stroke-linecap="round" stroke-linejoin="round"/>
<path d="M23.4545 24.4187H25.1818V26.1459H23.4545V24.4187Z" stroke="#626262" stroke-width="2" stroke-linecap="round" stroke-linejoin="round"/>
<path d="M23.4545 38.2368H25.1818V39.9641H23.4545V38.2368Z" stroke="#626262" stroke-width="2" stroke-linecap="round" stroke-linejoin="round"/>
<path d="M37.2727 24.4187H39V26.1459H37.2727V24.4187Z" stroke="#626262" stroke-width="2" stroke-linecap="round" stroke-linejoin="round"/>
<path d="M37.2727 38.2368H39V39.9641H37.2727V38.2368Z" stroke="#626262" stroke-width="2" stroke-linecap="round" stroke-linejoin="round"/>
<path d="M30.3636 31.3277H32.0909V33.055H30.3636V31.3277Z" stroke="#626262" stroke-width="2" stroke-linecap="round" stroke-linejoin="round"/>
</svg>
