<svg width="40" height="39" viewBox="0 0 40 39" fill="none" xmlns="http://www.w3.org/2000/svg">
<path d="M22.9234 37.0413V22.4257C22.9234 21.6185 23.5778 20.9641 24.385 20.9641H30.2312C31.0384 20.9641 31.6927 21.6185 31.6927 22.4257V37.0413M22.9234 37.0413H1.21607M22.9234 37.0413H31.6927M31.6927 37.0413H38.7845M36.0774 37.0413V14.336M3.92312 37.0413V14.3365M3.92312 14.3365C6.1589 15.6287 9.06737 15.3185 10.9802 13.4057C11.0671 13.3188 11.1507 13.2298 11.2311 13.1388C12.3023 14.3524 13.8696 15.1179 15.6156 15.1179C17.3617 15.1179 18.929 14.3524 20.0003 13.1387C21.0715 14.3524 22.6388 15.1179 24.385 15.1179C26.1309 15.1179 27.698 14.3525 28.7693 13.1391C28.8495 13.2298 28.933 13.3187 29.0198 13.4055C30.9328 15.3185 33.8416 15.6286 36.0774 14.336M3.92312 14.3365C3.49027 14.0863 3.08264 13.776 2.71232 13.4057C0.429226 11.1226 0.429226 7.42099 2.71232 5.13789L5.02994 2.82027C5.57813 2.27208 6.32164 1.96411 7.0969 1.96411H32.9033C33.6785 1.96411 34.422 2.27208 34.9702 2.82027L37.2877 5.13772C39.5708 7.42082 39.5708 11.1225 37.2877 13.4055C36.9175 13.7757 36.5101 14.0859 36.0774 14.336M9.76936 31.195H17.0772C17.8844 31.195 18.5387 30.5407 18.5387 29.7335V22.4257C18.5387 21.6185 17.8844 20.9641 17.0772 20.9641H9.76936C8.96216 20.9641 8.3078 21.6185 8.3078 22.4257V29.7335C8.3078 30.5407 8.96216 31.195 9.76936 31.195Z" stroke="#626262" stroke-width="2" stroke-linecap="round" stroke-linejoin="round"/>
</svg>
