<svg width="40" height="37" viewBox="0 0 40 37" fill="none" xmlns="http://www.w3.org/2000/svg">
<path d="M31.691 31.135C32.1733 31.1748 32.6612 31.1951 33.1538 31.1951C35.1967 31.1951 37.1581 30.8458 38.9814 30.2037C38.9937 30.0486 39 29.8918 39 29.7336C39 26.5048 36.3826 23.8874 33.1538 23.8874C31.9307 23.8874 30.7954 24.2629 29.8568 24.9051M31.691 31.135C31.6911 31.155 31.6911 31.1751 31.6911 31.1951C31.6911 31.6336 31.667 32.0664 31.62 32.4923C28.1965 34.4566 24.2288 35.5798 19.9987 35.5798C15.7687 35.5798 11.8009 34.4566 8.37747 32.4923C8.33046 32.0664 8.30633 31.6336 8.30633 31.1951C8.30633 31.1751 8.30638 31.1552 8.30648 31.1352M31.691 31.135C31.6795 28.8422 31.008 26.7055 29.8568 24.9051M29.8568 24.9051C27.7797 21.6564 24.1407 19.5027 19.9987 19.5027C15.8573 19.5027 12.2187 21.6559 10.1414 24.9039M10.1414 24.9039C9.20319 24.2625 8.0685 23.8874 6.8462 23.8874C3.61743 23.8874 1 26.5048 1 29.7336C1 29.8918 1.00629 30.0486 1.01863 30.2037C2.84193 30.8458 4.80328 31.1951 6.8462 31.1951C7.33795 31.1951 7.82497 31.1749 8.30648 31.1352M10.1414 24.9039C8.98976 26.7046 8.31798 28.8418 8.30648 31.1352M25.8449 7.81031C25.8449 11.0391 23.2275 13.6565 19.9987 13.6565C16.77 13.6565 14.1525 11.0391 14.1525 7.81031C14.1525 4.58154 16.77 1.96411 19.9987 1.96411C23.2275 1.96411 25.8449 4.58154 25.8449 7.81031ZM37.5373 13.6565C37.5373 16.0781 35.5743 18.0412 33.1527 18.0412C30.7311 18.0412 28.768 16.0781 28.768 13.6565C28.768 11.2349 30.7311 9.27186 33.1527 9.27186C35.5743 9.27186 37.5373 11.2349 37.5373 13.6565ZM11.2294 13.6565C11.2294 16.0781 9.26635 18.0412 6.84477 18.0412C4.4232 18.0412 2.46012 16.0781 2.46012 13.6565C2.46012 11.2349 4.4232 9.27186 6.84477 9.27186C9.26635 9.27186 11.2294 11.2349 11.2294 13.6565Z" stroke="#626262" stroke-width="2" stroke-linecap="round" stroke-linejoin="round"/>
</svg>
