<svg width="644" height="347" viewBox="0 0 644 347" fill="none" xmlns="http://www.w3.org/2000/svg">
<path d="M49.3055 152.592C48.0789 152.837 46.9751 152.796 45.9939 152.469C45.0127 152.224 44.195 151.856 43.5409 151.366C42.8867 150.793 42.3961 150.303 42.0691 149.894C41.742 149.485 41.5785 149.281 41.5785 149.281C39.2072 144.702 36.8769 140.899 34.5874 137.874C32.2979 134.767 30.0085 132.15 27.719 130.024C25.4295 127.898 23.0583 126.14 20.6053 124.75C18.234 123.36 15.6992 122.134 13.0009 121.071L13.2462 108.683C18.8882 107.13 23.6715 105.045 27.5963 102.428C31.5211 99.7298 34.7509 96.8679 37.2857 93.8425C39.8205 90.7354 41.7829 87.71 43.1729 84.7664C44.6447 81.8228 45.6259 79.2471 46.1165 77.0394C46.1165 77.0394 46.1983 76.835 46.3618 76.4262C46.6071 76.0174 46.9751 75.6085 47.4657 75.1997C47.9563 74.7091 48.6104 74.3411 49.4281 74.0958C50.2458 73.7688 51.3087 73.7279 52.617 73.9732C54.0071 74.2185 55.0291 74.7091 55.6833 75.445C56.4192 76.0991 56.8689 76.7941 57.0324 77.53C57.196 78.2659 57.2777 78.9201 57.2777 79.4924C57.2777 79.983 57.2777 80.2283 57.2777 80.2283C57.0324 83.4173 56.2556 86.5653 54.9474 89.6724C53.7209 92.7796 52.1264 95.7641 50.164 98.6259C48.2016 101.406 45.953 103.982 43.4182 106.353C40.8835 108.642 38.1852 110.687 35.3233 112.485C32.5432 114.203 29.7223 115.511 26.8604 116.41C30.7035 118.373 34.3012 120.989 37.6537 124.26C41.0879 127.531 44.1541 131.128 46.8524 135.053C49.5508 138.978 51.7585 142.944 53.4756 146.95C53.4756 146.95 53.5164 147.195 53.5982 147.686C53.68 148.095 53.6391 148.667 53.4756 149.403C53.312 150.057 52.9032 150.711 52.2491 151.366C51.6767 151.938 50.6955 152.347 49.3055 152.592ZM12.8783 152.469C11.4883 152.469 10.3844 152.224 9.56673 151.734C8.74906 151.161 8.09493 150.548 7.60432 149.894C7.19549 149.158 6.9093 148.545 6.74577 148.054C6.58224 147.482 6.50047 147.195 6.50047 147.195C6.1734 143.679 5.88722 139.673 5.64192 135.176C5.47838 130.597 5.35573 125.773 5.27397 120.703C5.27397 115.633 5.31485 110.564 5.39662 105.494C5.47838 100.343 5.64192 95.3961 5.88722 90.6536C6.13252 85.8294 6.4187 81.4549 6.74577 77.53C6.74577 77.53 6.78665 77.2847 6.86842 76.7941C6.95019 76.3035 7.15461 75.772 7.48167 75.1997C7.80874 74.6273 8.34023 74.1367 9.07613 73.7279C9.8938 73.2373 10.9568 72.992 12.265 72.992C13.6551 72.992 14.7589 73.2373 15.5766 73.7279C16.3943 74.2185 17.0075 74.8317 17.4164 75.5676C17.907 76.2218 18.234 76.8759 18.3976 77.53C18.5611 78.1842 18.6429 78.7565 18.6429 79.2471C18.6429 79.656 18.6429 79.8604 18.6429 79.8604C18.3158 83.2128 18.0705 87.0968 17.907 91.5122C17.7434 95.8458 17.6208 100.466 17.539 105.372C17.539 110.278 17.539 115.265 17.539 120.335C17.6208 125.323 17.7025 130.188 17.7843 134.93C17.9478 139.591 18.1523 143.884 18.3976 147.809C18.3976 147.809 18.3567 148.054 18.2749 148.545C18.1931 149.035 17.9887 149.608 17.6617 150.262C17.3346 150.834 16.7622 151.366 15.9446 151.856C15.2086 152.265 14.1866 152.469 12.8783 152.469ZM73.0028 152.469C71.6946 152.469 70.6316 152.224 69.8139 151.734C68.9963 151.161 68.3421 150.548 67.8515 149.894C67.4427 149.158 67.1565 148.545 66.993 148.054C66.8294 147.482 66.7477 147.195 66.7477 147.195C66.4206 143.679 66.1344 139.673 65.8891 135.176C65.7256 130.597 65.6029 125.773 65.5212 120.703C65.5212 115.633 65.5621 110.564 65.6438 105.494C65.7256 100.343 65.8891 95.3961 66.1344 90.6536C66.3797 85.8294 66.6659 81.4549 66.993 77.53C66.993 77.53 67.0339 77.3256 67.1156 76.9168C67.1974 76.4262 67.4018 75.8947 67.7289 75.3223C68.0559 74.6682 68.5874 74.1367 69.3233 73.7279C70.141 73.2373 71.204 72.992 72.5122 72.992C73.9023 73.0737 75.0061 73.3599 75.8238 73.8505C76.6415 74.2594 77.2547 74.8317 77.6636 75.5676C78.1542 76.2218 78.4812 76.8759 78.6448 77.53C78.8083 78.1842 78.8901 78.7565 78.8901 79.2471C78.8901 79.656 78.8901 79.8604 78.8901 79.8604C78.563 83.2128 78.3177 87.0968 78.1542 91.5122C77.9906 95.8458 77.868 100.466 77.7862 105.372C77.7862 110.278 77.7862 115.265 77.7862 120.335C77.868 125.323 77.9497 130.188 78.0315 134.93C78.195 139.591 78.3995 143.884 78.6448 147.809C78.6448 147.809 78.6039 148.054 78.5221 148.545C78.4403 149.035 78.2359 149.608 77.9089 150.262C77.5818 150.834 77.0094 151.366 76.1918 151.856C75.4559 152.265 74.3929 152.469 73.0028 152.469ZM126.791 150.998C122.375 151.57 118.042 152.02 113.79 152.347C109.62 152.674 105.777 152.715 102.261 152.469C98.8265 152.306 95.9647 151.815 93.6752 150.998C91.3857 150.098 89.9957 148.749 89.5051 146.95C89.178 143.434 88.8918 139.428 88.6465 134.93C88.483 130.351 88.3603 125.568 88.2786 120.58C88.2786 115.593 88.3195 110.564 88.4012 105.494C88.483 100.343 88.6465 95.3961 88.8918 90.6536C89.1371 85.9111 89.4233 81.5775 89.7504 77.6527C89.8321 76.9168 90.0774 76.1809 90.4863 75.445C90.8951 74.7091 91.5492 74.0958 92.4487 73.6052C93.3481 73.1146 94.5746 72.8693 96.1282 72.8693L122.989 72.992C126.586 73.4826 129.898 74.4638 132.923 75.9356C135.949 77.3256 138.565 79.1245 140.773 81.3322C142.981 83.5399 144.616 86.0338 145.679 88.8139C146.497 91.1851 146.824 93.5155 146.66 95.8049C146.497 98.0127 145.883 100.098 144.82 102.06C143.757 103.941 142.286 105.658 140.405 107.211C138.606 108.765 136.48 110.073 134.027 111.136C136.562 112.281 138.77 113.875 140.65 115.92C142.531 117.882 144.044 120.09 145.188 122.543C146.333 124.914 146.987 127.408 147.151 130.024C147.069 133.377 146.292 136.443 144.82 139.223C143.349 141.921 141.141 144.252 138.197 146.214C135.254 148.177 131.452 149.771 126.791 150.998ZM101.28 141.799C105.204 141.799 108.925 141.758 112.441 141.676C116.038 141.513 119.268 141.145 122.13 140.572C124.992 139.918 127.363 138.978 129.244 137.751C133.823 134.317 135.376 130.433 133.905 126.1C133.169 123.81 131.983 122.011 130.348 120.703C128.712 119.395 126.832 118.413 124.706 117.759C122.662 117.105 120.495 116.696 118.205 116.533L100.666 116.778C100.584 120.948 100.584 125.118 100.666 129.288C100.83 133.459 101.034 137.629 101.28 141.799ZM100.912 104.39C104.918 104.636 108.843 104.677 112.686 104.513C116.611 104.268 120.536 103.777 124.46 103.041C127.241 102.06 129.448 100.793 131.084 99.2392C132.801 97.6856 133.7 95.6823 133.782 93.2293C133.537 90.531 132.392 88.2824 130.348 86.4835C128.303 84.6846 125.196 83.4173 121.026 82.6814C119.881 82.5178 118.287 82.3952 116.243 82.3134C114.199 82.2316 111.909 82.1908 109.374 82.1908C106.921 82.109 104.387 82.0681 101.77 82.0681L100.912 104.39ZM163.913 151.734C162.441 151.734 161.296 151.447 160.478 150.875C159.661 150.221 159.007 149.526 158.516 148.79C158.025 147.972 157.698 147.277 157.535 146.705C157.453 146.132 157.412 145.846 157.412 145.846C157.167 142.739 156.962 139.06 156.799 134.808C156.635 130.556 156.513 125.977 156.431 121.071C156.431 116.083 156.472 111.054 156.554 105.985C156.635 100.834 156.799 95.8458 157.044 91.0216C157.29 86.1973 157.576 81.8228 157.903 77.898C157.903 77.898 157.903 77.6936 157.903 77.2847C157.985 76.7941 158.189 76.2627 158.516 75.6903C158.843 75.0361 159.375 74.4638 160.11 73.9732C160.928 73.4008 162.032 73.0329 163.422 72.8693C173.561 72.0517 182.065 72.0925 188.933 72.992C195.802 73.8096 201.198 76.1809 205.123 80.1057C209.048 83.9487 211.583 88.1597 212.728 92.7387C213.872 97.2359 213.709 101.651 212.237 105.985C210.847 110.237 208.189 114.08 204.265 117.514C202.629 118.986 200.503 120.335 197.887 121.562C195.27 122.788 192.368 123.81 189.179 124.628C185.99 125.445 182.637 126.018 179.121 126.345C175.687 126.59 172.253 126.468 168.819 125.977L169.309 147.073C169.309 147.073 169.268 147.318 169.187 147.809C169.105 148.299 168.9 148.872 168.573 149.526C168.246 150.098 167.715 150.63 166.979 151.12C166.243 151.611 165.221 151.815 163.913 151.734ZM200.34 147.195C196.906 144.988 193.308 142.862 189.547 140.818C185.785 138.692 181.82 136.525 177.649 134.317C173.479 132.109 168.982 129.779 164.158 127.326C164.158 126.835 164.485 126.345 165.139 125.854C165.793 125.282 166.611 124.791 167.592 124.382C168.655 123.892 169.677 123.442 170.658 123.033C171.721 122.624 172.58 122.338 173.234 122.175C173.97 121.929 174.338 121.807 174.338 121.807C176.709 122.788 178.917 123.728 180.961 124.628C183.005 125.527 185.009 126.468 186.971 127.449C188.933 128.348 190.937 129.37 192.981 130.515C195.107 131.578 197.314 132.845 199.604 134.317C201.975 135.707 204.592 137.343 207.454 139.223C207.454 139.223 207.576 139.346 207.821 139.591C208.067 139.836 208.312 140.204 208.557 140.695C208.884 141.186 209.089 141.758 209.171 142.412C209.334 142.984 209.334 143.639 209.171 144.374C209.089 145.11 208.68 145.887 207.944 146.705C207.454 147.441 206.759 147.89 205.859 148.054C205.041 148.218 204.183 148.258 203.283 148.177C202.466 148.013 201.771 147.809 201.198 147.563C200.626 147.318 200.34 147.195 200.34 147.195ZM168.819 114.325C174.542 114.734 179.326 114.489 183.169 113.589C187.094 112.608 190.201 111.259 192.49 109.542C194.861 107.825 196.579 105.944 197.642 103.9C198.786 101.856 199.481 99.8524 199.727 97.89C199.727 94.374 198.868 91.5531 197.151 89.4271C195.516 87.3012 193.267 85.6658 190.405 84.5211C187.625 83.3764 184.395 82.6405 180.716 82.3134C177.118 81.9863 173.438 81.9046 169.677 82.0681C169.187 87.383 168.86 92.8205 168.696 98.3806C168.532 103.941 168.573 109.256 168.819 114.325ZM229.19 152.469C227.882 152.469 226.819 152.224 226.002 151.734C225.184 151.161 224.53 150.548 224.039 149.894C223.63 149.158 223.344 148.545 223.181 148.054C223.017 147.482 222.935 147.195 222.935 147.195C222.608 143.679 222.322 139.673 222.077 135.176C221.913 130.597 221.791 125.773 221.709 120.703C221.709 115.633 221.75 110.564 221.831 105.494C221.913 100.343 222.077 95.3961 222.322 90.6536C222.567 85.8294 222.854 81.4549 223.181 77.53C223.181 77.53 223.221 77.3256 223.303 76.9168C223.385 76.4262 223.589 75.8947 223.916 75.3223C224.244 74.6682 224.775 74.1367 225.511 73.7279C226.329 73.2373 227.392 72.992 228.7 72.992C230.09 73.0737 231.194 73.3599 232.011 73.8505C232.829 74.2594 233.442 74.8317 233.851 75.5676C234.342 76.2218 234.669 76.8759 234.832 77.53C234.996 78.1842 235.078 78.7565 235.078 79.2471C235.078 79.656 235.078 79.8604 235.078 79.8604C234.751 83.2128 234.505 87.0968 234.342 91.5122C234.178 95.8458 234.056 100.466 233.974 105.372C233.974 110.278 233.974 115.265 233.974 120.335C234.056 125.323 234.137 130.188 234.219 134.93C234.383 139.591 234.587 143.884 234.832 147.809C234.832 147.809 234.791 148.054 234.71 148.545C234.628 149.035 234.424 149.608 234.096 150.262C233.769 150.834 233.197 151.366 232.379 151.856C231.643 152.265 230.58 152.469 229.19 152.469ZM273.44 151.979C269.352 152.224 265.632 152.142 262.279 151.734C259.009 151.243 256.228 150.63 253.939 149.894C251.65 149.158 249.892 148.504 248.665 147.931C247.439 147.277 246.825 146.95 246.825 146.95C246.825 146.95 246.662 146.868 246.335 146.705C246.008 146.46 245.599 146.132 245.108 145.724C244.699 145.315 244.29 144.824 243.882 144.252C243.555 143.679 243.35 143.025 243.268 142.289C243.268 141.554 243.473 140.818 243.882 140.082C244.372 139.182 244.945 138.569 245.599 138.242C246.253 137.833 246.907 137.629 247.561 137.629C248.215 137.547 248.747 137.588 249.156 137.751C249.646 137.833 249.892 137.874 249.892 137.874C253.08 139.182 256.392 140.123 259.826 140.695C263.26 141.267 266.49 141.472 269.516 141.308C272.541 141.063 275.076 140.368 277.12 139.223C279.246 138.078 280.554 136.402 281.045 134.195C281.454 132.15 281.167 130.351 280.186 128.798C279.287 127.163 277.897 125.691 276.016 124.382C274.135 123.074 271.969 121.889 269.516 120.826C267.144 119.681 264.773 118.618 262.402 117.637C260.848 116.983 259.172 116.083 257.373 114.938C255.574 113.794 253.857 112.404 252.222 110.768C250.668 109.133 249.319 107.334 248.174 105.372C247.03 103.328 246.294 101.161 245.967 98.8712C245.64 96.5 245.844 94.0061 246.58 91.3895C247.398 88.773 248.992 86.0747 251.363 83.2946C253.735 80.4328 256.228 78.2659 258.845 76.7941C261.543 75.2406 264.242 74.1367 266.94 73.4826C269.638 72.8284 272.173 72.5014 274.544 72.5014C276.997 72.5014 279.164 72.6649 281.045 72.992C283.007 73.319 284.52 73.6461 285.583 73.9732C286.728 74.3002 287.3 74.4638 287.3 74.4638C287.3 74.4638 287.504 74.5455 287.913 74.7091C288.404 74.8726 288.976 75.1588 289.63 75.5676C290.284 75.9765 290.939 76.4671 291.593 77.0394C292.247 77.53 292.737 78.1842 293.064 79.0018C293.392 79.7377 293.473 80.5963 293.31 81.5775C293.064 82.6405 292.574 83.4581 291.838 84.0305C291.184 84.5211 290.448 84.8073 289.63 84.8891C288.894 84.9708 288.24 85.0117 287.668 85.0117C287.095 84.9299 286.809 84.8891 286.809 84.8891C282.721 83.6626 278.878 83.3764 275.28 84.0305C271.682 84.6029 268.534 85.7885 265.836 87.5874C263.22 89.3862 261.216 91.4713 259.826 93.8425C258.518 96.132 258.191 98.3397 258.845 100.466C259.336 102.265 260.48 103.859 262.279 105.249C264.16 106.557 266.368 107.825 268.902 109.051C271.519 110.196 274.217 111.422 276.997 112.731C279.777 113.957 282.353 115.388 284.724 117.023C287.095 118.577 288.976 120.458 290.366 122.665C292.247 125.691 293.351 128.593 293.678 131.374C294.005 134.154 293.719 136.77 292.819 139.223C291.92 141.594 290.53 143.679 288.649 145.478C286.768 147.277 284.52 148.749 281.903 149.894C279.287 151.039 276.466 151.734 273.44 151.979ZM335.687 153.328C330.536 153.328 325.834 152.388 321.583 150.507C317.331 148.626 313.692 146.01 310.667 142.657C307.641 139.223 305.352 135.217 303.798 130.638C302.326 125.977 301.754 120.867 302.081 115.306C302.326 109.746 303.43 104.39 305.393 99.2392C307.437 94.0878 310.176 89.468 313.61 85.3797C317.045 81.2913 321.01 78.0615 325.507 75.6903C330.086 73.2373 335.074 72.0108 340.471 72.0108C344.559 72.0108 348.729 72.4605 352.981 73.3599C357.233 74.2594 361.24 75.7312 365.001 77.7753C368.844 79.7377 372.237 82.3952 375.181 85.7476C378.124 89.0183 380.373 93.0249 381.927 97.7674C383.48 102.51 384.093 108.07 383.766 114.448C383.521 119.681 382.376 124.382 380.332 128.553C378.288 132.641 375.59 136.239 372.237 139.346C368.966 142.453 365.246 145.07 361.076 147.195C356.988 149.24 352.736 150.793 348.32 151.856C343.987 152.837 339.776 153.328 335.687 153.328ZM352.981 168.782C351.673 169.109 350.528 169.109 349.547 168.782C348.566 168.455 347.707 168.005 346.971 167.433C346.235 166.942 345.704 166.452 345.377 165.961C345.05 165.552 344.886 165.348 344.886 165.348C343.087 160.523 341.493 156.026 340.103 151.856C338.713 147.604 337.527 143.516 336.546 139.591C335.565 135.666 334.706 131.742 333.97 127.817C333.97 127.817 333.97 127.571 333.97 127.081C333.97 126.59 334.052 126.018 334.216 125.364C334.379 124.71 334.665 124.096 335.074 123.524C335.483 122.952 336.137 122.624 337.037 122.543C338.263 122.297 339.285 122.461 340.103 123.033C340.92 123.606 341.534 124.219 341.943 124.873C342.433 125.445 342.678 125.732 342.678 125.732C343.823 128.757 345.131 132.232 346.603 136.157C348.157 140 349.751 144.129 351.387 148.545C353.104 152.96 354.78 157.539 356.415 162.281C356.415 162.281 356.456 162.527 356.538 163.017C356.701 163.59 356.742 164.244 356.661 164.98C356.579 165.716 356.252 166.411 355.679 167.065C355.189 167.801 354.289 168.373 352.981 168.782ZM338.14 141.431C341.002 141.431 343.905 141.063 346.849 140.327C349.792 139.509 352.572 138.365 355.189 136.893C357.887 135.339 360.34 133.418 362.548 131.128C364.755 128.757 366.513 126.018 367.822 122.911C369.212 119.804 369.989 116.288 370.152 112.363C370.479 107.048 369.866 102.551 368.312 98.8712C366.841 95.1917 364.715 92.289 361.935 90.163C359.236 87.9553 356.17 86.3609 352.736 85.3797C349.383 84.3167 345.908 83.7852 342.31 83.7852C338.795 83.7852 335.442 84.6029 332.253 86.2382C329.146 87.8736 326.366 90.1221 323.913 92.984C321.46 95.8458 319.498 99.1574 318.026 102.919C316.636 106.598 315.818 110.523 315.573 114.693C315.327 120.253 316.104 125.037 317.903 129.043C319.702 133.05 322.359 136.116 325.875 138.242C329.391 140.368 333.48 141.431 338.14 141.431ZM427.667 152.837C420.635 152.347 414.706 150.384 409.882 146.95C405.058 143.434 401.338 138.406 398.721 131.864C396.104 125.323 394.633 117.228 394.306 107.579V76.9168C394.306 76.9168 394.346 76.7124 394.428 76.3035C394.592 75.8947 394.796 75.445 395.042 74.9544C395.369 74.382 395.9 73.8914 396.636 73.4826C397.372 73.0737 398.353 72.8693 399.58 72.8693C401.215 72.8693 402.482 73.1555 403.382 73.7279C404.363 74.2185 405.099 74.8317 405.589 75.5676C406.08 76.3035 406.407 76.9577 406.571 77.53C406.734 78.0206 406.816 78.2659 406.816 78.2659L407.307 106.966C407.225 113.916 407.879 119.926 409.269 124.996C410.659 129.984 412.826 133.867 415.769 136.648C418.795 139.428 422.597 141.104 427.176 141.676C431.019 141.104 434.29 139.591 436.988 137.138C439.768 134.603 441.853 130.719 443.243 125.486C444.715 120.253 445.41 113.344 445.328 104.758L444.96 78.6339C444.96 78.6339 444.96 78.3886 444.96 77.898C444.96 77.4074 445.083 76.8759 445.328 76.3035C445.655 75.7312 446.187 75.1997 446.923 74.7091C447.659 74.2185 448.722 73.9732 450.112 73.9732C451.502 73.9732 452.646 74.2185 453.546 74.7091C454.527 75.1179 455.263 75.6903 455.753 76.4262C456.326 77.0803 456.735 77.7753 456.98 78.5112C457.307 79.1654 457.511 79.7377 457.593 80.2283C457.675 80.7189 457.716 80.9643 457.716 80.9643L458.329 106.108C458.493 112.404 458.125 118.332 457.225 123.892C456.326 129.37 454.731 134.276 452.442 138.61C450.234 142.862 447.086 146.255 442.998 148.79C438.991 151.243 433.881 152.592 427.667 152.837ZM475.21 152.469C473.902 152.469 472.839 152.224 472.021 151.734C471.203 151.161 470.549 150.548 470.059 149.894C469.65 149.158 469.363 148.545 469.2 148.054C469.036 147.482 468.955 147.195 468.955 147.195C468.628 143.679 468.341 139.673 468.096 135.176C467.933 130.597 467.81 125.773 467.728 120.703C467.728 115.633 467.769 110.564 467.851 105.494C467.933 100.343 468.096 95.3961 468.341 90.6536C468.587 85.8294 468.873 81.4549 469.2 77.53C469.2 77.53 469.241 77.3256 469.323 76.9168C469.404 76.4262 469.609 75.8947 469.936 75.3223C470.263 74.6682 470.794 74.1367 471.53 73.7279C472.348 73.2373 473.411 72.992 474.719 72.992C476.109 73.0737 477.213 73.3599 478.031 73.8505C478.848 74.2594 479.462 74.8317 479.871 75.5676C480.361 76.2218 480.688 76.8759 480.852 77.53C481.015 78.1842 481.097 78.7565 481.097 79.2471C481.097 79.656 481.097 79.8604 481.097 79.8604C480.77 83.2128 480.525 87.0968 480.361 91.5122C480.198 95.8458 480.075 100.466 479.993 105.372C479.993 110.278 479.993 115.265 479.993 120.335C480.075 125.323 480.157 130.188 480.238 134.93C480.402 139.591 480.606 143.884 480.852 147.809C480.852 147.809 480.811 148.054 480.729 148.545C480.647 149.035 480.443 149.608 480.116 150.262C479.789 150.834 479.216 151.366 478.399 151.856C477.663 152.265 476.6 152.469 475.21 152.469ZM500.42 152.469C499.603 152.551 498.703 152.51 497.722 152.347C496.822 152.101 496.005 151.734 495.269 151.243C494.533 150.671 493.92 150.016 493.429 149.281C492.939 148.545 492.693 147.686 492.693 146.705C492.775 145.724 493.143 144.702 493.797 143.639C496.659 139.55 499.48 135.421 502.26 131.251C505.04 126.999 507.902 122.584 510.846 118.005C513.871 113.344 516.978 108.397 520.167 103.164C523.438 97.9309 526.954 92.289 530.715 86.2382C526.381 84.194 521.434 83.2946 515.874 83.5399C510.396 83.7034 504.59 84.5211 498.458 85.9929C498.458 85.9929 498.172 86.0338 497.599 86.1156C497.109 86.1156 496.455 86.1156 495.637 86.1156C494.901 86.0338 494.124 85.8294 493.307 85.5023C492.571 85.0935 491.998 84.4802 491.589 83.6626C491.017 82.6814 490.69 81.8228 490.608 81.0869C490.526 80.351 490.608 79.7377 490.853 79.2471C491.181 78.7565 491.549 78.3477 491.957 78.0206C492.366 77.6936 492.693 77.4892 492.939 77.4074C493.266 77.2439 493.429 77.1621 493.429 77.1621C500.379 74.7091 507.534 73.3599 514.893 73.1146C522.252 72.8693 529.57 73.687 536.847 75.5676C538.319 76.2218 539.627 77.0394 540.772 78.0206C541.917 79.0018 542.816 80.1875 543.471 81.5775C544.206 82.8858 544.574 84.3576 544.574 85.9929C544.656 87.6283 544.288 89.3862 543.471 91.2669C541.508 94.7011 539.546 98.0127 537.583 101.202C535.621 104.39 533.618 107.579 531.573 110.768C529.611 113.875 527.526 117.064 525.318 120.335C523.192 123.524 520.903 126.876 518.45 130.392C516.079 133.827 513.462 137.506 510.6 141.431L539.791 139.959C539.791 139.959 540.077 140 540.65 140.082C541.304 140.164 542.04 140.368 542.857 140.695C543.757 140.94 544.533 141.39 545.188 142.044C545.924 142.617 546.332 143.475 546.414 144.62C546.578 145.846 546.455 146.828 546.046 147.563C545.719 148.299 545.269 148.872 544.697 149.281C544.125 149.608 543.593 149.812 543.103 149.894C542.694 149.976 542.489 150.016 542.489 150.016L500.42 152.469Z" fill="#F7F7F7"/>
<path d="M566.28 99.2392C564.644 99.3209 563.213 99.1574 561.987 98.7486C560.842 98.3397 559.902 97.7674 559.166 97.0314C558.512 96.2955 558.021 95.5188 557.694 94.7011C557.367 93.8017 557.163 92.9431 557.081 92.1254C557.081 89.9177 557.326 87.8327 557.817 85.8703C558.307 83.8261 558.961 81.9863 559.779 80.351C560.679 78.7157 561.619 77.3665 562.6 76.3035C562.6 76.3035 562.845 76.0991 563.336 75.6903C563.827 75.2814 564.522 74.9544 565.421 74.7091C566.321 74.4638 567.343 74.5864 568.487 75.077C569.632 75.4041 570.368 75.9356 570.695 76.6715C571.104 77.4074 571.308 78.0615 571.308 78.6339C571.308 79.2063 571.308 79.4924 571.308 79.4924L569.223 86.6062C570.695 88.2415 571.431 89.9995 571.431 91.8801C571.513 93.679 571.063 95.2735 570.082 96.6635C569.182 98.0535 567.915 98.9121 566.28 99.2392ZM607.739 153.696C602.343 152.796 597.968 151.284 594.616 149.158C591.345 146.95 588.81 144.415 587.011 141.554C585.294 138.61 584.109 135.462 583.455 132.109C582.882 128.757 582.596 125.445 582.596 122.175C582.514 118.495 583.168 114.816 584.558 111.136C586.03 107.375 588.115 103.941 590.814 100.834C593.594 97.7265 596.905 95.3143 600.748 93.5972C604.673 91.8801 609.007 91.1851 613.749 91.5122C618.573 91.8392 622.498 92.7796 625.524 94.3331C628.549 95.8049 630.879 97.6447 632.515 99.8524C634.232 102.06 635.377 104.39 635.949 106.843C636.603 109.296 636.971 111.627 637.053 113.835C636.971 117.923 635.867 121.357 633.741 124.137C631.697 126.835 628.467 128.675 624.052 129.656C622.744 129.902 621.067 130.106 619.023 130.27C617.061 130.351 614.935 130.392 612.645 130.392C610.438 130.392 608.23 130.351 606.022 130.27C603.896 130.188 601.893 130.106 600.012 130.024C598.214 129.943 596.742 129.902 595.597 129.902C594.534 129.82 594.003 129.779 594.003 129.779C594.248 132.069 594.984 134.317 596.21 136.525C597.437 138.651 599.195 140.409 601.484 141.799C603.855 143.189 606.799 144.007 610.315 144.252C613.34 144.334 616.161 144.293 618.778 144.129C621.394 143.966 623.684 143.72 625.646 143.393C627.69 143.066 629.244 142.78 630.307 142.535C631.37 142.289 631.901 142.167 631.901 142.167C631.901 142.167 632.106 142.167 632.515 142.167C633.005 142.085 633.537 142.085 634.109 142.167C634.763 142.249 635.417 142.494 636.072 142.903C636.726 143.23 637.257 143.843 637.666 144.742C638.157 145.56 638.32 146.296 638.157 146.95C638.075 147.523 637.87 148.054 637.543 148.545C637.216 148.953 636.889 149.281 636.562 149.526C636.317 149.689 636.194 149.771 636.194 149.771C636.194 149.771 635.336 150.057 633.619 150.63C631.901 151.202 629.612 151.815 626.75 152.469C623.97 153.205 620.904 153.737 617.551 154.064C614.199 154.391 610.928 154.268 607.739 153.696ZM594.003 122.175L618.042 121.929C618.042 121.929 618.328 121.889 618.901 121.807C619.473 121.643 620.168 121.439 620.986 121.194C621.885 120.948 622.744 120.499 623.561 119.844C624.461 119.19 625.197 118.332 625.769 117.269C626.341 116.124 626.628 114.693 626.628 112.976C626.628 110.114 626.137 107.743 625.156 105.862C624.174 103.982 622.539 102.632 620.25 101.815C617.96 100.915 614.771 100.588 610.683 100.834C607.821 100.997 605.286 101.897 603.079 103.532C600.953 105.085 599.154 107.007 597.682 109.296C596.292 111.586 595.27 113.916 594.616 116.288C593.962 118.577 593.757 120.539 594.003 122.175ZM12.7556 310.469C11.4474 310.469 10.3844 310.224 9.56673 309.734C8.74906 309.161 8.09493 308.548 7.60432 307.894C7.19549 307.158 6.9093 306.545 6.74577 306.054C6.58224 305.482 6.50047 305.195 6.50047 305.195C6.1734 301.679 5.88722 297.673 5.64192 293.176C5.47838 288.597 5.35573 283.773 5.27397 278.703C5.27397 273.633 5.31485 268.564 5.39662 263.494C5.47838 258.343 5.64192 253.396 5.88722 248.654C6.13252 243.829 6.4187 239.455 6.74577 235.53C6.74577 235.53 6.78665 235.326 6.86842 234.917C6.95019 234.426 7.15461 233.895 7.48167 233.322C7.80874 232.668 8.34023 232.137 9.07613 231.728C9.8938 231.237 10.9568 230.992 12.265 230.992C13.6551 231.074 14.7589 231.36 15.5766 231.851C16.3943 232.259 17.0075 232.832 17.4164 233.568C17.907 234.222 18.234 234.876 18.3976 235.53C18.5611 236.184 18.6429 236.757 18.6429 237.247C18.6429 237.656 18.6429 237.86 18.6429 237.86C18.3158 241.213 18.0705 245.097 17.907 249.512C17.7434 253.846 17.6208 258.466 17.539 263.372C17.539 268.278 17.539 273.265 17.539 278.335C17.6208 283.323 17.7025 288.188 17.7843 292.93C17.9478 297.591 18.1523 301.884 18.3976 305.809C18.3976 305.809 18.3567 306.054 18.2749 306.545C18.1931 307.035 17.9887 307.608 17.6617 308.262C17.3346 308.834 16.7622 309.366 15.9446 309.856C15.2086 310.265 14.1457 310.469 12.7556 310.469ZM10.4253 282.996L12.265 271.957L57.891 268.646L58.1363 280.052L10.4253 282.996ZM60.8346 310.469C59.5263 310.469 58.4225 310.224 57.523 309.734C56.7054 309.161 56.0921 308.548 55.6833 307.894C55.2744 307.158 54.9883 306.545 54.8247 306.054C54.6612 305.482 54.5794 305.195 54.5794 305.195C54.1706 301.679 53.8844 297.673 53.7209 293.176C53.5573 288.597 53.4347 283.773 53.3529 278.703C53.2711 273.633 53.2711 268.564 53.3529 263.494C53.5164 258.343 53.7209 253.396 53.9662 248.654C54.2115 243.829 54.4977 239.455 54.8247 235.53C54.8247 235.53 54.8656 235.326 54.9474 234.917C55.0291 234.426 55.2336 233.895 55.5606 233.322C55.8877 232.668 56.4192 232.137 57.1551 231.728C57.9727 231.237 59.0357 230.992 60.344 230.992C61.734 231.074 62.8379 231.36 63.6556 231.851C64.4732 232.259 65.0865 232.832 65.4953 233.568C65.9041 234.222 66.1903 234.876 66.3539 235.53C66.5992 236.184 66.7218 236.757 66.7218 237.247C66.7218 237.656 66.7218 237.86 66.7218 237.86C66.3947 241.213 66.1494 245.097 65.9859 249.512C65.8224 253.846 65.6997 258.466 65.618 263.372C65.618 268.278 65.618 273.265 65.618 278.335C65.6997 283.323 65.7815 288.188 65.8633 292.93C66.0268 297.591 66.2312 301.884 66.4765 305.809C66.4765 305.809 66.4356 306.054 66.3539 306.545C66.2721 307.035 66.0268 307.608 65.618 308.262C65.2909 308.834 64.7594 309.366 64.0235 309.856C63.2876 310.265 62.2246 310.469 60.8346 310.469ZM103.687 310.224C99.4346 310.224 95.5098 309.447 91.9121 307.894C88.3961 306.34 85.3707 304.255 82.836 301.639C80.3012 298.94 78.3388 295.792 76.9487 292.195C75.5587 288.597 74.8637 284.754 74.8637 280.665C74.8637 276.577 75.5996 272.652 77.0714 268.891C78.625 265.048 80.7918 261.655 83.5719 258.711C86.3519 255.767 89.5817 253.437 93.2612 251.72C96.9407 250.003 100.906 249.144 105.158 249.144C109.41 249.144 113.376 249.757 117.055 250.984C120.735 252.21 123.924 254.091 126.622 256.626C129.402 259.079 131.528 262.268 133 266.193C134.554 270.036 135.33 274.574 135.33 279.807C135.33 283.895 134.513 287.779 132.877 291.459C131.242 295.138 128.912 298.368 125.886 301.148C122.943 303.928 119.549 306.136 115.706 307.771C111.945 309.406 107.938 310.224 103.687 310.224ZM103.564 299.308C106.18 299.308 108.633 298.777 110.923 297.714C113.294 296.569 115.379 295.056 117.178 293.176C118.977 291.295 120.408 289.169 121.471 286.798C122.534 284.345 123.065 281.769 123.065 279.071C123.065 274.492 122.288 270.731 120.735 267.787C119.263 264.843 117.219 262.677 114.602 261.287C111.986 259.815 108.96 259.079 105.526 259.079C102.992 259.079 100.62 259.733 98.4126 261.041C96.2048 262.268 94.2424 263.944 92.5253 266.07C90.89 268.114 89.5817 270.445 88.6005 273.061C87.6193 275.678 87.1287 278.335 87.1287 281.033C87.1287 284.549 87.7829 287.697 89.0911 290.477C90.4812 293.257 92.4027 295.424 94.8557 296.978C97.3905 298.531 100.293 299.308 103.564 299.308ZM167.535 301.639C172.441 301.475 175.466 300.698 176.611 299.308C177.837 297.836 177.388 295.792 175.262 293.176C174.362 292.031 173.013 290.804 171.214 289.496C169.415 288.188 167.453 286.798 165.327 285.326C163.283 283.773 161.239 282.137 159.194 280.42C157.232 278.621 155.515 276.659 154.043 274.533C152.571 272.407 151.631 270.077 151.222 267.542C150.732 264.189 151.222 261.164 152.694 258.466C154.248 255.686 156.782 253.519 160.298 251.965C163.814 250.33 168.271 249.553 173.667 249.635C179.064 249.635 185.36 250.739 192.555 252.946C192.555 252.946 192.678 253.069 192.923 253.314C193.25 253.478 193.577 253.764 193.904 254.173C194.232 254.582 194.518 255.072 194.763 255.645C195.008 256.217 195.049 256.871 194.886 257.607C194.722 258.261 194.436 258.793 194.027 259.202C193.7 259.529 193.291 259.815 192.801 260.06C192.392 260.224 192.024 260.305 191.697 260.305C191.37 260.305 191.206 260.305 191.206 260.305C191.206 260.305 190.756 260.265 189.857 260.183C188.958 260.101 187.772 260.019 186.3 259.937C184.828 259.856 183.193 259.815 181.394 259.815C179.595 259.733 177.756 259.774 175.875 259.937C174.076 260.019 172.359 260.224 170.724 260.551C169.088 260.878 167.739 261.368 166.676 262.023C165.204 263.004 164.182 264.067 163.61 265.211C163.119 266.356 163.078 267.624 163.487 269.014C163.978 270.322 165 271.753 166.553 273.306C168.189 274.86 170.437 276.495 173.299 278.212C177.388 280.665 180.822 283.282 183.602 286.062C186.382 288.842 188.263 291.704 189.244 294.648C190.225 297.509 190.102 300.371 188.876 303.233C188.058 305.114 186.423 306.667 183.97 307.894C181.517 309.12 178.614 309.938 175.262 310.347C171.909 310.674 168.393 310.592 164.714 310.101C161.034 309.529 157.396 308.466 153.798 306.913C150.282 305.359 147.216 303.233 144.599 300.535C144.599 300.535 144.476 300.412 144.231 300.167C144.068 299.921 143.904 299.594 143.74 299.186C143.577 298.695 143.495 298.204 143.495 297.714C143.577 297.141 143.822 296.61 144.231 296.119C144.722 295.547 145.253 295.22 145.826 295.138C146.48 294.975 147.093 294.934 147.665 295.015C148.238 295.097 148.687 295.22 149.014 295.383C149.423 295.465 149.628 295.506 149.628 295.506C149.628 295.506 150.118 295.833 151.1 296.487C152.081 297.141 153.389 297.918 155.024 298.818C156.741 299.635 158.663 300.33 160.789 300.903C162.997 301.475 165.245 301.72 167.535 301.639ZM171.337 341.623C168.557 341.459 166.145 340.805 164.1 339.66C162.056 338.515 160.176 337.166 158.459 335.613C158.459 335.613 158.336 335.49 158.091 335.245C157.927 334.999 157.764 334.672 157.6 334.264C157.436 333.937 157.396 333.528 157.477 333.037C157.559 332.546 157.845 332.056 158.336 331.565C158.908 331.075 159.481 330.829 160.053 330.829C160.707 330.829 161.239 330.911 161.647 331.075C162.138 331.238 162.383 331.32 162.383 331.32C163.855 332.465 165.327 333.405 166.799 334.141C168.352 334.877 170.029 335.286 171.827 335.367C173.626 335.286 174.975 334.918 175.875 334.264C176.774 333.691 177.347 332.914 177.592 331.933C177.919 330.952 178.001 329.889 177.837 328.744C177.51 327.273 176.815 326.087 175.752 325.187C174.689 324.37 173.299 323.716 171.582 323.225C171.01 323.225 170.397 323.102 169.742 322.857C169.088 322.612 168.516 322.285 168.025 321.876C167.616 321.467 167.453 321.058 167.535 320.649C167.208 319.014 167.003 317.297 166.921 315.498C166.921 313.781 167.003 312.268 167.167 310.96C167.167 310.96 167.208 310.715 167.289 310.224C167.453 309.734 167.739 309.284 168.148 308.875C168.557 308.384 169.211 308.139 170.11 308.139C171.092 308.139 171.787 308.589 172.195 309.488C172.604 310.306 172.809 310.715 172.809 310.715C173.054 311.614 173.299 312.718 173.545 314.026C173.79 315.335 173.953 316.725 174.035 318.196C175.425 318.442 176.733 318.891 177.96 319.546C179.268 320.2 180.413 321.017 181.394 321.999C182.375 322.98 183.152 324.043 183.725 325.187C184.379 326.414 184.787 327.722 184.951 329.112C185.278 332.301 184.869 334.836 183.725 336.717C182.662 338.597 181.026 339.906 178.818 340.641C176.693 341.377 174.199 341.704 171.337 341.623ZM247.455 336.349C241.731 336.676 236.334 336.308 231.265 335.245C226.195 334.264 221.453 332.71 217.038 330.584C217.038 330.584 216.792 330.461 216.302 330.216C215.811 329.971 215.28 329.562 214.707 328.99C214.217 328.499 213.808 327.845 213.481 327.027C213.235 326.291 213.276 325.392 213.603 324.329C213.93 323.348 214.421 322.612 215.075 322.121C215.811 321.712 216.547 321.467 217.283 321.385C218.019 321.385 218.632 321.385 219.123 321.385C219.613 321.467 219.858 321.508 219.858 321.508C222.72 322.571 225.419 323.429 227.953 324.084C230.57 324.738 233.186 325.187 235.803 325.433C238.42 325.678 241.118 325.76 243.898 325.678C247.741 325.515 250.889 324.82 253.342 323.593C255.877 322.367 257.757 320.527 258.984 318.074C260.292 315.703 261.028 312.759 261.192 309.243C261.519 303.683 261.682 298.491 261.682 293.666C261.764 288.76 261.682 284.1 261.437 279.684C261.192 275.269 260.824 270.976 260.333 266.806C259.842 262.554 259.27 258.302 258.616 254.05C258.616 254.05 258.698 253.764 258.861 253.192C259.107 252.538 259.556 251.924 260.21 251.352C260.946 250.78 262.091 250.493 263.645 250.493C265.198 250.412 266.466 250.698 267.447 251.352C268.51 251.924 269.246 252.538 269.655 253.192C270.145 253.846 270.39 254.173 270.39 254.173C271.862 260.224 272.884 266.438 273.457 272.816C274.111 279.194 274.438 285.776 274.438 292.562C274.438 299.267 274.233 306.218 273.825 313.413C272.843 320.772 270.145 326.332 265.73 330.093C261.396 333.855 255.304 335.94 247.455 336.349ZM232.859 310.224C228.199 310.224 223.988 309.488 220.226 308.016C216.465 306.463 213.194 304.337 210.414 301.639C207.634 298.94 205.467 295.792 203.914 292.195C202.442 288.597 201.706 284.754 201.706 280.665C201.706 276.332 202.565 272.284 204.282 268.523C206.081 264.68 208.452 261.328 211.396 258.466C214.421 255.522 217.937 253.273 221.944 251.72C225.95 250.085 230.243 249.226 234.822 249.144C241.363 249.144 246.964 250.248 251.625 252.456C256.367 254.582 260.047 257.934 262.663 262.513C265.28 267.01 266.588 272.775 266.588 279.807C266.588 283.895 265.771 287.779 264.135 291.459C262.5 295.056 260.21 298.245 257.267 301.025C254.323 303.805 250.766 306.013 246.596 307.648C242.508 309.284 237.929 310.142 232.859 310.224ZM233.227 299.186C236.089 299.186 238.828 298.654 241.445 297.591C244.061 296.446 246.392 294.934 248.436 293.053C250.48 291.172 252.075 289.006 253.219 286.553C254.446 284.018 255.059 281.401 255.059 278.703C255.059 274.124 254.201 270.363 252.483 267.419C250.766 264.394 248.436 262.186 245.492 260.796C242.631 259.324 239.278 258.588 235.435 258.588C232.573 258.588 229.916 259.242 227.463 260.551C225.01 261.777 222.802 263.453 220.84 265.579C218.959 267.705 217.487 270.117 216.424 272.816C215.361 275.432 214.83 278.09 214.83 280.788C214.83 284.304 215.566 287.493 217.038 290.355C218.591 293.135 220.717 295.302 223.415 296.855C226.195 298.409 229.466 299.186 233.227 299.186ZM306.503 311.696C301.107 310.796 296.732 309.284 293.38 307.158C290.109 304.95 287.574 302.415 285.775 299.554C284.058 296.61 282.873 293.462 282.219 290.109C281.646 286.757 281.36 283.445 281.36 280.175C281.278 276.495 281.932 272.816 283.322 269.136C284.794 265.375 286.879 261.941 289.578 258.834C292.358 255.726 295.669 253.314 299.512 251.597C303.437 249.88 307.771 249.185 312.513 249.512C317.337 249.839 321.262 250.78 324.288 252.333C327.313 253.805 329.643 255.645 331.279 257.852C332.996 260.06 334.141 262.39 334.713 264.843C335.367 267.296 335.735 269.627 335.817 271.835C335.735 275.923 334.631 279.357 332.505 282.137C330.461 284.835 327.231 286.675 322.816 287.656C321.508 287.902 319.831 288.106 317.787 288.27C315.825 288.351 313.699 288.392 311.409 288.392C309.202 288.392 306.994 288.351 304.786 288.27C302.66 288.188 300.657 288.106 298.776 288.024C296.977 287.943 295.506 287.902 294.361 287.902C293.298 287.82 292.766 287.779 292.766 287.779C293.012 290.069 293.748 292.317 294.974 294.525C296.201 296.651 297.959 298.409 300.248 299.799C302.619 301.189 305.563 302.007 309.079 302.252C312.104 302.334 314.925 302.293 317.542 302.129C320.158 301.966 322.448 301.72 324.41 301.393C326.454 301.066 328.008 300.78 329.071 300.535C330.134 300.289 330.665 300.167 330.665 300.167C330.665 300.167 330.87 300.167 331.279 300.167C331.769 300.085 332.301 300.085 332.873 300.167C333.527 300.249 334.181 300.494 334.836 300.903C335.49 301.23 336.021 301.843 336.43 302.742C336.921 303.56 337.084 304.296 336.921 304.95C336.839 305.523 336.634 306.054 336.307 306.545C335.98 306.953 335.653 307.281 335.326 307.526C335.081 307.689 334.958 307.771 334.958 307.771C334.958 307.771 334.1 308.057 332.383 308.63C330.665 309.202 328.376 309.815 325.514 310.469C322.734 311.205 319.668 311.737 316.315 312.064C312.963 312.391 309.692 312.268 306.503 311.696ZM292.766 280.175L316.806 279.929C316.806 279.929 317.092 279.889 317.664 279.807C318.237 279.643 318.932 279.439 319.75 279.194C320.649 278.948 321.508 278.499 322.325 277.844C323.225 277.19 323.961 276.332 324.533 275.269C325.105 274.124 325.391 272.693 325.391 270.976C325.391 268.114 324.901 265.743 323.92 263.862C322.938 261.982 321.303 260.632 319.014 259.815C316.724 258.915 313.535 258.588 309.447 258.834C306.585 258.997 304.05 259.897 301.843 261.532C299.717 263.085 297.918 265.007 296.446 267.296C295.056 269.586 294.034 271.916 293.38 274.288C292.726 276.577 292.521 278.539 292.766 280.175ZM351.613 310.469C350.223 310.469 349.078 310.224 348.179 309.734C347.361 309.161 346.707 308.548 346.216 307.894C345.726 307.158 345.358 306.545 345.112 306.054C344.949 305.563 344.867 305.318 344.867 305.318C344.54 301.802 344.254 297.755 344.008 293.176C343.845 288.515 343.722 283.65 343.64 278.58C343.64 273.429 343.681 268.278 343.763 263.126C343.845 257.975 344.008 252.987 344.254 248.163C344.499 243.339 344.785 238.923 345.112 234.917C345.112 234.917 345.153 234.712 345.235 234.304C345.398 233.813 345.644 233.281 345.971 232.709C346.38 232.137 346.993 231.646 347.811 231.237C348.628 230.828 349.691 230.706 351 230.869C352.39 230.951 353.493 231.278 354.311 231.851C355.129 232.423 355.701 233.077 356.028 233.813C356.437 234.549 356.682 235.203 356.764 235.775C356.928 236.348 357.009 236.634 357.009 236.634C356.764 239.823 356.56 243.625 356.396 248.04C356.233 252.456 356.11 257.198 356.028 262.268C356.028 267.256 356.028 272.325 356.028 277.476C356.028 282.628 356.069 287.656 356.151 292.562C356.314 297.387 356.519 301.802 356.764 305.809C356.764 305.809 356.723 306.054 356.641 306.545C356.56 306.953 356.355 307.485 356.028 308.139C355.701 308.711 355.17 309.243 354.434 309.734C353.78 310.224 352.839 310.469 351.613 310.469ZM393.535 310.224C389.365 310.224 385.522 309.488 382.006 308.016C378.572 306.463 375.587 304.337 373.053 301.639C370.518 298.94 368.555 295.792 367.165 292.195C365.775 288.597 365.08 284.754 365.08 280.665C365.08 276.332 365.857 272.284 367.411 268.523C369.046 264.68 371.213 261.328 373.911 258.466C376.691 255.522 379.88 253.273 383.478 251.72C387.157 250.085 391.123 249.226 395.375 249.144C401.344 249.144 406.495 250.248 410.829 252.456C415.163 254.582 418.474 257.934 420.764 262.513C423.135 267.01 424.32 272.775 424.32 279.807C424.32 283.895 423.585 287.779 422.113 291.459C420.723 295.056 418.679 298.245 415.98 301.025C413.282 303.805 410.052 306.013 406.291 307.648C402.53 309.284 398.278 310.142 393.535 310.224ZM394.026 299.186C396.561 299.186 398.973 298.654 401.262 297.591C403.633 296.446 405.678 294.934 407.395 293.053C409.194 291.172 410.625 289.006 411.687 286.553C412.75 284.018 413.282 281.401 413.282 278.703C413.282 274.124 412.505 270.363 410.952 267.419C409.48 264.394 407.436 262.186 404.819 260.796C402.284 259.324 399.341 258.588 395.988 258.588C393.535 258.588 391.164 259.242 388.875 260.551C386.667 261.777 384.704 263.453 382.987 265.579C381.352 267.705 380.044 270.117 379.062 272.816C378.163 275.432 377.713 278.09 377.713 280.788C377.713 284.304 378.367 287.493 379.676 290.355C381.066 293.135 382.987 295.302 385.44 296.855C387.893 298.409 390.755 299.186 394.026 299.186ZM424.32 310.469C422.93 310.469 421.786 310.224 420.886 309.734C420.069 309.161 419.414 308.548 418.924 307.894C418.433 307.158 418.065 306.545 417.82 306.054C417.656 305.563 417.575 305.318 417.575 305.318C417.248 301.802 416.961 297.755 416.716 293.176C416.553 288.515 416.43 283.65 416.348 278.58C416.266 273.429 416.266 268.278 416.348 263.126C416.512 257.975 416.716 252.987 416.961 248.163C417.207 243.339 417.493 238.923 417.82 234.917C417.82 234.917 417.861 234.712 417.943 234.304C418.106 233.813 418.392 233.281 418.801 232.709C419.21 232.137 419.782 231.646 420.518 231.237C421.336 230.828 422.44 230.706 423.83 230.869C425.22 230.951 426.283 231.278 427.019 231.851C427.836 232.423 428.409 233.077 428.736 233.813C429.145 234.549 429.39 235.203 429.472 235.775C429.635 236.348 429.717 236.634 429.717 236.634C429.472 239.823 429.267 243.625 429.104 248.04C429.022 252.456 428.94 257.198 428.859 262.268C428.777 267.256 428.736 272.325 428.736 277.476C428.736 282.628 428.818 287.656 428.981 292.562C429.145 297.387 429.349 301.802 429.594 305.809C429.594 305.809 429.513 306.054 429.349 306.545C429.267 306.953 429.063 307.485 428.736 308.139C428.491 308.711 428 309.243 427.264 309.734C426.528 310.224 425.547 310.469 424.32 310.469ZM446.583 310.347C445.439 310.265 444.457 310.02 443.64 309.611C442.904 309.12 442.291 308.589 441.8 308.016C441.309 307.362 440.942 306.831 440.696 306.422C440.533 306.013 440.451 305.809 440.451 305.809C439.96 301.393 439.592 297.101 439.347 292.93C439.184 288.76 439.102 284.631 439.102 280.543C439.102 276.373 439.224 272.08 439.47 267.664C439.715 263.249 440.042 258.588 440.451 253.682C440.451 253.682 440.492 253.478 440.574 253.069C440.655 252.578 440.86 252.047 441.187 251.475C441.596 250.902 442.168 250.412 442.904 250.003C443.722 249.512 444.825 249.308 446.215 249.39C447.606 249.39 448.709 249.676 449.527 250.248C450.345 250.82 450.917 251.515 451.244 252.333C451.653 253.069 451.898 253.723 451.98 254.296C452.144 254.868 452.225 255.154 452.225 255.154C451.98 259.242 451.776 263.249 451.612 267.174C451.449 271.099 451.367 275.105 451.367 279.194C451.367 283.282 451.408 287.534 451.489 291.949C451.653 296.283 451.898 300.862 452.225 305.686C452.225 305.686 452.184 305.931 452.103 306.422C452.021 306.913 451.776 307.485 451.367 308.139C451.04 308.711 450.508 309.243 449.772 309.734C449.036 310.224 447.973 310.429 446.583 310.347ZM446.706 243.625C444.498 243.625 442.781 242.971 441.555 241.663C440.41 240.354 439.838 238.76 439.838 236.879C439.838 234.508 440.41 232.791 441.555 231.728C442.781 230.583 444.498 230.011 446.706 230.011C448.914 230.011 450.59 230.706 451.735 232.096C452.879 233.404 453.452 234.999 453.452 236.879C453.452 238.106 453.247 239.25 452.839 240.313C452.512 241.295 451.857 242.071 450.876 242.644C449.895 243.216 448.505 243.543 446.706 243.625ZM510.68 308.139C509.29 307.73 508.227 307.158 507.491 306.422C506.755 305.686 506.264 304.95 506.019 304.214C505.774 303.397 505.61 302.702 505.528 302.129C505.528 301.475 505.528 301.148 505.528 301.148C506.428 294.28 506.755 288.024 506.51 282.382C506.346 276.659 505.365 272.203 503.566 269.014C501.931 265.988 500.009 263.821 497.801 262.513C495.594 261.123 493.304 260.51 490.933 260.673C488.562 260.755 486.191 261.532 483.819 263.004C481.039 264.803 478.872 267.01 477.319 269.627C475.765 272.243 474.661 275.023 474.007 277.967C473.435 280.911 473.108 283.773 473.026 286.553C473.108 289.169 473.149 291.54 473.149 293.666C473.149 295.792 473.19 297.673 473.271 299.308C473.353 300.944 473.435 302.293 473.517 303.356C473.517 303.356 473.476 303.519 473.394 303.846C473.394 304.173 473.312 304.582 473.149 305.073C472.985 305.563 472.617 306.013 472.045 306.422C471.554 306.831 470.737 307.076 469.592 307.158C468.611 307.24 467.752 307.035 467.016 306.545C466.28 306.054 465.667 305.563 465.176 305.073C464.768 304.582 464.563 304.337 464.563 304.337C463.664 302.865 463.173 301.434 463.091 300.044C463.091 298.654 463.132 297.101 463.214 295.383C463.378 293.666 463.255 291.581 462.846 289.128C462.683 286.103 462.601 283.364 462.601 280.911C462.683 278.376 462.887 276.005 463.214 273.797C463.541 271.507 464.073 269.382 464.809 267.419C465.544 265.457 466.567 263.535 467.875 261.655C469.51 259.529 471.513 257.607 473.885 255.89C476.256 254.173 478.832 252.783 481.612 251.72C484.473 250.657 487.417 250.044 490.442 249.88C493.468 249.717 496.493 250.125 499.519 251.107C501.563 252.006 503.525 253.192 505.406 254.663C507.368 256.054 509.167 257.73 510.802 259.692C512.438 261.655 513.869 263.985 515.095 266.683C516.322 269.3 517.344 272.366 518.161 275.882C518.979 280.216 519.347 284.631 519.265 289.128C519.184 293.625 518.734 298.531 517.916 303.846C517.916 303.846 517.834 304.132 517.671 304.705C517.507 305.277 517.18 305.89 516.69 306.545C516.281 307.199 515.586 307.73 514.605 308.139C513.623 308.466 512.315 308.466 510.68 308.139ZM469.101 310.347C467.957 310.265 466.975 310.02 466.158 309.611C465.422 309.12 464.809 308.589 464.318 308.016C463.827 307.362 463.459 306.831 463.214 306.422C463.051 306.013 462.969 305.809 462.969 305.809C462.478 301.393 462.11 297.101 461.865 292.93C461.701 288.76 461.62 284.631 461.62 280.543C461.62 276.373 461.742 272.08 461.988 267.664C462.233 263.249 462.56 258.588 462.969 253.682C462.969 253.682 463.01 253.478 463.091 253.069C463.173 252.578 463.378 252.047 463.705 251.475C464.113 250.902 464.686 250.412 465.422 250.003C466.239 249.512 467.343 249.308 468.733 249.39C470.123 249.39 471.227 249.676 472.045 250.248C472.863 250.82 473.435 251.515 473.762 252.333C474.171 253.069 474.416 253.723 474.498 254.296C474.661 254.868 474.743 255.154 474.743 255.154C474.498 259.242 474.293 263.249 474.13 267.174C473.966 271.099 473.885 275.105 473.885 279.194C473.885 283.282 473.926 287.534 474.007 291.949C474.171 296.283 474.416 300.862 474.743 305.686C474.743 305.686 474.702 305.931 474.621 306.422C474.539 306.913 474.293 307.485 473.885 308.139C473.558 308.711 473.026 309.243 472.29 309.734C471.554 310.224 470.491 310.429 469.101 310.347ZM534.37 287.043C533.144 286.88 532.163 286.512 531.427 285.939C530.691 285.285 530.159 284.672 529.832 284.1C529.587 283.527 529.464 283.241 529.464 283.241C529.301 278.58 529.096 273.674 528.851 268.523C528.688 263.372 528.565 258.016 528.483 252.456C528.483 246.814 528.565 241.049 528.728 235.162C528.728 235.162 528.769 234.917 528.851 234.426C528.933 233.936 529.137 233.404 529.464 232.832C529.873 232.178 530.527 231.646 531.427 231.237C532.326 230.747 533.512 230.501 534.984 230.501C536.374 230.583 537.518 230.869 538.418 231.36C539.317 231.851 539.971 232.464 540.38 233.2C540.871 233.854 541.198 234.549 541.361 235.285C541.525 235.939 541.607 236.511 541.607 237.002C541.689 237.492 541.729 237.738 541.729 237.738C541.402 241.99 541.116 245.955 540.871 249.635C540.707 253.233 540.503 256.789 540.258 260.305C540.094 263.821 539.89 267.501 539.644 271.344C539.399 275.105 539.113 279.316 538.786 283.977C538.786 283.977 538.663 284.263 538.418 284.835C538.254 285.326 537.846 285.858 537.191 286.43C536.619 286.921 535.679 287.125 534.37 287.043ZM534.248 310.715C532.939 310.715 531.754 310.469 530.691 309.979C529.628 309.406 528.769 308.671 528.115 307.771C527.543 306.79 527.257 305.727 527.257 304.582C527.257 303.437 527.543 302.415 528.115 301.516C528.769 300.535 529.628 299.758 530.691 299.186C531.754 298.613 532.939 298.327 534.248 298.327C535.638 298.327 536.864 298.613 537.927 299.186C539.072 299.758 539.931 300.535 540.503 301.516C541.157 302.415 541.484 303.437 541.484 304.582C541.484 305.972 541.157 307.158 540.503 308.139C539.931 309.039 539.072 309.693 537.927 310.101C536.864 310.51 535.638 310.715 534.248 310.715Z" fill="#DBDBDB"/>
<path d="M70.672 21.3587V19.5701L35.3205 0L0 19.5528L0 21.3756L35.3205 40.9289L70.672 21.3587Z" fill="#F7F7F7"/>
<path d="M12.2375 31.7165V43.4124L33.5317 55.2006H37.11L58.3456 43.4448C58.366 43.3933 58.3852 43.342 58.4043 43.2901V31.7164L35.3209 44.4949L12.2375 31.7165Z" fill="#F7F7F7"/>
<path d="M66.9485 49.6083V26.8548L64.1527 28.4751V49.6083L62.3311 55.9861L65.0847 60.2218H66.0165L68.77 55.9861L66.9485 49.6083Z" fill="#F7F7F7"/>
</svg>
