<svg width="51" height="51" viewBox="0 0 51 51" fill="none" xmlns="http://www.w3.org/2000/svg">
<path d="M10.8135 0.112305C10.8135 2.78723 10.8135 10.2763 10.8135 13.4861C10.8135 24.4527 20.5056 28.7322 25.7922 28.7322C31.0788 28.7322 40.771 24.4527 40.771 13.4861C40.771 10.2763 40.771 2.78723 40.771 0.112305H10.8135ZM25.8204 5.04482L19.1693 7.94943V17.558L19.1645 19.4637C19.1132 19.4527 14.5518 18.477 14.5518 11.8147C14.5518 9.06598 14.5518 5.02345 14.5518 5.02345H20.4438L25.8204 5.04482Z" fill="url(#paint0_linear_148_14366)"/>
<path d="M31.5954 39.2122L29.2739 35.9693L28.1137 31.1904L25.7923 31.5317L23.4709 31.1904L22.3103 35.9693L20.8499 38.0098L19.9893 39.1887H20.006L19.9893 39.2122H31.5954Z" fill="url(#paint1_linear_148_14366)"/>
<path d="M36.6167 42.2881V42.2646H14.9688V50.0314V50.0472V50.0706H36.6167V42.3039V42.2881Z" fill="url(#paint2_linear_148_14366)"/>
<path d="M50.736 9.54469C50.7328 9.42096 50.7294 9.31675 50.7294 9.23498V4.51294H43.5196V8.2926H46.9496V9.23498C46.9496 9.34495 46.9532 9.48448 46.958 9.65046C46.996 11.0142 47.0851 14.2079 44.8557 16.5005C44.3561 17.0143 43.7609 17.4555 43.078 17.8288C42.6991 19.5495 42.0916 21.1038 41.3115 22.4943C43.9032 21.8692 45.9977 20.7479 47.5657 19.1355C50.9081 15.6984 50.7831 11.2279 50.736 9.54469Z" fill="url(#paint3_linear_148_14366)"/>
<path d="M6.72874 16.5005C4.49935 14.2079 4.58853 11.0142 4.62688 9.65046C4.63146 9.48448 4.63488 9.34495 4.63488 9.23498V8.2926H8.03459H8.04142H8.06484V4.51294H0.855214V9.23498C0.855214 9.31675 0.852091 9.42096 0.848579 9.54469C0.801548 11.2279 0.676846 15.6984 4.01918 19.1356C5.58702 20.748 7.68127 21.8691 10.273 22.4944C9.49275 21.1039 8.88544 19.5493 8.50656 17.8287C7.82363 17.4553 7.22842 17.0143 6.72874 16.5005Z" fill="url(#paint4_linear_148_14366)"/>
<defs>
<linearGradient id="paint0_linear_148_14366" x1="25.7922" y1="0.112305" x2="25.7922" y2="28.7322" gradientUnits="userSpaceOnUse">
<stop stop-color="#E29B04"/>
<stop offset="1" stop-color="#C08300"/>
</linearGradient>
<linearGradient id="paint1_linear_148_14366" x1="25.7923" y1="31.1904" x2="25.7923" y2="39.2122" gradientUnits="userSpaceOnUse">
<stop stop-color="#E29B04"/>
<stop offset="1" stop-color="#C08300"/>
</linearGradient>
<linearGradient id="paint2_linear_148_14366" x1="25.7927" y1="42.2646" x2="25.7927" y2="50.0706" gradientUnits="userSpaceOnUse">
<stop stop-color="#E29B04"/>
<stop offset="1" stop-color="#C08300"/>
</linearGradient>
<linearGradient id="paint3_linear_148_14366" x1="46.0311" y1="4.51294" x2="46.0311" y2="22.4943" gradientUnits="userSpaceOnUse">
<stop stop-color="#E29B04"/>
<stop offset="1" stop-color="#C08300"/>
</linearGradient>
<linearGradient id="paint4_linear_148_14366" x1="5.55347" y1="4.51294" x2="5.55347" y2="22.4944" gradientUnits="userSpaceOnUse">
<stop stop-color="#E29B04"/>
<stop offset="1" stop-color="#C08300"/>
</linearGradient>
</defs>
</svg>
