<svg width="50" height="51" viewBox="0 0 50 51" fill="none" xmlns="http://www.w3.org/2000/svg">
<path d="M9.97949 0.112305C9.97949 2.78723 9.97949 10.2763 9.97949 13.4861C9.97949 24.4527 19.6716 28.7322 24.9582 28.7322C30.2448 28.7322 39.937 24.4527 39.937 13.4861C39.937 10.2763 39.937 2.78723 39.937 0.112305H9.97949ZM24.9864 5.04482L18.3353 7.94943V17.558L18.3305 19.4637C18.2792 19.4527 13.7178 18.477 13.7178 11.8147C13.7178 9.06598 13.7178 5.02345 13.7178 5.02345H19.6099L24.9864 5.04482Z" fill="url(#paint0_linear_148_14364)"/>
<path d="M30.7614 39.2122L28.4399 35.9693L27.2798 31.1904L24.9584 31.5317L22.6369 31.1904L21.4763 35.9693L20.0159 38.0098L19.1553 39.1887H19.1721L19.1553 39.2122H30.7614Z" fill="url(#paint1_linear_148_14364)"/>
<path d="M35.7828 42.2881V42.2646H14.1348V50.0314V50.0472V50.0706H35.7828V42.3039V42.2881Z" fill="url(#paint2_linear_148_14364)"/>
<path d="M49.902 9.54469C49.8988 9.42096 49.8954 9.31675 49.8954 9.23498V4.51294H42.6857V8.2926H46.1156V9.23498C46.1156 9.34495 46.1192 9.48448 46.124 9.65046C46.162 11.0142 46.2511 14.2079 44.0218 16.5005C43.5221 17.0143 42.9269 17.4555 42.244 17.8288C41.8652 19.5495 41.2577 21.1038 40.4775 22.4943C43.0692 21.8692 45.1637 20.7479 46.7317 19.1355C50.0741 15.6984 49.9491 11.2279 49.902 9.54469Z" fill="url(#paint3_linear_148_14364)"/>
<path d="M5.89476 16.5005C3.66536 14.2079 3.75455 11.0142 3.79289 9.65046C3.79748 9.48448 3.80089 9.34495 3.80089 9.23498V8.2926H7.2006H7.20743H7.23085V4.51294H0.0212294V9.23498C0.0212294 9.31675 0.018107 9.42096 0.0145943 9.54469C-0.0324369 11.2279 -0.157138 15.6984 3.1852 19.1356C4.75303 20.748 6.84728 21.8691 9.43897 22.4944C8.65876 21.1039 8.05146 19.5493 7.67257 17.8287C6.98965 17.4553 6.39444 17.0143 5.89476 16.5005Z" fill="url(#paint4_linear_148_14364)"/>
<defs>
<linearGradient id="paint0_linear_148_14364" x1="24.9582" y1="0.112305" x2="24.9582" y2="28.7322" gradientUnits="userSpaceOnUse">
<stop offset="0.126741" stop-color="#E1ED00"/>
<stop offset="0.69565" stop-color="#BEC900"/>
</linearGradient>
<linearGradient id="paint1_linear_148_14364" x1="24.9584" y1="31.1904" x2="24.9584" y2="39.2122" gradientUnits="userSpaceOnUse">
<stop offset="0.126741" stop-color="#E1ED00"/>
<stop offset="0.69565" stop-color="#BEC900"/>
</linearGradient>
<linearGradient id="paint2_linear_148_14364" x1="24.9588" y1="42.2646" x2="24.9588" y2="50.0706" gradientUnits="userSpaceOnUse">
<stop offset="0.126741" stop-color="#E1ED00"/>
<stop offset="0.69565" stop-color="#BEC900"/>
</linearGradient>
<linearGradient id="paint3_linear_148_14364" x1="45.1971" y1="4.51294" x2="45.1971" y2="22.4943" gradientUnits="userSpaceOnUse">
<stop offset="0.126741" stop-color="#E1ED00"/>
<stop offset="0.69565" stop-color="#BEC900"/>
</linearGradient>
<linearGradient id="paint4_linear_148_14364" x1="4.71949" y1="4.51294" x2="4.71949" y2="22.4944" gradientUnits="userSpaceOnUse">
<stop offset="0.126741" stop-color="#E1ED00"/>
<stop offset="0.69565" stop-color="#BEC900"/>
</linearGradient>
</defs>
</svg>
