<svg width="51" height="51" viewBox="0 0 51 51" fill="none" xmlns="http://www.w3.org/2000/svg">
<path d="M10.8965 0.112305C10.8965 2.78723 10.8965 10.2763 10.8965 13.4861C10.8965 24.4527 20.5886 28.7322 25.8752 28.7322C31.1618 28.7322 40.854 24.4527 40.854 13.4861C40.854 10.2763 40.854 2.78723 40.854 0.112305H10.8965ZM25.9034 5.04482L19.2523 7.94943V17.558L19.2475 19.4637C19.1962 19.4527 14.6348 18.477 14.6348 11.8147C14.6348 9.06598 14.6348 5.02345 14.6348 5.02345H20.5268L25.9034 5.04482Z" fill="url(#paint0_linear_148_14365)"/>
<path d="M31.6784 39.2122L29.3569 35.9693L28.1967 31.1904L25.8753 31.5317L23.5539 31.1904L22.3933 35.9693L20.9329 38.0098L20.0723 39.1887H20.089L20.0723 39.2122H31.6784Z" fill="url(#paint1_linear_148_14365)"/>
<path d="M36.6997 42.2881V42.2646H15.0518V50.0314V50.0472V50.0706H36.6997V42.3039V42.2881Z" fill="url(#paint2_linear_148_14365)"/>
<path d="M50.819 9.54469C50.8158 9.42096 50.8124 9.31675 50.8124 9.23498V4.51294H43.6027V8.2926H47.0326V9.23498C47.0326 9.34495 47.0362 9.48448 47.041 9.65046C47.079 11.0142 47.1681 14.2079 44.9387 16.5005C44.4391 17.0143 43.8439 17.4555 43.161 17.8288C42.7821 19.5495 42.1746 21.1038 41.3945 22.4943C43.9862 21.8692 46.0807 20.7479 47.6487 19.1355C50.9911 15.6984 50.8661 11.2279 50.819 9.54469Z" fill="url(#paint3_linear_148_14365)"/>
<path d="M6.81175 16.5005C4.58236 14.2079 4.67154 11.0142 4.70989 9.65046C4.71447 9.48448 4.71789 9.34495 4.71789 9.23498V8.2926H8.1176H8.12443H8.14784V4.51294H0.938222V9.23498C0.938222 9.31675 0.935099 9.42096 0.931586 9.54469C0.884555 11.2279 0.759854 15.6984 4.10219 19.1356C5.67002 20.748 7.76428 21.8691 10.356 22.4944C9.57576 21.1039 8.96845 19.5493 8.58957 17.8287C7.90664 17.4553 7.31143 17.0143 6.81175 16.5005Z" fill="url(#paint4_linear_148_14365)"/>
<defs>
<linearGradient id="paint0_linear_148_14365" x1="25.8752" y1="0.112305" x2="25.8752" y2="28.7322" gradientUnits="userSpaceOnUse">
<stop stop-color="#8B8B8B"/>
<stop offset="1" stop-color="#AAAAAA"/>
</linearGradient>
<linearGradient id="paint1_linear_148_14365" x1="25.8753" y1="31.1904" x2="25.8753" y2="39.2122" gradientUnits="userSpaceOnUse">
<stop stop-color="#8B8B8B"/>
<stop offset="1" stop-color="#AAAAAA"/>
</linearGradient>
<linearGradient id="paint2_linear_148_14365" x1="25.8758" y1="42.2646" x2="25.8758" y2="50.0706" gradientUnits="userSpaceOnUse">
<stop stop-color="#8B8B8B"/>
<stop offset="1" stop-color="#AAAAAA"/>
</linearGradient>
<linearGradient id="paint3_linear_148_14365" x1="46.1141" y1="4.51294" x2="46.1141" y2="22.4943" gradientUnits="userSpaceOnUse">
<stop stop-color="#8B8B8B"/>
<stop offset="1" stop-color="#AAAAAA"/>
</linearGradient>
<linearGradient id="paint4_linear_148_14365" x1="5.63648" y1="4.51294" x2="5.63648" y2="22.4944" gradientUnits="userSpaceOnUse">
<stop stop-color="#8B8B8B"/>
<stop offset="1" stop-color="#AAAAAA"/>
</linearGradient>
</defs>
</svg>
