<svg width="40" height="41" viewBox="0 0 40 41" fill="none" xmlns="http://www.w3.org/2000/svg">
<path d="M25.3195 9.08C25.3195 8.36023 25.6966 7.70965 26.1326 7.13699C26.5803 6.54907 26.8395 5.85171 26.8395 5.10388C26.8395 3.00524 24.798 1.30396 22.2796 1.30396C19.7612 1.30396 17.7197 3.00524 17.7197 5.10388C17.7197 5.85171 17.9789 6.54907 18.4266 7.13699C18.8626 7.70965 19.2397 8.36023 19.2397 9.08V9.08C19.2397 9.81217 18.6401 10.4034 17.9082 10.3824C15.0636 10.3004 12.2495 10.0964 9.47109 9.77525C9.84878 13.0437 10.0645 16.3615 10.1099 19.7205C10.12 20.4621 9.51777 21.0635 8.77604 21.0636V21.0636C8.05628 21.0636 7.40569 20.6865 6.83303 20.2505C6.24512 19.8028 5.54775 19.5436 4.79993 19.5436C2.70129 19.5436 1 21.5851 1 24.1035C1 26.6219 2.70129 28.6634 4.79993 28.6634C5.54775 28.6634 6.24512 28.4042 6.83303 27.9566C7.40569 27.5205 8.05628 27.1435 8.77604 27.1435V27.1435C9.40266 27.1435 9.90007 27.672 9.85413 28.2969C9.5991 31.7665 9.16208 35.1855 8.55259 38.5445C11.6288 38.9297 14.7497 39.1712 17.9083 39.2621C18.6403 39.2832 19.2399 38.6918 19.2399 37.9595V37.9595C19.2399 37.2398 18.8628 36.5892 18.4268 36.0165C17.9791 35.4286 17.7199 34.7313 17.7199 33.9834C17.7199 31.8848 19.7615 30.1835 22.2798 30.1835C24.7982 30.1835 26.8397 31.8848 26.8397 33.9834C26.8397 34.7313 26.5805 35.4286 26.1329 36.0165C25.6968 36.5892 25.3198 37.2398 25.3198 37.9595V37.9595C25.3198 38.6342 25.8832 39.1729 26.5567 39.1333C30.2832 38.9143 33.9534 38.4855 37.5555 37.8586C38.1016 34.7209 38.4973 31.5316 38.735 28.2983C38.781 27.6727 38.2831 27.1436 37.6557 27.1436V27.1436C36.936 27.1436 36.2854 27.5206 35.7127 27.9566C35.1248 28.4043 34.4274 28.6635 33.6796 28.6635C31.581 28.6635 29.8797 26.622 29.8797 24.1036C29.8797 21.5852 31.581 19.5437 33.6796 19.5437C34.4274 19.5437 35.1248 19.8029 35.7127 20.2506C36.2854 20.6866 36.936 21.0637 37.6557 21.0637V21.0637C38.3981 21.0637 39.001 20.4617 38.9909 19.7194C38.9411 16.0459 38.6878 12.4215 38.2416 8.85715C34.4196 9.55062 30.5199 10.0208 26.5563 10.2537C25.8829 10.2932 25.3195 9.75457 25.3195 9.08V9.08Z" stroke="#626262" stroke-width="2" stroke-linecap="round" stroke-linejoin="round"/>
</svg>
