<svg width="42" height="41" viewBox="0 0 42 41" fill="none" xmlns="http://www.w3.org/2000/svg">
<path fill-rule="evenodd" clip-rule="evenodd" d="M19.3206 1.99957C20.2481 1.07208 21.7519 1.07208 22.6794 1.99957L39.3043 18.6245C39.9836 19.3038 40.1867 20.3253 39.8191 21.2128C39.4515 22.1002 38.5855 22.6789 37.6249 22.6789H35.2499V36.9288C35.2499 38.2405 34.1866 39.3038 32.875 39.3038H28.125C26.8133 39.3038 25.75 38.2405 25.75 36.9288V29.8038C25.75 28.4922 24.6867 27.4289 23.375 27.4289H18.625C17.3133 27.4289 16.25 28.4922 16.25 29.8038V36.9288C16.25 38.2405 15.1867 39.3038 13.875 39.3038H9.12504C7.81337 39.3038 6.75005 38.2405 6.75005 36.9288V22.6789H4.37506C3.41447 22.6789 2.54846 22.1002 2.18085 21.2128C1.81325 20.3253 2.01645 19.3038 2.69569 18.6245L19.3206 1.99957Z" stroke="#626262" stroke-width="2.17143" stroke-linecap="round" stroke-linejoin="round"/>
</svg>
