<svg width="42" height="38" viewBox="0 0 42 38" fill="none" xmlns="http://www.w3.org/2000/svg">
<path d="M37.1852 18.1928V33.6743C37.1852 35.2289 35.9249 36.4891 34.3704 36.4891H7.62963C6.07505 36.4891 4.81481 35.2289 4.81481 33.6743V18.1928M20.2963 6.22988C20.2963 3.50937 18.0909 1.30396 15.3704 1.30396C12.6499 1.30396 10.4444 3.50937 10.4444 6.22988C10.4444 8.95039 12.6499 11.1558 15.3704 11.1558C16.7487 11.1558 20.2963 11.1558 20.2963 11.1558M20.2963 6.22988C20.2963 7.57206 20.2963 11.1558 20.2963 11.1558M20.2963 6.22988C20.2963 3.50937 22.5017 1.30396 25.2222 1.30396C27.9427 1.30396 30.1481 3.50937 30.1481 6.22988C30.1481 8.95039 27.9427 11.1558 25.2222 11.1558C23.8439 11.1558 20.2963 11.1558 20.2963 11.1558M20.2963 11.1558V36.4891M4.11111 18.1928H37.8889C39.0548 18.1928 40 17.2477 40 16.0817V13.2669C40 12.101 39.0548 11.1558 37.8889 11.1558H4.11111C2.94518 11.1558 2 12.101 2 13.2669V16.0817C2 17.2477 2.94518 18.1928 4.11111 18.1928Z" stroke="#626262" stroke-width="2.17143" stroke-linecap="round" stroke-linejoin="round"/>
</svg>
