<svg width="41" height="41" viewBox="0 0 41 41" fill="none" xmlns="http://www.w3.org/2000/svg">
<path d="M4.21532 20.3023C4.21532 29.1817 11.4135 36.3799 20.2929 36.3799C29.1723 36.3799 36.3704 29.1817 36.3704 20.3023M4.21532 20.3023C4.21532 11.423 11.4135 4.22479 20.2929 4.22479C29.1723 4.22479 36.3704 11.423 36.3704 20.3023M4.21532 20.3023L0.999816 20.3023M36.3704 20.3023L39.5859 20.3023M36.3704 20.3023L20.2929 20.3023M2.16289 26.901L5.18448 25.8012M35.4004 14.8035L38.422 13.7037M5.51326 32.705L7.97648 30.6381M32.6087 9.96922L35.0719 7.90233M10.6461 37.0123L12.2539 34.2276M28.3314 6.38043L29.9392 3.59572M16.9425 39.3039L17.5008 36.1372M23.0845 4.47061L23.6429 1.30395M23.6429 39.304L23.0845 36.1373M17.5009 4.4707L16.9425 1.30404M29.9393 37.0119L28.3315 34.2272M10.6462 3.59539L20.2929 20.3023M35.0723 32.7037L32.609 30.6368M7.9768 9.96789L5.51358 7.901M38.4225 26.9013L35.4009 25.8015M5.18501 14.8038L2.16342 13.7041M20.2929 20.3023L12.2541 34.2259" stroke="#626262" stroke-width="2" stroke-linecap="round" stroke-linejoin="round"/>
</svg>
