<svg width="40" height="41" viewBox="0 0 40 41" fill="none" xmlns="http://www.w3.org/2000/svg">
<path d="M32.6277 34.5008C29.7367 30.6853 25.1562 28.2206 20 28.2206C14.8438 28.2206 10.2633 30.6853 7.37231 34.5008M32.6277 34.5008C36.5374 31.0207 39 25.9499 39 20.304C39 9.81054 30.4934 1.30396 20 1.30396C9.50659 1.30396 1 9.81054 1 20.304C1 25.9499 3.46261 31.0207 7.37231 34.5008M32.6277 34.5008C29.2709 37.4886 24.8475 39.304 20 39.304C15.1525 39.304 10.7291 37.4886 7.37231 34.5008M26.3333 15.554C26.3333 19.0518 23.4978 21.8873 20 21.8873C16.5022 21.8873 13.6667 19.0518 13.6667 15.554C13.6667 12.0562 16.5022 9.22062 20 9.22062C23.4978 9.22062 26.3333 12.0562 26.3333 15.554Z" stroke="#626262" stroke-width="2" stroke-linecap="round" stroke-linejoin="round"/>
</svg>
