<svg width="41" height="36" viewBox="0 0 41 36" fill="none" xmlns="http://www.w3.org/2000/svg">
<path d="M32.2769 30.4748C32.7593 30.5147 33.2471 30.535 33.7397 30.535C35.7827 30.535 37.744 30.1857 39.5673 29.5436C39.5796 29.3885 39.5859 29.2317 39.5859 29.0734C39.5859 25.8446 36.9685 23.2272 33.7397 23.2272C32.5167 23.2272 31.3813 23.6028 30.4428 24.2449M32.2769 30.4748C32.277 30.4949 32.2771 30.5149 32.2771 30.535C32.2771 30.9734 32.2529 31.4062 32.2059 31.8321C28.7825 33.7965 24.8147 34.9196 20.5847 34.9196C16.3546 34.9196 12.3869 33.7965 8.9634 31.8321C8.91639 31.4062 8.89226 30.9734 8.89226 30.535C8.89226 30.515 8.89231 30.495 8.89241 30.475M32.2769 30.4748C32.2654 28.182 31.5939 26.0453 30.4428 24.2449M30.4428 24.2449C28.3656 20.9963 24.7266 18.8426 20.5847 18.8426C16.4432 18.8426 12.8046 20.9957 10.7274 24.2437M10.7274 24.2437C9.78913 23.6023 8.65444 23.2272 7.43214 23.2272C4.20337 23.2272 1.58594 25.8446 1.58594 29.0734C1.58594 29.2317 1.59223 29.3885 1.60457 29.5436C3.42787 30.1857 5.38921 30.535 7.43214 30.535C7.92389 30.535 8.41091 30.5147 8.89241 30.475M10.7274 24.2437C9.57569 26.0444 8.90392 28.1817 8.89241 30.475M26.4309 7.15016C26.4309 10.3789 23.8134 12.9964 20.5847 12.9964C17.3559 12.9964 14.7385 10.3789 14.7385 7.15016C14.7385 3.92139 17.3559 1.30396 20.5847 1.30396C23.8134 1.30396 26.4309 3.92139 26.4309 7.15016ZM38.1233 12.9964C38.1233 15.4179 36.1602 17.381 33.7386 17.381C31.317 17.381 29.354 15.4179 29.354 12.9964C29.354 10.5748 31.317 8.61171 33.7386 8.61171C36.1602 8.61171 38.1233 10.5748 38.1233 12.9964ZM11.8154 12.9964C11.8154 15.4179 9.85229 17.381 7.43071 17.381C5.00914 17.381 3.04606 15.4179 3.04606 12.9964C3.04606 10.5748 5.00914 8.61171 7.43071 8.61171C9.85229 8.61171 11.8154 10.5748 11.8154 12.9964Z" stroke="#626262" stroke-width="2" stroke-linecap="round" stroke-linejoin="round"/>
</svg>
