<svg width="62" height="58" viewBox="0 0 62 58" fill="none" xmlns="http://www.w3.org/2000/svg">
<path d="M22.1858 4.95744C19.2816 4.95744 16.9272 7.29749 16.9272 10.1841C16.9272 13.0707 19.2816 15.4107 22.1858 15.4107H27.4444V27.9547H5.35823C2.45398 27.9547 0.0996094 25.6146 0.0996094 22.728V20.6374C0.0996094 17.7508 2.45397 15.4107 5.35823 15.4107H14.3142C13.3074 13.9158 12.7203 12.1181 12.7203 10.1841C12.7203 4.98821 16.9582 0.776123 22.1858 0.776123C25.1593 0.776123 27.8126 2.13889 29.5479 4.27031C31.2832 2.13889 33.9365 0.776123 36.91 0.776123C42.1376 0.776123 46.3755 4.98821 46.3755 10.1841C46.3755 12.1181 45.7883 13.9158 44.7815 15.4107H55.841C58.7452 15.4107 61.0996 17.7508 61.0996 20.6374V22.728C61.0996 25.6146 58.7452 27.9547 55.841 27.9547H31.6513V15.4107H36.91C39.8142 15.4107 42.1686 13.0707 42.1686 10.1841C42.1686 7.29749 39.8142 4.95744 36.91 4.95744C34.0057 4.95744 31.6513 7.29749 31.6513 10.1841V15.4107H27.4444V10.1841C27.4444 7.29749 25.0901 4.95744 22.1858 4.95744Z" fill="#2BAFDE"/>
<path d="M27.4444 32.136H4.30651V50.9519C4.30651 54.4158 7.13174 57.2239 10.6168 57.2239H27.4444V32.136Z" fill="#2BAFDE"/>
<path d="M31.6513 32.136V57.2239H50.5824C54.0675 57.2239 56.8927 54.4158 56.8927 50.9519V32.136H31.6513Z" fill="#2BAFDE"/>
</svg>
